999
dxflib 2.2.0.0
  0
SECTION
  2
HEADER
  9
$ACADVER
  1
AC1015
  9
$HANDSEED
  5
FFFF
  9
$SPLINESEGS
 70
8
  9
$DIMEXE
 40
1.25
  9
$PSVPSCALE
 40
3.7351100000000002
  9
$DIMLUNIT
 70
2
  9
$GRIDMODE
 70
1
  9
$INSUNITS
 70
1
  9
$DIMADEC
 70
2
  9
$DIMASZ
 40
2.5
  9
$DIMGAP
 40
0.625
  9
$DIMTXT
 40
2.5
  9
$GRIDUNIT
 10
0.0
 20
0.0
  9
$DIMEXO
 40
0.625
  9
$LUPREC
 70
4
  9
$PINSBASE
 10
15.6193215177165357
 20
-360.0075678070866729
 30
0.0
  9
$DIMAUNIT
 70
0
  9
$AUPREC
 70
2
  9
$PLIMMIN
 10
0.0
 20
0.0
  9
$LUNITS
 70
2
  9
$PLIMMAX
 10
8.2677165354330722
 20
11.6929133858267722
  9
$DIMSTYLE
  2
Standard
  9
$AUNITS
 70
0
  0
ENDSEC
  0
SECTION
  2
TABLES
  0
TABLE
  2
VPORT
  5
8
100
AcDbSymbolTable
 70
1
  0
VPORT
  5
30
100
AcDbSymbolTableRecord
100
AcDbViewportTableRecord
  2
*Active
 70
0
 10
0.0
 20
0.0
 11
1.0
 21
1.0
 12
286.3055555555554861
 22
148.5
 13
0.0
 23
0.0
 14
10.0
 24
10.0
 15
10.0
 25
10.0
 16
0.0
 26
0.0
 36
1.0
 17
0.0
 27
0.0
 37
0.0
 40
297.0
 41
1.92798353909465
 42
50.0
 43
0.0
 44
0.0
 50
0.0
 51
0.0
 71
0
 72
100
 73
1
 74
3
 75
1
 76
1
 77
0
 78
0
281
0
 65
1
110
0.0
120
0.0
130
0.0
111
1.0
121
0.0
131
0.0
112
0.0
122
1.0
132
0.0
 79
0
146
0.0
  0
ENDTAB
  0
TABLE
  2
LTYPE
  5
5
100
AcDbSymbolTable
 70
21
  0
LTYPE
  5
14
100
AcDbSymbolTableRecord
100
AcDbLinetypeTableRecord
  2
ByBlock
 70
0
  3

 72
65
 73
0
 40
0.0
  0
LTYPE
  5
15
100
AcDbSymbolTableRecord
100
AcDbLinetypeTableRecord
  2
ByLayer
 70
0
  3

 72
65
 73
0
 40
0.0
  0
LTYPE
  5
16
100
AcDbSymbolTableRecord
100
AcDbLinetypeTableRecord
  2
CONTINUOUS
 70
0
  3
Solid line
 72
65
 73
0
 40
0.0
  0
LTYPE
  5
31
100
AcDbSymbolTableRecord
100
AcDbLinetypeTableRecord
  2
DOT
 70
0
  3
Dot . . . . . . . . . . . . . . . . . . . . . .
 72
65
 73
2
 40
6.3499999999999996
 49
0.0
 74
0
 49
-6.3499999999999996
 74
0
  0
LTYPE
  5
32
100
AcDbSymbolTableRecord
100
AcDbLinetypeTableRecord
  2
DOT2
 70
0
  3
Dot (.5x) .....................................
 72
65
 73
2
 40
3.1749999999999998
 49
0.0
 74
0
 49
-3.1749999999999998
 74
0
  0
LTYPE
  5
33
100
AcDbSymbolTableRecord
100
AcDbLinetypeTableRecord
  2
DOTX2
 70
0
  3
Dot (2x) .  .  .  .  .  .  .  .  .  .  .  .  .
 72
65
 73
2
 40
12.6999999999999993
 49
0.0
 74
0
 49
-12.6999999999999993
 74
0
  0
LTYPE
  5
34
100
AcDbSymbolTableRecord
100
AcDbLinetypeTableRecord
  2
DASHED
 70
0
  3
Dashed __ __ __ __ __ __ __ __ __ __ __ __ __ _
 72
65
 73
2
 40
19.0500000000000007
 49
12.6999999999999993
 74
0
 49
-6.3499999999999996
 74
0
  0
LTYPE
  5
35
100
AcDbSymbolTableRecord
100
AcDbLinetypeTableRecord
  2
DASHED2
 70
0
  3
Dashed (.5x) _ _ _ _ _ _ _ _ _ _ _ _ _ _ _ _ _
 72
65
 73
2
 40
9.5250000000000004
 49
6.3499999999999996
 74
0
 49
-3.1749999999999998
 74
0
  0
LTYPE
  5
36
100
AcDbSymbolTableRecord
100
AcDbLinetypeTableRecord
  2
DASHEDX2
 70
0
  3
Dashed (2x) ____  ____  ____  ____  ____  ___
 72
65
 73
2
 40
38.1000000000000014
 49
25.3999999999999986
 74
0
 49
-12.6999999999999993
 74
0
  0
LTYPE
  5
37
100
AcDbSymbolTableRecord
100
AcDbLinetypeTableRecord
  2
DASHDOT
 70
0
  3
Dash dot __ . __ . __ . __ . __ . __ . __ . __
 72
65
 73
4
 40
25.3999999999999986
 49
12.6999999999999993
 74
0
 49
-6.3499999999999996
 74
0
 49
0.0
 74
0
 49
-6.3499999999999996
 74
0
  0
LTYPE
  5
38
100
AcDbSymbolTableRecord
100
AcDbLinetypeTableRecord
  2
DASHDOT2
 70
0
  3
Dash dot (.5x) _._._._._._._._._._._._._._._.
 72
65
 73
4
 40
12.6999999999999993
 49
6.3499999999999996
 74
0
 49
-3.1749999999999998
 74
0
 49
0.0
 74
0
 49
-3.1749999999999998
 74
0
  0
LTYPE
  5
39
100
AcDbSymbolTableRecord
100
AcDbLinetypeTableRecord
  2
DASHDOTX2
 70
0
  3
Dash dot (2x) ____  .  ____  .  ____  .  ___
 72
65
 73
4
 40
50.7999999999999972
 49
25.3999999999999986
 74
0
 49
-12.6999999999999993
 74
0
 49
0.0
 74
0
 49
-12.6999999999999993
 74
0
  0
LTYPE
  5
3A
100
AcDbSymbolTableRecord
100
AcDbLinetypeTableRecord
  2
DIVIDE
 70
0
  3
Divide ____ . . ____ . . ____ . . ____ . . ____
 72
65
 73
6
 40
31.75
 49
12.6999999999999993
 74
0
 49
-6.3499999999999996
 74
0
 49
0.0
 74
0
 49
-6.3499999999999996
 74
0
 49
0.0
 74
0
 49
-6.3499999999999996
 74
0
  0
LTYPE
  5
3B
100
AcDbSymbolTableRecord
100
AcDbLinetypeTableRecord
  2
DIVIDE2
 70
0
  3
Divide (.5x) __..__..__..__..__..__..__..__.._
 72
65
 73
6
 40
15.875
 49
6.3499999999999996
 74
0
 49
-3.1749999999999998
 74
0
 49
0.0
 74
0
 49
-3.1749999999999998
 74
0
 49
0.0
 74
0
 49
-3.1749999999999998
 74
0
  0
LTYPE
  5
3C
100
AcDbSymbolTableRecord
100
AcDbLinetypeTableRecord
  2
DIVIDEX2
 70
0
  3
Divide (2x) ________  .  .  ________  .  .  _
 72
65
 73
6
 40
63.5
 49
25.3999999999999986
 74
0
 49
-12.6999999999999993
 74
0
 49
0.0
 74
0
 49
-12.6999999999999993
 74
0
 49
0.0
 74
0
 49
-12.6999999999999993
 74
0
  0
LTYPE
  5
3D
100
AcDbSymbolTableRecord
100
AcDbLinetypeTableRecord
  2
CENTER
 70
0
  3
Center ____ _ ____ _ ____ _ ____ _ ____ _ ____
 72
65
 73
4
 40
50.7999999999999972
 49
31.75
 74
0
 49
-6.3499999999999996
 74
0
 49
6.3499999999999996
 74
0
 49
-6.3499999999999996
 74
0
  0
LTYPE
  5
3E
100
AcDbSymbolTableRecord
100
AcDbLinetypeTableRecord
  2
CENTER2
 70
0
  3
Center (.5x) ___ _ ___ _ ___ _ ___ _ ___ _ ___
 72
65
 73
4
 40
28.5749999999999993
 49
19.0500000000000007
 74
0
 49
-3.1749999999999998
 74
0
 49
3.1749999999999998
 74
0
 49
-3.1749999999999998
 74
0
  0
LTYPE
  5
3F
100
AcDbSymbolTableRecord
100
AcDbLinetypeTableRecord
  2
CENTERX2
 70
0
  3
Center (2x) ________  __  ________  __  _____
 72
65
 73
4
 40
101.5999999999999943
 49
63.5
 74
0
 49
-12.6999999999999993
 74
0
 49
12.6999999999999993
 74
0
 49
-12.6999999999999993
 74
0
  0
LTYPE
  5
40
100
AcDbSymbolTableRecord
100
AcDbLinetypeTableRecord
  2
BORDER
 70
0
  3
Border __ __ . __ __ . __ __ . __ __ . __ __ .
 72
65
 73
6
 40
44.4500000000000028
 49
12.6999999999999993
 74
0
 49
-6.3499999999999996
 74
0
 49
12.6999999999999993
 74
0
 49
-6.3499999999999996
 74
0
 49
0.0
 74
0
 49
-6.3499999999999996
 74
0
  0
LTYPE
  5
41
100
AcDbSymbolTableRecord
100
AcDbLinetypeTableRecord
  2
BORDER2
 70
0
  3
Border (.5x) __.__.__.__.__.__.__.__.__.__.__.
 72
65
 73
6
 40
22.2250000000000014
 49
6.3499999999999996
 74
0
 49
-3.1749999999999998
 74
0
 49
6.3499999999999996
 74
0
 49
-3.1749999999999998
 74
0
 49
0.0
 74
0
 49
-3.1749999999999998
 74
0
  0
LTYPE
  5
42
100
AcDbSymbolTableRecord
100
AcDbLinetypeTableRecord
  2
BORDERX2
 70
0
  3
Border (2x) ____  ____  .  ____  ____  .  ___
 72
65
 73
6
 40
88.9000000000000057
 49
25.3999999999999986
 74
0
 49
-12.6999999999999993
 74
0
 49
25.3999999999999986
 74
0
 49
-12.6999999999999993
 74
0
 49
0.0
 74
0
 49
-12.6999999999999993
 74
0
  0
ENDTAB
  0
TABLE
  2
LAYER
  5
2
100
AcDbSymbolTable
 70
6
  0
LAYER
  5
10
100
AcDbSymbolTableRecord
100
AcDbLayerTableRecord
  2
0
 70
0
 62
7
  6
CONTINUOUS
370
0
390
F
  0
LAYER
  5
43
100
AcDbSymbolTableRecord
100
AcDbLayerTableRecord
  2
Punkty
 70
0
 62
5
  6
CONTINUOUS
370
-3
390
F
  0
LAYER
  5
44
100
AcDbSymbolTableRecord
100
AcDbLayerTableRecord
  2
Elementy
 70
0
 62
1
  6
CONTINUOUS
370
0
390
F
  0
LAYER
  5
45
100
AcDbSymbolTableRecord
100
AcDbLayerTableRecord
  2
Polaczenia
 70
0
 62
5
  6
CONTINUOUS
370
100
390
F
  0
LAYER
  5
46
100
AcDbSymbolTableRecord
100
AcDbLayerTableRecord
  2
kreskowanie
 70
0
 62
7
  6
CONTINUOUS
370
0
390
F
  0
LAYER
  5
47
100
AcDbSymbolTableRecord
100
AcDbLayerTableRecord
  2
Opisy
 70
0
 62
3
  6
CONTINUOUS
370
13
390
F
  0
ENDTAB
  0
TABLE
  2
STYLE
  5
3
100
AcDbSymbolTable
 70
1
  0
STYLE
  5
11
100
AcDbSymbolTableRecord
100
AcDbTextStyleTableRecord
  2
Standard
 70
0
 40
0.0
 41
0.75
 50
0.0
 71
0
 42
2.5
  3
txt
  4

  0
ENDTAB
  0
TABLE
  2
VIEW
  5
6
100
AcDbSymbolTable
 70
0
  0
ENDTAB
  0
TABLE
  2
UCS
  5
7
100
AcDbSymbolTable
 70
0
  0
ENDTAB
  0
TABLE
  2
APPID
  5
9
100
AcDbSymbolTable
 70
1
  0
APPID
  5
12
100
AcDbSymbolTableRecord
100
AcDbRegAppTableRecord
  2
ACAD
 70
0
  0
ENDTAB
  0
TABLE
  2
DIMSTYLE
  5
A
100
AcDbSymbolTable
 70
1
100
AcDbDimStyleTable
 71
0
  0
DIMSTYLE
105
27
100
AcDbSymbolTableRecord
100
AcDbDimStyleTableRecord
  2
Standard
 41
2.5
 42
0.625
 43
3.75
 44
1.25
 70
0
 73
0
 74
0
 77
1
 78
8
140
2.5
141
2.5
143
0.03937007874016
147
0.625
171
3
172
1
271
2
272
2
274
3
278
44
283
0
284
8
340
11
  0
ENDTAB
  0
TABLE
  2
BLOCK_RECORD
  5
1
100
AcDbSymbolTable
 70
1
  0
BLOCK_RECORD
  5
1F
100
AcDbSymbolTableRecord
100
AcDbBlockTableRecord
  2
*Model_Space
340
22
  0
BLOCK_RECORD
  5
1B
100
AcDbSymbolTableRecord
100
AcDbBlockTableRecord
  2
*Paper_Space
340
1E
  0
BLOCK_RECORD
  5
23
100
AcDbSymbolTableRecord
100
AcDbBlockTableRecord
  2
*Paper_Space0
340
26
  0
ENDTAB
  0
ENDSEC
  0
SECTION
  2
BLOCKS
  0
BLOCK
  5
20
100
AcDbEntity
  8
0
100
AcDbBlockBegin
  2
*Model_Space
 70
0
 10
0.0
 20
0.0
 30
0.0
  3
*Model_Space
  1

  0
ENDBLK
  5
21
100
AcDbEntity
  8
0
100
AcDbBlockEnd
  0
BLOCK
  5
1C
100
AcDbEntity
 67
1
  8
0
100
AcDbBlockBegin
  2
*Paper_Space
 70
0
 10
0.0
 20
0.0
 30
0.0
  3
*Paper_Space
  1

  0
ENDBLK
  5
1D
100
AcDbEntity
 67
1
  8
0
100
AcDbBlockEnd
  0
BLOCK
  5
24
100
AcDbEntity
  8
0
100
AcDbBlockBegin
  2
*Paper_Space0
 70
0
 10
0.0
 20
0.0
 30
0.0
  3
*Paper_Space0
  1

  0
ENDBLK
  5
25
100
AcDbEntity
  8
0
100
AcDbBlockEnd
  0
ENDSEC
  0
SECTION
  2
ENTITIES
  0
HATCH
  5
48
  8
Punkty
 62
256
370
-1
  6
ByLayer
100
AcDbEntity
100
AcDbHatch
 10
0.0
 20
0.0
 30
0.0
210
0.0
220
0.0
230
1.0
  2
SOLID
 70
1
 71
0
 91
1
 92
1
 93
1
 72
2
 10
-2.8000000000000012
 20
98.4999999999999574
 40
0.04
 50
0.0
 51
360.0
 73
1
 97
0
 75
0
 76
1
 98
0
  0
HATCH
  5
49
  8
Punkty
 62
256
370
-1
  6
ByLayer
100
AcDbEntity
100
AcDbHatch
 10
0.0
 20
0.0
 30
0.0
210
0.0
220
0.0
230
1.0
  2
SOLID
 70
1
 71
0
 91
1
 92
1
 93
1
 72
2
 10
-3.5000000000000009
 20
98.4999999999999574
 40
0.04
 50
0.0
 51
360.0
 73
1
 97
0
 75
0
 76
1
 98
0
  0
HATCH
  5
4A
  8
Punkty
 62
256
370
-1
  6
ByLayer
100
AcDbEntity
100
AcDbHatch
 10
0.0
 20
0.0
 30
0.0
210
0.0
220
0.0
230
1.0
  2
SOLID
 70
1
 71
0
 91
1
 92
1
 93
1
 72
2
 10
-3.5000000000000009
 20
98.1999999999999602
 40
0.04
 50
0.0
 51
360.0
 73
1
 97
0
 75
0
 76
1
 98
0
  0
HATCH
  5
4B
  8
Punkty
 62
256
370
-1
  6
ByLayer
100
AcDbEntity
100
AcDbHatch
 10
0.0
 20
0.0
 30
0.0
210
0.0
220
0.0
230
1.0
  2
SOLID
 70
1
 71
0
 91
1
 92
1
 93
1
 72
2
 10
-3.4000000000000008
 20
98.1999999999999602
 40
0.04
 50
0.0
 51
360.0
 73
1
 97
0
 75
0
 76
1
 98
0
  0
HATCH
  5
4C
  8
Punkty
 62
256
370
-1
  6
ByLayer
100
AcDbEntity
100
AcDbHatch
 10
0.0
 20
0.0
 30
0.0
210
0.0
220
0.0
230
1.0
  2
SOLID
 70
1
 71
0
 91
1
 92
1
 93
1
 72
2
 10
-2.7000000000000011
 20
97.3999999999999773
 40
0.04
 50
0.0
 51
360.0
 73
1
 97
0
 75
0
 76
1
 98
0
  0
HATCH
  5
4D
  8
Punkty
 62
256
370
-1
  6
ByLayer
100
AcDbEntity
100
AcDbHatch
 10
0.0
 20
0.0
 30
0.0
210
0.0
220
0.0
230
1.0
  2
SOLID
 70
1
 71
0
 91
1
 92
1
 93
1
 72
2
 10
-3.600000000000001
 20
97.3999999999999773
 40
0.04
 50
0.0
 51
360.0
 73
1
 97
0
 75
0
 76
1
 98
0
  0
HATCH
  5
4E
  8
Punkty
 62
256
370
-1
  6
ByLayer
100
AcDbEntity
100
AcDbHatch
 10
0.0
 20
0.0
 30
0.0
210
0.0
220
0.0
230
1.0
  2
SOLID
 70
1
 71
0
 91
1
 92
1
 93
1
 72
2
 10
-3.600000000000001
 20
97.5999999999999801
 40
0.04
 50
0.0
 51
360.0
 73
1
 97
0
 75
0
 76
1
 98
0
  0
HATCH
  5
4F
  8
Punkty
 62
256
370
-1
  6
ByLayer
100
AcDbEntity
100
AcDbHatch
 10
0.0
 20
0.0
 30
0.0
210
0.0
220
0.0
230
1.0
  2
SOLID
 70
1
 71
0
 91
1
 92
1
 93
1
 72
2
 10
-3.4000000000000012
 20
97.5999999999999801
 40
0.04
 50
0.0
 51
360.0
 73
1
 97
0
 75
0
 76
1
 98
0
  0
HATCH
  5
50
  8
Punkty
 62
256
370
-1
  6
ByLayer
100
AcDbEntity
100
AcDbHatch
 10
0.0
 20
0.0
 30
0.0
210
0.0
220
0.0
230
1.0
  2
SOLID
 70
1
 71
0
 91
1
 92
1
 93
1
 72
2
 10
-3.2000000000000006
 20
98.2000000000000028
 40
0.04
 50
0.0
 51
360.0
 73
1
 97
0
 75
0
 76
1
 98
0
  0
HATCH
  5
51
  8
Punkty
 62
256
370
-1
  6
ByLayer
100
AcDbEntity
100
AcDbHatch
 10
0.0
 20
0.0
 30
0.0
210
0.0
220
0.0
230
1.0
  2
SOLID
 70
1
 71
0
 91
1
 92
1
 93
1
 72
2
 10
-3.2000000000000006
 20
98.4000000000000057
 40
0.04
 50
0.0
 51
360.0
 73
1
 97
0
 75
0
 76
1
 98
0
  0
HATCH
  5
52
  8
Punkty
 62
256
370
-1
  6
ByLayer
100
AcDbEntity
100
AcDbHatch
 10
0.0
 20
0.0
 30
0.0
210
0.0
220
0.0
230
1.0
  2
SOLID
 70
1
 71
0
 91
1
 92
1
 93
1
 72
2
 10
-3.1000000000000005
 20
98.2999999999999972
 40
0.04
 50
0.0
 51
360.0
 73
1
 97
0
 75
0
 76
1
 98
0
  0
HATCH
  5
53
  8
Punkty
 62
256
370
-1
  6
ByLayer
100
AcDbEntity
100
AcDbHatch
 10
0.0
 20
0.0
 30
0.0
210
0.0
220
0.0
230
1.0
  2
SOLID
 70
1
 71
0
 91
1
 92
1
 93
1
 72
2
 10
-3.0000000000000004
 20
97.7000000000000028
 40
0.04
 50
0.0
 51
360.0
 73
1
 97
0
 75
0
 76
1
 98
0
  0
HATCH
  5
54
  8
Punkty
 62
256
370
-1
  6
ByLayer
100
AcDbEntity
100
AcDbHatch
 10
0.0
 20
0.0
 30
0.0
210
0.0
220
0.0
230
1.0
  2
SOLID
 70
1
 71
0
 91
1
 92
1
 93
1
 72
2
 10
-3.3000000000000007
 20
97.5999999999999943
 40
0.04
 50
0.0
 51
360.0
 73
1
 97
0
 75
0
 76
1
 98
0
  0
HATCH
  5
55
  8
Punkty
 62
256
370
-1
  6
ByLayer
100
AcDbEntity
100
AcDbHatch
 10
0.0
 20
0.0
 30
0.0
210
0.0
220
0.0
230
1.0
  2
SOLID
 70
1
 71
0
 91
1
 92
1
 93
1
 72
2
 10
-3.4000000000000008
 20
98.3000000000000114
 40
0.04
 50
0.0
 51
360.0
 73
1
 97
0
 75
0
 76
1
 98
0
  0
HATCH
  5
56
  8
Punkty
 62
256
370
-1
  6
ByLayer
100
AcDbEntity
100
AcDbHatch
 10
0.0
 20
0.0
 30
0.0
210
0.0
220
0.0
230
1.0
  2
SOLID
 70
1
 71
0
 91
1
 92
1
 93
1
 72
2
 10
-3.4000000000000008
 20
98.4000000000000057
 40
0.04
 50
0.0
 51
360.0
 73
1
 97
0
 75
0
 76
1
 98
0
  0
HATCH
  5
57
  8
Punkty
 62
256
370
-1
  6
ByLayer
100
AcDbEntity
100
AcDbHatch
 10
0.0
 20
0.0
 30
0.0
210
0.0
220
0.0
230
1.0
  2
SOLID
 70
1
 71
0
 91
1
 92
1
 93
1
 72
2
 10
-3.3000000000000007
 20
98.3000000000000114
 40
0.04
 50
0.0
 51
360.0
 73
1
 97
0
 75
0
 76
1
 98
0
  0
HATCH
  5
58
  8
Punkty
 62
256
370
-1
  6
ByLayer
100
AcDbEntity
100
AcDbHatch
 10
0.0
 20
0.0
 30
0.0
210
0.0
220
0.0
230
1.0
  2
SOLID
 70
1
 71
0
 91
1
 92
1
 93
1
 72
2
 10
-3.0000000000000004
 20
98.3000000000000114
 40
0.04
 50
0.0
 51
360.0
 73
1
 97
0
 75
0
 76
1
 98
0
  0
HATCH
  5
59
  8
Elementy
 62
256
370
-1
  6
ByLayer
100
AcDbEntity
100
AcDbHatch
 10
0.0
 20
0.0
 30
0.0
210
0.0
220
0.0
230
1.0
  2
ANSI31
 70
0
 71
0
 91
1
 92
1
 93
8
 72
1
 10
-3.3400000000000003
 20
98.3499999999999943
 11
-3.2600000000000002
 21
98.3499999999999943
 72
1
 10
-3.2600000000000002
 20
98.3499999999999943
 11
-3.2600000000000002
 21
97.5499999999999972
 72
1
 10
-3.2600000000000002
 20
97.5499999999999972
 11
-3.3400000000000003
 21
97.5499999999999972
 72
1
 10
-3.3400000000000003
 20
97.5499999999999972
 11
-3.3400000000000003
 21
98.3499999999999943
 72
1
 10
-3.04
 20
97.6499999999999915
 11
-2.96
 21
97.6499999999999915
 72
1
 10
-2.96
 20
97.6499999999999915
 11
-2.96
 21
98.3500000000000085
 72
1
 10
-2.96
 20
98.3500000000000085
 11
-3.04
 21
98.3500000000000085
 72
1
 10
-3.04
 20
98.3500000000000085
 11
-3.04
 21
97.6500000000000057
 97
0
 75
0
 76
1
 52
0.0
 41
0.01
 77
0
 78
1
 53
45.0
 43
0.0
 44
0.0
 45
-0.0883883476483184
 46
0.0883883476483185
 79
0
 98
0
  0
HATCH
  5
5A
  8
Elementy
 62
256
370
-1
  6
ByLayer
100
AcDbEntity
100
AcDbHatch
 10
0.0
 20
0.0
 30
0.0
210
0.0
220
0.0
230
1.0
  2
ANSI31
 70
0
 71
0
 91
1
 92
1
 93
4
 72
1
 10
-3.4399999999999999
 20
98.4500000000000028
 11
-3.4399999999999999
 21
98.25
 72
1
 10
-3.4399999999999999
 20
98.25
 11
-3.3599999999999999
 21
98.25
 72
1
 10
-3.3599999999999999
 20
98.25
 11
-3.3599999999999999
 21
98.4500000000000028
 72
1
 10
-3.3599999999999999
 20
98.4500000000000028
 11
-3.4399999999999999
 21
98.4500000000000028
 97
0
 75
0
 76
1
 52
0.0
 41
0.01
 77
0
 78
1
 53
45.0
 43
0.0
 44
0.0
 45
-0.0883883476483184
 46
0.0883883476483185
 79
0
 98
0
  0
HATCH
  5
5B
  8
Elementy
 62
256
370
-1
  6
ByLayer
100
AcDbEntity
100
AcDbHatch
 10
0.0
 20
0.0
 30
0.0
210
0.0
220
0.0
230
1.0
  2
ANSI31
 70
0
 71
0
 91
1
 92
1
 93
5
 72
1
 10
-3.9500000000000002
 20
97.8999999999999915
 11
-3.9500000000000002
 21
98.1499999999999915
 72
1
 10
-3.9500000000000002
 20
98.1499999999999915
 11
-3.8500000000000001
 21
98.1499999999999915
 72
1
 10
-3.8500000000000001
 20
98.1499999999999915
 11
-3.8500000000000001
 21
97.6499999999999915
 72
1
 10
-3.8500000000000001
 20
97.6499999999999915
 11
-3.9500000000000002
 21
97.6499999999999915
 72
1
 10
-3.9500000000000002
 20
97.6499999999999915
 11
-3.9500000000000002
 21
97.8999999999999915
 97
0
 75
0
 76
1
 52
0.0
 41
0.01
 77
0
 78
1
 53
45.0
 43
0.0
 44
0.0
 45
-0.0883883476483184
 46
0.0883883476483185
 79
0
 98
0
  0
HATCH
  5
5C
  8
Elementy
 62
256
370
-1
  6
ByLayer
100
AcDbEntity
100
AcDbHatch
 10
0.0
 20
0.0
 30
0.0
210
0.0
220
0.0
230
1.0
  2
ANSI31
 70
0
 71
0
 91
1
 92
1
 93
4
 72
1
 10
-2.4399999999999999
 20
98.1500000000000057
 11
-2.4399999999999999
 21
97.6500000000000057
 72
1
 10
-2.4399999999999999
 20
97.6500000000000057
 11
-2.0999999999999996
 21
97.6500000000000057
 72
1
 10
-2.0999999999999996
 20
97.6500000000000057
 11
-2.0999999999999996
 21
98.1500000000000057
 72
1
 10
-2.0999999999999996
 20
98.1500000000000057
 11
-2.4399999999999999
 21
98.1500000000000057
 97
0
 75
0
 76
1
 52
0.0
 41
0.01
 77
0
 78
1
 53
45.0
 43
0.0
 44
0.0
 45
-0.0883883476483184
 46
0.0883883476483185
 79
0
 98
0
  0
HATCH
  5
5D
  8
Punkty
 62
256
370
-1
  6
ByLayer
100
AcDbEntity
100
AcDbHatch
 10
0.0
 20
0.0
 30
0.0
210
0.0
220
0.0
230
1.0
  2
SOLID
 70
1
 71
0
 91
1
 92
1
 93
1
 72
2
 10
-2.4000000000000004
 20
98.0999999999999943
 40
0.04
 50
0.0
 51
360.0
 73
1
 97
0
 75
0
 76
1
 98
0
  0
HATCH
  5
5E
  8
Punkty
 62
256
370
-1
  6
ByLayer
100
AcDbEntity
100
AcDbHatch
 10
0.0
 20
0.0
 30
0.0
210
0.0
220
0.0
230
1.0
  2
SOLID
 70
1
 71
0
 91
1
 92
1
 93
1
 72
2
 10
-2.4000000000000004
 20
98.0
 40
0.04
 50
0.0
 51
360.0
 73
1
 97
0
 75
0
 76
1
 98
0
  0
HATCH
  5
5F
  8
Punkty
 62
256
370
-1
  6
ByLayer
100
AcDbEntity
100
AcDbHatch
 10
0.0
 20
0.0
 30
0.0
210
0.0
220
0.0
230
1.0
  2
SOLID
 70
1
 71
0
 91
1
 92
1
 93
1
 72
2
 10
-2.4000000000000004
 20
97.9000000000000057
 40
0.04
 50
0.0
 51
360.0
 73
1
 97
0
 75
0
 76
1
 98
0
  0
HATCH
  5
60
  8
Punkty
 62
256
370
-1
  6
ByLayer
100
AcDbEntity
100
AcDbHatch
 10
0.0
 20
0.0
 30
0.0
210
0.0
220
0.0
230
1.0
  2
SOLID
 70
1
 71
0
 91
1
 92
1
 93
1
 72
2
 10
-2.4000000000000004
 20
97.8000000000000114
 40
0.04
 50
0.0
 51
360.0
 73
1
 97
0
 75
0
 76
1
 98
0
  0
HATCH
  5
61
  8
Punkty
 62
256
370
-1
  6
ByLayer
100
AcDbEntity
100
AcDbHatch
 10
0.0
 20
0.0
 30
0.0
210
0.0
220
0.0
230
1.0
  2
SOLID
 70
1
 71
0
 91
1
 92
1
 93
1
 72
2
 10
-2.4000000000000004
 20
97.7000000000000171
 40
0.04
 50
0.0
 51
360.0
 73
1
 97
0
 75
0
 76
1
 98
0
  0
HATCH
  5
62
  8
Punkty
 62
256
370
-1
  6
ByLayer
100
AcDbEntity
100
AcDbHatch
 10
0.0
 20
0.0
 30
0.0
210
0.0
220
0.0
230
1.0
  2
SOLID
 70
1
 71
0
 91
1
 92
1
 93
1
 72
2
 10
-3.8999999999999999
 20
97.7000000000000313
 40
0.04
 50
0.0
 51
360.0
 73
1
 97
0
 75
0
 76
1
 98
0
  0
HATCH
  5
63
  8
Punkty
 62
256
370
-1
  6
ByLayer
100
AcDbEntity
100
AcDbHatch
 10
0.0
 20
0.0
 30
0.0
210
0.0
220
0.0
230
1.0
  2
SOLID
 70
1
 71
0
 91
1
 92
1
 93
1
 72
2
 10
-3.8999999999999999
 20
97.8000000000000256
 40
0.04
 50
0.0
 51
360.0
 73
1
 97
0
 75
0
 76
1
 98
0
  0
HATCH
  5
64
  8
Punkty
 62
256
370
-1
  6
ByLayer
100
AcDbEntity
100
AcDbHatch
 10
0.0
 20
0.0
 30
0.0
210
0.0
220
0.0
230
1.0
  2
SOLID
 70
1
 71
0
 91
1
 92
1
 93
1
 72
2
 10
-3.8999999999999999
 20
97.9000000000000199
 40
0.04
 50
0.0
 51
360.0
 73
1
 97
0
 75
0
 76
1
 98
0
  0
HATCH
  5
65
  8
Punkty
 62
256
370
-1
  6
ByLayer
100
AcDbEntity
100
AcDbHatch
 10
0.0
 20
0.0
 30
0.0
210
0.0
220
0.0
230
1.0
  2
SOLID
 70
1
 71
0
 91
1
 92
1
 93
1
 72
2
 10
-3.8999999999999999
 20
98.0000000000000142
 40
0.04
 50
0.0
 51
360.0
 73
1
 97
0
 75
0
 76
1
 98
0
  0
HATCH
  5
66
  8
Punkty
 62
256
370
-1
  6
ByLayer
100
AcDbEntity
100
AcDbHatch
 10
0.0
 20
0.0
 30
0.0
210
0.0
220
0.0
230
1.0
  2
SOLID
 70
1
 71
0
 91
1
 92
1
 93
1
 72
2
 10
-3.8999999999999999
 20
98.1000000000000085
 40
0.04
 50
0.0
 51
360.0
 73
1
 97
0
 75
0
 76
1
 98
0
  0
HATCH
  5
67
  8
Punkty
 62
256
370
-1
  6
ByLayer
100
AcDbEntity
100
AcDbHatch
 10
0.0
 20
0.0
 30
0.0
210
0.0
220
0.0
230
1.0
  2
SOLID
 70
1
 71
0
 91
1
 92
1
 93
1
 72
2
 10
-2.6000000000000005
 20
97.7000000000000171
 40
0.04
 50
0.0
 51
360.0
 73
1
 97
0
 75
0
 76
1
 98
0
  0
HATCH
  5
68
  8
Punkty
 62
256
370
-1
  6
ByLayer
100
AcDbEntity
100
AcDbHatch
 10
0.0
 20
0.0
 30
0.0
210
0.0
220
0.0
230
1.0
  2
SOLID
 70
1
 71
0
 91
1
 92
1
 93
1
 72
2
 10
-3.7000000000000006
 20
97.7000000000000171
 40
0.04
 50
0.0
 51
360.0
 73
1
 97
0
 75
0
 76
1
 98
0
  0
HATCH
  5
69
  8
Punkty
 62
256
370
-1
  6
ByLayer
100
AcDbEntity
100
AcDbHatch
 10
0.0
 20
0.0
 30
0.0
210
0.0
220
0.0
230
1.0
  2
SOLID
 70
1
 71
0
 91
1
 92
1
 93
1
 72
2
 10
-3.4000000000000008
 20
97.7000000000000171
 40
0.04
 50
0.0
 51
360.0
 73
1
 97
0
 75
0
 76
1
 98
0
  0
HATCH
  5
6A
  8
Punkty
 62
256
370
-1
  6
ByLayer
100
AcDbEntity
100
AcDbHatch
 10
0.0
 20
0.0
 30
0.0
210
0.0
220
0.0
230
1.0
  2
SOLID
 70
1
 71
0
 91
1
 92
1
 93
1
 72
2
 10
-3.2000000000000006
 20
97.7000000000000171
 40
0.04
 50
0.0
 51
360.0
 73
1
 97
0
 75
0
 76
1
 98
0
  0
HATCH
  5
6B
  8
Punkty
 62
256
370
-1
  6
ByLayer
100
AcDbEntity
100
AcDbHatch
 10
0.0
 20
0.0
 30
0.0
210
0.0
220
0.0
230
1.0
  2
SOLID
 70
1
 71
0
 91
1
 92
1
 93
1
 72
2
 10
-3.1000000000000005
 20
97.7000000000000171
 40
0.04
 50
0.0
 51
360.0
 73
1
 97
0
 75
0
 76
1
 98
0
  0
HATCH
  5
6C
  8
Punkty
 62
256
370
-1
  6
ByLayer
100
AcDbEntity
100
AcDbHatch
 10
0.0
 20
0.0
 30
0.0
210
0.0
220
0.0
230
1.0
  2
SOLID
 70
1
 71
0
 91
1
 92
1
 93
1
 72
2
 10
-2.9000000000000008
 20
97.7000000000000171
 40
0.04
 50
0.0
 51
360.0
 73
1
 97
0
 75
0
 76
1
 98
0
  0
HATCH
  5
6D
  8
Punkty
 62
256
370
-1
  6
ByLayer
100
AcDbEntity
100
AcDbHatch
 10
0.0
 20
0.0
 30
0.0
210
0.0
220
0.0
230
1.0
  2
SOLID
 70
1
 71
0
 91
1
 92
1
 93
1
 72
2
 10
-3.7000000000000011
 20
98.1000000000000085
 40
0.04
 50
0.0
 51
360.0
 73
1
 97
0
 75
0
 76
1
 98
0
  0
HATCH
  5
6E
  8
Punkty
 62
256
370
-1
  6
ByLayer
100
AcDbEntity
100
AcDbHatch
 10
0.0
 20
0.0
 30
0.0
210
0.0
220
0.0
230
1.0
  2
SOLID
 70
1
 71
0
 91
1
 92
1
 93
1
 72
2
 10
-3.600000000000001
 20
98.1000000000000085
 40
0.04
 50
0.0
 51
360.0
 73
1
 97
0
 75
0
 76
1
 98
0
  0
HATCH
  5
6F
  8
Elementy
 62
256
370
-1
  6
ByLayer
100
AcDbEntity
100
AcDbHatch
 10
0.0
 20
0.0
 30
0.0
210
0.0
220
0.0
230
1.0
  2
ANSI31
 70
0
 71
0
 91
1
 92
1
 93
4
 72
1
 10
-3.7500000000000009
 20
98.1500000000000057
 11
-3.5500000000000012
 21
98.1500000000000057
 72
1
 10
-3.5500000000000012
 20
98.1500000000000057
 11
-3.5500000000000012
 21
98.0500000000000114
 72
1
 10
-3.5500000000000012
 20
98.0500000000000114
 11
-3.7500000000000009
 21
98.0500000000000114
 72
1
 10
-3.7500000000000009
 20
98.0500000000000114
 11
-3.7500000000000009
 21
98.1500000000000057
 97
0
 75
0
 76
1
 52
0.0
 41
0.01
 77
0
 78
1
 53
45.0
 43
0.0
 44
0.0
 45
-0.0883883476483184
 46
0.0883883476483185
 79
0
 98
0
  0
HATCH
  5
70
  8
Punkty
 62
256
370
-1
  6
ByLayer
100
AcDbEntity
100
AcDbHatch
 10
0.0
 20
0.0
 30
0.0
210
0.0
220
0.0
230
1.0
  2
SOLID
 70
1
 71
0
 91
1
 92
1
 93
1
 72
2
 10
-2.7000000000000011
 20
98.1000000000000085
 40
0.04
 50
0.0
 51
360.0
 73
1
 97
0
 75
0
 76
1
 98
0
  0
HATCH
  5
71
  8
Punkty
 62
256
370
-1
  6
ByLayer
100
AcDbEntity
100
AcDbHatch
 10
0.0
 20
0.0
 30
0.0
210
0.0
220
0.0
230
1.0
  2
SOLID
 70
1
 71
0
 91
1
 92
1
 93
1
 72
2
 10
-2.600000000000001
 20
98.1000000000000085
 40
0.04
 50
0.0
 51
360.0
 73
1
 97
0
 75
0
 76
1
 98
0
  0
HATCH
  5
72
  8
Punkty
 62
256
370
-1
  6
ByLayer
100
AcDbEntity
100
AcDbHatch
 10
0.0
 20
0.0
 30
0.0
210
0.0
220
0.0
230
1.0
  2
SOLID
 70
1
 71
0
 91
1
 92
1
 93
1
 72
2
 10
-3.7000000000000011
 20
98.0
 40
0.04
 50
0.0
 51
360.0
 73
1
 97
0
 75
0
 76
1
 98
0
  0
HATCH
  5
73
  8
Punkty
 62
256
370
-1
  6
ByLayer
100
AcDbEntity
100
AcDbHatch
 10
0.0
 20
0.0
 30
0.0
210
0.0
220
0.0
230
1.0
  2
SOLID
 70
1
 71
0
 91
1
 92
1
 93
1
 72
2
 10
-3.5
 20
98.0
 40
0.04
 50
0.0
 51
360.0
 73
1
 97
0
 75
0
 76
1
 98
0
  0
HATCH
  5
74
  8
Punkty
 62
256
370
-1
  6
ByLayer
100
AcDbEntity
100
AcDbHatch
 10
0.0
 20
0.0
 30
0.0
210
0.0
220
0.0
230
1.0
  2
SOLID
 70
1
 71
0
 91
1
 92
1
 93
1
 72
2
 10
-2.8000000000000007
 20
98.0
 40
0.04
 50
0.0
 51
360.0
 73
1
 97
0
 75
0
 76
1
 98
0
  0
HATCH
  5
75
  8
Punkty
 62
256
370
-1
  6
ByLayer
100
AcDbEntity
100
AcDbHatch
 10
0.0
 20
0.0
 30
0.0
210
0.0
220
0.0
230
1.0
  2
SOLID
 70
1
 71
0
 91
1
 92
1
 93
1
 72
2
 10
-2.6000000000000005
 20
98.0
 40
0.04
 50
0.0
 51
360.0
 73
1
 97
0
 75
0
 76
1
 98
0
  0
HATCH
  5
76
  8
Elementy
 62
256
370
-1
  6
ByLayer
100
AcDbEntity
100
AcDbHatch
 10
0.0
 20
0.0
 30
0.0
210
0.0
220
0.0
230
1.0
  2
ANSI31
 70
0
 71
0
 91
1
 92
1
 93
2
 72
2
 10
-3.1699999999999999
 20
98.2999999999999972
 40
0.114017542509914
 50
243.9899362224252002
 51
116.0100637775748424
 73
1
 72
1
 10
-3.2199999999999998
 20
98.402469507659589
 11
-3.2199999999999998
 21
98.1975304923404053
 97
0
 75
0
 76
1
 52
0.0
 41
0.01
 77
0
 78
1
 53
45.0
 43
0.0
 44
0.0
 45
-0.0883883476483184
 46
0.0883883476483185
 79
0
 98
0
  0
HATCH
  5
77
  8
Punkty
 62
256
370
-1
  6
ByLayer
100
AcDbEntity
100
AcDbHatch
 10
0.0
 20
0.0
 30
0.0
210
0.0
220
0.0
230
1.0
  2
SOLID
 70
1
 71
0
 91
1
 92
1
 93
1
 72
2
 10
-2.9000000000000008
 20
97.8000000000000256
 40
0.04
 50
0.0
 51
360.0
 73
1
 97
0
 75
0
 76
1
 98
0
  0
HATCH
  5
78
  8
Punkty
 62
256
370
-1
  6
ByLayer
100
AcDbEntity
100
AcDbHatch
 10
0.0
 20
0.0
 30
0.0
210
0.0
220
0.0
230
1.0
  2
SOLID
 70
1
 71
0
 91
1
 92
1
 93
1
 72
2
 10
-3.1000000000000005
 20
97.8000000000000256
 40
0.04
 50
0.0
 51
360.0
 73
1
 97
0
 75
0
 76
1
 98
0
  0
HATCH
  5
79
  8
Punkty
 62
256
370
-1
  6
ByLayer
100
AcDbEntity
100
AcDbHatch
 10
0.0
 20
0.0
 30
0.0
210
0.0
220
0.0
230
1.0
  2
SOLID
 70
1
 71
0
 91
1
 92
1
 93
1
 72
2
 10
-3.2000000000000006
 20
97.8000000000000256
 40
0.04
 50
0.0
 51
360.0
 73
1
 97
0
 75
0
 76
1
 98
0
  0
HATCH
  5
7A
  8
Punkty
 62
256
370
-1
  6
ByLayer
100
AcDbEntity
100
AcDbHatch
 10
0.0
 20
0.0
 30
0.0
210
0.0
220
0.0
230
1.0
  2
SOLID
 70
1
 71
0
 91
1
 92
1
 93
1
 72
2
 10
-3.4000000000000008
 20
97.8000000000000256
 40
0.04
 50
0.0
 51
360.0
 73
1
 97
0
 75
0
 76
1
 98
0
  0
HATCH
  5
7B
  8
Punkty
 62
256
370
-1
  6
ByLayer
100
AcDbEntity
100
AcDbHatch
 10
0.0
 20
0.0
 30
0.0
210
0.0
220
0.0
230
1.0
  2
SOLID
 70
1
 71
0
 91
1
 92
1
 93
1
 72
2
 10
-3.7000000000000006
 20
97.8000000000000256
 40
0.04
 50
0.0
 51
360.0
 73
1
 97
0
 75
0
 76
1
 98
0
  0
HATCH
  5
7C
  8
Punkty
 62
256
370
-1
  6
ByLayer
100
AcDbEntity
100
AcDbHatch
 10
0.0
 20
0.0
 30
0.0
210
0.0
220
0.0
230
1.0
  2
SOLID
 70
1
 71
0
 91
1
 92
1
 93
1
 72
2
 10
-2.6000000000000005
 20
97.8000000000000256
 40
0.04
 50
0.0
 51
360.0
 73
1
 97
0
 75
0
 76
1
 98
0
  0
HATCH
  5
7D
  8
Punkty
 62
256
370
-1
  6
ByLayer
100
AcDbEntity
100
AcDbHatch
 10
0.0
 20
0.0
 30
0.0
210
0.0
220
0.0
230
1.0
  2
SOLID
 70
1
 71
0
 91
1
 92
1
 93
1
 72
2
 10
-2.6000000000000005
 20
97.9000000000000341
 40
0.04
 50
0.0
 51
360.0
 73
1
 97
0
 75
0
 76
1
 98
0
  0
HATCH
  5
7E
  8
Punkty
 62
256
370
-1
  6
ByLayer
100
AcDbEntity
100
AcDbHatch
 10
0.0
 20
0.0
 30
0.0
210
0.0
220
0.0
230
1.0
  2
SOLID
 70
1
 71
0
 91
1
 92
1
 93
1
 72
2
 10
-3.7000000000000006
 20
97.9000000000000341
 40
0.04
 50
0.0
 51
360.0
 73
1
 97
0
 75
0
 76
1
 98
0
  0
HATCH
  5
7F
  8
Punkty
 62
256
370
-1
  6
ByLayer
100
AcDbEntity
100
AcDbHatch
 10
0.0
 20
0.0
 30
0.0
210
0.0
220
0.0
230
1.0
  2
SOLID
 70
1
 71
0
 91
1
 92
1
 93
1
 72
2
 10
-3.4000000000000008
 20
97.9000000000000341
 40
0.04
 50
0.0
 51
360.0
 73
1
 97
0
 75
0
 76
1
 98
0
  0
HATCH
  5
80
  8
Punkty
 62
256
370
-1
  6
ByLayer
100
AcDbEntity
100
AcDbHatch
 10
0.0
 20
0.0
 30
0.0
210
0.0
220
0.0
230
1.0
  2
SOLID
 70
1
 71
0
 91
1
 92
1
 93
1
 72
2
 10
-3.2000000000000006
 20
97.9000000000000341
 40
0.04
 50
0.0
 51
360.0
 73
1
 97
0
 75
0
 76
1
 98
0
  0
HATCH
  5
81
  8
Punkty
 62
256
370
-1
  6
ByLayer
100
AcDbEntity
100
AcDbHatch
 10
0.0
 20
0.0
 30
0.0
210
0.0
220
0.0
230
1.0
  2
SOLID
 70
1
 71
0
 91
1
 92
1
 93
1
 72
2
 10
-3.1000000000000005
 20
97.9000000000000341
 40
0.04
 50
0.0
 51
360.0
 73
1
 97
0
 75
0
 76
1
 98
0
  0
HATCH
  5
82
  8
Punkty
 62
256
370
-1
  6
ByLayer
100
AcDbEntity
100
AcDbHatch
 10
0.0
 20
0.0
 30
0.0
210
0.0
220
0.0
230
1.0
  2
SOLID
 70
1
 71
0
 91
1
 92
1
 93
1
 72
2
 10
-2.9000000000000008
 20
97.9000000000000341
 40
0.04
 50
0.0
 51
360.0
 73
1
 97
0
 75
0
 76
1
 98
0
  0
HATCH
  5
83
  8
kreskowanie
 62
256
370
-1
  6
ByLayer
100
AcDbEntity
100
AcDbHatch
 10
0.0
 20
0.0
 30
0.0
210
0.0
220
0.0
230
1.0
  2
SOLID
 70
1
 71
0
 91
1
 92
1
 93
470
 72
2
 10
-3.1000000000000001
 20
98.5
 40
0.02
 50
0.0
 51
360.0
 73
1
 72
2
 10
-3.0
 20
98.5
 40
0.02
 50
0.0
 51
360.0
 73
1
 72
2
 10
-2.8999999999999999
 20
98.5
 40
0.02
 50
0.0
 51
360.0
 73
1
 72
2
 10
-3.1000000000000001
 20
98.5
 40
0.0300000000000002
 50
90.0
 51
270.0
 73
1
 72
1
 10
-3.1000000000000001
 20
98.4699999999999989
 11
-2.9000000000000004
 21
98.4699999999999989
 72
2
 10
-2.9000000000000004
 20
98.5
 40
0.0300000000000002
 50
270.0
 51
89.9999999999999858
 73
1
 72
1
 10
-2.9000000000000004
 20
98.5300000000000011
 11
-3.1000000000000001
 21
98.5300000000000011
 72
2
 10
-3.1000000000000001
 20
98.3999999999999915
 40
0.02
 50
0.0
 51
360.0
 73
1
 72
2
 10
-3.0
 20
98.3999999999999915
 40
0.02
 50
0.0
 51
360.0
 73
1
 72
2
 10
-2.8999999999999999
 20
98.3999999999999915
 40
0.02
 50
0.0
 51
360.0
 73
1
 72
2
 10
-3.1000000000000001
 20
98.3999999999999915
 40
0.0300000000000002
 50
90.0
 51
270.0
 73
1
 72
1
 10
-3.1000000000000001
 20
98.3699999999999903
 11
-2.9000000000000004
 21
98.3699999999999903
 72
2
 10
-2.9000000000000004
 20
98.3999999999999915
 40
0.0300000000000002
 50
270.0
 51
89.9999999999999858
 73
1
 72
1
 10
-2.9000000000000004
 20
98.4299999999999926
 11
-3.1000000000000001
 21
98.4299999999999926
 72
2
 10
-3.1000000000000001
 20
98.2999999999999829
 40
0.02
 50
0.0
 51
360.0
 73
1
 72
2
 10
-3.0
 20
98.2999999999999829
 40
0.02
 50
0.0
 51
360.0
 73
1
 72
2
 10
-3.0
 20
98.2999999999999972
 40
0.02
 50
0.0
 51
360.0
 73
1
 72
2
 10
-2.8999999999999999
 20
98.2999999999999829
 40
0.02
 50
0.0
 51
360.0
 73
1
 72
2
 10
-3.1000000000000001
 20
98.2999999999999829
 40
0.0300000000000002
 50
90.0
 51
270.0
 73
1
 72
1
 10
-3.1000000000000001
 20
98.2699999999999818
 11
-2.9000000000000004
 21
98.2699999999999818
 72
2
 10
-2.9000000000000004
 20
98.2999999999999829
 40
0.0300000000000002
 50
270.0
 51
89.9999999999999858
 73
1
 72
1
 10
-2.9000000000000004
 20
98.3299999999999841
 11
-3.1000000000000001
 21
98.3299999999999841
 72
2
 10
-3.1000000000000001
 20
98.1999999999999744
 40
0.02
 50
0.0
 51
360.0
 73
1
 72
2
 10
-3.0
 20
98.1999999999999744
 40
0.02
 50
0.0
 51
360.0
 73
1
 72
2
 10
-2.8999999999999999
 20
98.1999999999999744
 40
0.02
 50
0.0
 51
360.0
 73
1
 72
2
 10
-3.1000000000000001
 20
98.1999999999999744
 40
0.0300000000000002
 50
90.0
 51
270.0
 73
1
 72
1
 10
-3.1000000000000001
 20
98.1699999999999733
 11
-2.9000000000000004
 21
98.1699999999999733
 72
2
 10
-2.9000000000000004
 20
98.1999999999999744
 40
0.0300000000000002
 50
270.0
 51
89.9999999999999858
 73
1
 72
1
 10
-2.9000000000000004
 20
98.2299999999999756
 11
-3.1000000000000001
 21
98.2299999999999756
 72
2
 10
-3.1000000000000001
 20
98.0999999999999659
 40
0.02
 50
0.0
 51
360.0
 73
1
 72
2
 10
-3.0
 20
98.0999999999999659
 40
0.02
 50
0.0
 51
360.0
 73
1
 72
2
 10
-2.8999999999999999
 20
98.0999999999999659
 40
0.02
 50
0.0
 51
360.0
 73
1
 72
2
 10
-3.1000000000000001
 20
98.0999999999999659
 40
0.0300000000000002
 50
90.0
 51
270.0
 73
1
 72
1
 10
-3.1000000000000001
 20
98.0699999999999648
 11
-2.9000000000000004
 21
98.0699999999999648
 72
2
 10
-2.9000000000000004
 20
98.0999999999999659
 40
0.0300000000000002
 50
270.0
 51
89.9999999999999858
 73
1
 72
1
 10
-2.9000000000000004
 20
98.129999999999967
 11
-3.1000000000000001
 21
98.129999999999967
 72
2
 10
-3.1000000000000001
 20
97.9999999999999574
 40
0.02
 50
0.0
 51
360.0
 73
1
 72
2
 10
-3.0
 20
97.9999999999999574
 40
0.02
 50
0.0
 51
360.0
 73
1
 72
2
 10
-2.8999999999999999
 20
97.9999999999999574
 40
0.02
 50
0.0
 51
360.0
 73
1
 72
2
 10
-3.1000000000000001
 20
97.9999999999999574
 40
0.0300000000000002
 50
90.0
 51
270.0
 73
1
 72
1
 10
-3.1000000000000001
 20
97.9699999999999562
 11
-2.9000000000000004
 21
97.9699999999999562
 72
2
 10
-2.9000000000000004
 20
97.9999999999999574
 40
0.0300000000000002
 50
270.0
 51
89.9999999999999858
 73
1
 72
1
 10
-2.9000000000000004
 20
98.0299999999999585
 11
-3.1000000000000001
 21
98.0299999999999585
 72
2
 10
-3.1000000000000001
 20
97.8999999999999488
 40
0.02
 50
0.0
 51
360.0
 73
1
 72
2
 10
-3.0
 20
97.8999999999999488
 40
0.02
 50
0.0
 51
360.0
 73
1
 72
2
 10
-2.8999999999999999
 20
97.8999999999999488
 40
0.02
 50
0.0
 51
360.0
 73
1
 72
2
 10
-3.1000000000000001
 20
97.8999999999999488
 40
0.0300000000000002
 50
90.0
 51
270.0
 73
1
 72
1
 10
-3.1000000000000001
 20
97.8699999999999477
 11
-2.9000000000000004
 21
97.8699999999999477
 72
2
 10
-2.9000000000000004
 20
97.8999999999999488
 40
0.0300000000000002
 50
270.0
 51
89.9999999999999858
 73
1
 72
1
 10
-2.9000000000000004
 20
97.92999999999995
 11
-3.1000000000000001
 21
97.92999999999995
 72
2
 10
-3.1000000000000001
 20
97.7999999999999403
 40
0.02
 50
0.0
 51
360.0
 73
1
 72
2
 10
-3.0
 20
97.7999999999999403
 40
0.02
 50
0.0
 51
360.0
 73
1
 72
2
 10
-2.8999999999999999
 20
97.7999999999999403
 40
0.02
 50
0.0
 51
360.0
 73
1
 72
2
 10
-3.1000000000000001
 20
97.7999999999999403
 40
0.0300000000000002
 50
90.0
 51
270.0
 73
1
 72
1
 10
-3.1000000000000001
 20
97.7699999999999392
 11
-2.9000000000000004
 21
97.7699999999999392
 72
2
 10
-2.9000000000000004
 20
97.7999999999999403
 40
0.0300000000000002
 50
270.0
 51
89.9999999999999858
 73
1
 72
1
 10
-2.9000000000000004
 20
97.8299999999999415
 11
-3.1000000000000001
 21
97.8299999999999415
 72
2
 10
-3.1000000000000001
 20
97.6999999999999318
 40
0.02
 50
0.0
 51
360.0
 73
1
 72
2
 10
-3.0
 20
97.6999999999999318
 40
0.02
 50
0.0
 51
360.0
 73
1
 72
2
 10
-2.8999999999999999
 20
97.6999999999999318
 40
0.02
 50
0.0
 51
360.0
 73
1
 72
2
 10
-3.1000000000000001
 20
97.6999999999999318
 40
0.0300000000000002
 50
90.0
 51
270.0
 73
1
 72
1
 10
-3.1000000000000001
 20
97.6699999999999307
 11
-2.9000000000000004
 21
97.6699999999999307
 72
2
 10
-2.9000000000000004
 20
97.6999999999999318
 40
0.0300000000000002
 50
270.0
 51
89.9999999999999858
 73
1
 72
1
 10
-2.9000000000000004
 20
97.7299999999999329
 11
-3.1000000000000001
 21
97.7299999999999329
 72
2
 10
-3.1000000000000001
 20
97.5999999999999233
 40
0.02
 50
0.0
 51
360.0
 73
1
 72
2
 10
-3.0
 20
97.5999999999999233
 40
0.02
 50
0.0
 51
360.0
 73
1
 72
2
 10
-2.8999999999999999
 20
97.5999999999999233
 40
0.02
 50
0.0
 51
360.0
 73
1
 72
2
 10
-3.1000000000000001
 20
97.5999999999999233
 40
0.0300000000000002
 50
90.0
 51
270.0
 73
1
 72
1
 10
-3.1000000000000001
 20
97.5699999999999221
 11
-2.9000000000000004
 21
97.5699999999999221
 72
2
 10
-2.9000000000000004
 20
97.5999999999999233
 40
0.0300000000000002
 50
270.0
 51
89.9999999999999858
 73
1
 72
1
 10
-2.9000000000000004
 20
97.6299999999999244
 11
-3.1000000000000001
 21
97.6299999999999244
 72
2
 10
-3.1000000000000001
 20
97.4999999999999147
 40
0.02
 50
0.0
 51
360.0
 73
1
 72
2
 10
-3.0
 20
97.4999999999999147
 40
0.02
 50
0.0
 51
360.0
 73
1
 72
2
 10
-2.8999999999999999
 20
97.4999999999999147
 40
0.02
 50
0.0
 51
360.0
 73
1
 72
2
 10
-3.1000000000000001
 20
97.4999999999999147
 40
0.0300000000000002
 50
90.0
 51
270.0
 73
1
 72
1
 10
-3.1000000000000001
 20
97.4699999999999136
 11
-2.9000000000000004
 21
97.4699999999999136
 72
2
 10
-2.9000000000000004
 20
97.4999999999999147
 40
0.0300000000000002
 50
270.0
 51
89.9999999999999858
 73
1
 72
1
 10
-2.9000000000000004
 20
97.5299999999999159
 11
-3.1000000000000001
 21
97.5299999999999159
 72
2
 10
-2.7999999999999998
 20
98.5
 40
0.02
 50
0.0
 51
360.0
 73
1
 72
2
 10
-2.7999999999999998
 20
98.3999999999999915
 40
0.02
 50
0.0
 51
360.0
 73
1
 72
2
 10
-2.7999999999999998
 20
98.2999999999999829
 40
0.02
 50
0.0
 51
360.0
 73
1
 72
2
 10
-2.7999999999999998
 20
98.1999999999999744
 40
0.02
 50
0.0
 51
360.0
 73
1
 72
2
 10
-2.7999999999999998
 20
98.0999999999999659
 40
0.02
 50
0.0
 51
360.0
 73
1
 72
2
 10
-2.7999999999999998
 20
97.9999999999999574
 40
0.02
 50
0.0
 51
360.0
 73
1
 72
2
 10
-2.7999999999999998
 20
97.8999999999999488
 40
0.02
 50
0.0
 51
360.0
 73
1
 72
2
 10
-2.7999999999999998
 20
97.7999999999999403
 40
0.02
 50
0.0
 51
360.0
 73
1
 72
2
 10
-2.7999999999999998
 20
97.6999999999999318
 40
0.02
 50
0.0
 51
360.0
 73
1
 72
2
 10
-2.7999999999999998
 20
97.5999999999999233
 40
0.02
 50
0.0
 51
360.0
 73
1
 72
2
 10
-2.7999999999999998
 20
97.4999999999999147
 40
0.02
 50
0.0
 51
360.0
 73
1
 72
2
 10
-2.6999999999999997
 20
98.5
 40
0.02
 50
0.0
 51
360.0
 73
1
 72
2
 10
-2.6999999999999997
 20
98.3999999999999915
 40
0.02
 50
0.0
 51
360.0
 73
1
 72
2
 10
-2.6999999999999997
 20
98.2999999999999829
 40
0.02
 50
0.0
 51
360.0
 73
1
 72
2
 10
-2.6999999999999997
 20
98.1999999999999744
 40
0.02
 50
0.0
 51
360.0
 73
1
 72
2
 10
-2.6999999999999997
 20
97.9999999999999574
 40
0.02
 50
0.0
 51
360.0
 73
1
 72
2
 10
-2.6999999999999997
 20
97.8999999999999488
 40
0.02
 50
0.0
 51
360.0
 73
1
 72
2
 10
-2.6999999999999997
 20
97.7999999999999403
 40
0.02
 50
0.0
 51
360.0
 73
1
 72
2
 10
-2.6999999999999997
 20
97.6999999999999318
 40
0.02
 50
0.0
 51
360.0
 73
1
 72
2
 10
-2.6999999999999997
 20
97.5999999999999233
 40
0.02
 50
0.0
 51
360.0
 73
1
 72
2
 10
-2.6999999999999997
 20
97.4999999999999147
 40
0.02
 50
0.0
 51
360.0
 73
1
 72
2
 10
-2.6999999999999997
 20
98.5
 40
0.0300000000000002
 50
360.0
 51
180.0
 73
1
 72
1
 10
-2.73
 20
98.5
 11
-2.73
 21
97.3999999999999915
 72
2
 10
-2.7000000000000002
 20
97.3999999999999915
 40
0.0300000000000002
 50
180.0
 51
0.0
 73
1
 72
1
 10
-2.6699999999999995
 20
97.3999999999999915
 11
-2.6699999999999995
 21
98.5
 72
2
 10
-2.6000000000000001
 20
98.5
 40
0.02
 50
0.0
 51
360.0
 73
1
 72
2
 10
-2.5
 20
98.5
 40
0.02
 50
0.0
 51
360.0
 73
1
 72
2
 10
-2.6000000000000001
 20
98.5
 40
0.0300000000000002
 50
90.0
 51
270.0
 73
1
 72
1
 10
-2.6000000000000001
 20
98.4699999999999989
 11
-2.5000000000000004
 21
98.4699999999999989
 72
2
 10
-2.5000000000000004
 20
98.5
 40
0.0300000000000002
 50
270.0
 51
89.9999999999999858
 73
1
 72
1
 10
-2.5000000000000004
 20
98.5300000000000011
 11
-2.6000000000000001
 21
98.5300000000000011
 72
2
 10
-2.6000000000000001
 20
98.3999999999999915
 40
0.02
 50
0.0
 51
360.0
 73
1
 72
2
 10
-2.5
 20
98.3999999999999915
 40
0.02
 50
0.0
 51
360.0
 73
1
 72
2
 10
-2.3999999999999999
 20
98.3999999999999915
 40
0.02
 50
0.0
 51
360.0
 73
1
 72
2
 10
-2.6000000000000001
 20
98.3999999999999915
 40
0.0300000000000002
 50
90.0
 51
270.0
 73
1
 72
1
 10
-2.6000000000000001
 20
98.3699999999999903
 11
-2.4000000000000004
 21
98.3699999999999903
 72
2
 10
-2.4000000000000004
 20
98.3999999999999915
 40
0.0300000000000002
 50
270.0
 51
89.9999999999999858
 73
1
 72
1
 10
-2.4000000000000004
 20
98.4299999999999926
 11
-2.6000000000000001
 21
98.4299999999999926
 72
2
 10
-2.6000000000000001
 20
98.2999999999999829
 40
0.02
 50
0.0
 51
360.0
 73
1
 72
2
 10
-2.5
 20
98.2999999999999829
 40
0.02
 50
0.0
 51
360.0
 73
1
 72
2
 10
-2.3999999999999999
 20
98.2999999999999829
 40
0.02
 50
0.0
 51
360.0
 73
1
 72
2
 10
-2.6000000000000001
 20
98.2999999999999829
 40
0.0300000000000002
 50
90.0
 51
270.0
 73
1
 72
1
 10
-2.6000000000000001
 20
98.2699999999999818
 11
-2.4000000000000004
 21
98.2699999999999818
 72
2
 10
-2.4000000000000004
 20
98.2999999999999829
 40
0.0300000000000002
 50
270.0
 51
89.9999999999999858
 73
1
 72
1
 10
-2.4000000000000004
 20
98.3299999999999841
 11
-2.6000000000000001
 21
98.3299999999999841
 72
2
 10
-2.6000000000000001
 20
98.1999999999999744
 40
0.02
 50
0.0
 51
360.0
 73
1
 72
2
 10
-2.5
 20
98.1999999999999744
 40
0.02
 50
0.0
 51
360.0
 73
1
 72
2
 10
-2.3999999999999999
 20
98.1999999999999744
 40
0.02
 50
0.0
 51
360.0
 73
1
 72
2
 10
-2.6000000000000001
 20
98.1999999999999744
 40
0.0300000000000002
 50
90.0
 51
270.0
 73
1
 72
1
 10
-2.6000000000000001
 20
98.1699999999999733
 11
-2.4000000000000004
 21
98.1699999999999733
 72
2
 10
-2.4000000000000004
 20
98.1999999999999744
 40
0.0300000000000002
 50
270.0
 51
89.9999999999999858
 73
1
 72
1
 10
-2.4000000000000004
 20
98.2299999999999756
 11
-2.6000000000000001
 21
98.2299999999999756
 72
2
 10
-2.5
 20
98.0999999999999659
 40
0.02
 50
0.0
 51
360.0
 73
1
 72
2
 10
-2.3999999999999999
 20
98.0999999999999659
 40
0.02
 50
0.0
 51
360.0
 73
1
 72
2
 10
-2.4000000000000004
 20
98.0999999999999659
 40
0.0300000000000002
 50
270.0
 51
89.9999999999999858
 73
1
 72
1
 10
-2.4000000000000004
 20
98.129999999999967
 11
-2.6000000000000001
 21
98.129999999999967
 72
2
 10
-2.6000000000000001
 20
98.0999999999999801
 40
0.0300000000000002
 50
90.0
 51
270.0
 73
1
 72
1
 10
-2.6000000000000001
 20
98.0699999999999648
 11
-2.4000000000000004
 21
98.0699999999999648
 72
2
 10
-2.6000000000000001
 20
97.9999999999999574
 40
0.02
 50
0.0
 51
360.0
 73
1
 72
2
 10
-2.5
 20
97.9999999999999574
 40
0.02
 50
0.0
 51
360.0
 73
1
 72
2
 10
-2.3999999999999999
 20
97.9999999999999574
 40
0.02
 50
0.0
 51
360.0
 73
1
 72
2
 10
-2.6000000000000001
 20
97.9999999999999574
 40
0.0300000000000002
 50
90.0
 51
270.0
 73
1
 72
1
 10
-2.6000000000000001
 20
97.9699999999999562
 11
-2.4000000000000004
 21
97.9699999999999562
 72
2
 10
-2.4000000000000004
 20
97.9999999999999574
 40
0.0300000000000002
 50
270.0
 51
89.9999999999999858
 73
1
 72
1
 10
-2.4000000000000004
 20
98.0299999999999585
 11
-2.6000000000000001
 21
98.0299999999999585
 72
2
 10
-2.6000000000000001
 20
97.8999999999999488
 40
0.02
 50
0.0
 51
360.0
 73
1
 72
2
 10
-2.5
 20
97.8999999999999488
 40
0.02
 50
0.0
 51
360.0
 73
1
 72
2
 10
-2.3999999999999999
 20
97.8999999999999488
 40
0.02
 50
0.0
 51
360.0
 73
1
 72
2
 10
-2.6000000000000001
 20
97.8999999999999488
 40
0.0300000000000002
 50
90.0
 51
270.0
 73
1
 72
1
 10
-2.6000000000000001
 20
97.8699999999999477
 11
-2.4000000000000004
 21
97.8699999999999477
 72
2
 10
-2.4000000000000004
 20
97.8999999999999488
 40
0.0300000000000002
 50
270.0
 51
89.9999999999999858
 73
1
 72
1
 10
-2.4000000000000004
 20
97.92999999999995
 11
-2.6000000000000001
 21
97.92999999999995
 72
2
 10
-2.6000000000000001
 20
97.7999999999999403
 40
0.02
 50
0.0
 51
360.0
 73
1
 72
2
 10
-2.5
 20
97.7999999999999403
 40
0.02
 50
0.0
 51
360.0
 73
1
 72
2
 10
-2.3999999999999999
 20
97.7999999999999403
 40
0.02
 50
0.0
 51
360.0
 73
1
 72
2
 10
-2.6000000000000001
 20
97.7999999999999403
 40
0.0300000000000002
 50
90.0
 51
270.0
 73
1
 72
1
 10
-2.6000000000000001
 20
97.7699999999999392
 11
-2.4000000000000004
 21
97.7699999999999392
 72
2
 10
-2.4000000000000004
 20
97.7999999999999403
 40
0.0300000000000002
 50
270.0
 51
89.9999999999999858
 73
1
 72
1
 10
-2.4000000000000004
 20
97.8299999999999415
 11
-2.6000000000000001
 21
97.8299999999999415
 72
2
 10
-2.6000000000000001
 20
97.6999999999999318
 40
0.02
 50
0.0
 51
360.0
 73
1
 72
2
 10
-2.5
 20
97.6999999999999318
 40
0.02
 50
0.0
 51
360.0
 73
1
 72
2
 10
-2.3999999999999999
 20
97.6999999999999318
 40
0.02
 50
0.0
 51
360.0
 73
1
 72
2
 10
-2.6000000000000001
 20
97.6999999999999318
 40
0.0300000000000002
 50
90.0
 51
270.0
 73
1
 72
1
 10
-2.6000000000000001
 20
97.6699999999999307
 11
-2.4000000000000004
 21
97.6699999999999307
 72
2
 10
-2.4000000000000004
 20
97.6999999999999318
 40
0.0300000000000002
 50
270.0
 51
89.9999999999999858
 73
1
 72
1
 10
-2.4000000000000004
 20
97.7299999999999329
 11
-2.6000000000000001
 21
97.7299999999999329
 72
2
 10
-2.6000000000000001
 20
97.5999999999999233
 40
0.02
 50
0.0
 51
360.0
 73
1
 72
2
 10
-2.5
 20
97.5999999999999233
 40
0.02
 50
0.0
 51
360.0
 73
1
 72
2
 10
-2.3999999999999999
 20
97.5999999999999233
 40
0.02
 50
0.0
 51
360.0
 73
1
 72
2
 10
-2.6000000000000001
 20
97.5999999999999233
 40
0.0300000000000002
 50
90.0
 51
270.0
 73
1
 72
1
 10
-2.6000000000000001
 20
97.5699999999999221
 11
-2.4000000000000004
 21
97.5699999999999221
 72
2
 10
-2.4000000000000004
 20
97.5999999999999233
 40
0.0300000000000002
 50
270.0
 51
89.9999999999999858
 73
1
 72
1
 10
-2.4000000000000004
 20
97.6299999999999244
 11
-2.6000000000000001
 21
97.6299999999999244
 72
2
 10
-2.6000000000000001
 20
97.4999999999999147
 40
0.02
 50
0.0
 51
360.0
 73
1
 72
2
 10
-2.5
 20
97.4999999999999147
 40
0.02
 50
0.0
 51
360.0
 73
1
 72
2
 10
-2.3999999999999999
 20
97.4999999999999147
 40
0.02
 50
0.0
 51
360.0
 73
1
 72
2
 10
-2.6000000000000001
 20
97.4999999999999147
 40
0.0300000000000002
 50
90.0
 51
270.0
 73
1
 72
1
 10
-2.6000000000000001
 20
97.4699999999999136
 11
-2.4000000000000004
 21
97.4699999999999136
 72
2
 10
-2.4000000000000004
 20
97.4999999999999147
 40
0.0300000000000002
 50
270.0
 51
89.9999999999999858
 73
1
 72
1
 10
-2.4000000000000004
 20
97.5299999999999159
 11
-2.6000000000000001
 21
97.5299999999999159
 72
2
 10
-2.2999999999999994
 20
98.3999999999999915
 40
0.02
 50
0.0
 51
360.0
 73
1
 72
2
 10
-2.2999999999999994
 20
98.2999999999999829
 40
0.02
 50
0.0
 51
360.0
 73
1
 72
2
 10
-2.2999999999999994
 20
98.1999999999999744
 40
0.02
 50
0.0
 51
360.0
 73
1
 72
2
 10
-2.2999999999999994
 20
98.0999999999999659
 40
0.02
 50
0.0
 51
360.0
 73
1
 72
2
 10
-2.2999999999999994
 20
97.9999999999999574
 40
0.02
 50
0.0
 51
360.0
 73
1
 72
2
 10
-2.2999999999999994
 20
97.8999999999999488
 40
0.02
 50
0.0
 51
360.0
 73
1
 72
2
 10
-2.2999999999999994
 20
97.7999999999999403
 40
0.02
 50
0.0
 51
360.0
 73
1
 72
2
 10
-2.2999999999999994
 20
97.6999999999999318
 40
0.02
 50
0.0
 51
360.0
 73
1
 72
2
 10
-2.2999999999999994
 20
97.5999999999999233
 40
0.02
 50
0.0
 51
360.0
 73
1
 72
2
 10
-2.2999999999999994
 20
97.4999999999999147
 40
0.02
 50
0.0
 51
360.0
 73
1
 72
2
 10
-2.2999999999999994
 20
98.4000000000000057
 40
0.0300000000000002
 50
360.0
 51
180.0
 73
1
 72
1
 10
-2.3299999999999996
 20
98.4000000000000057
 11
-2.3299999999999996
 21
97.5
 72
2
 10
-2.2999999999999994
 20
97.5
 40
0.0300000000000002
 50
180.0
 51
360.0
 73
1
 72
1
 10
-2.2699999999999991
 20
97.5
 11
-2.2699999999999991
 21
98.4000000000000057
 72
2
 10
-2.5
 20
98.5999999999999943
 40
0.02
 50
0.0
 51
360.0
 73
1
 72
2
 10
-2.6000000000000001
 20
98.5999999999999943
 40
0.02
 50
0.0
 51
360.0
 73
1
 72
2
 10
-2.7000000000000002
 20
98.5999999999999943
 40
0.02
 50
0.0
 51
360.0
 73
1
 72
2
 10
-2.8000000000000003
 20
98.5999999999999943
 40
0.02
 50
0.0
 51
360.0
 73
1
 72
2
 10
-2.9000000000000004
 20
98.5999999999999943
 40
0.02
 50
0.0
 51
360.0
 73
1
 72
2
 10
-3.0000000000000004
 20
98.5999999999999943
 40
0.02
 50
0.0
 51
360.0
 73
1
 72
2
 10
-3.1000000000000005
 20
98.5999999999999943
 40
0.02
 50
0.0
 51
360.0
 73
1
 72
2
 10
-2.5000000000000004
 20
98.6000000000000085
 40
0.0300000000000002
 50
270.0
 51
89.9999999999999858
 73
1
 72
1
 10
-2.5
 20
98.6299999999999812
 11
-3.1499999999999999
 21
98.6299999999999812
 72
1
 10
-3.1499999999999999
 20
98.6299999999999812
 11
-3.7999999999999998
 21
98.6299999999999812
 72
2
 10
-3.7999999999999994
 20
98.6000000000000085
 40
0.0300000000000002
 50
89.9999999999999858
 51
270.0
 73
1
 72
1
 10
-3.7999999999999998
 20
98.5699999999999932
 11
-3.1499999999999999
 21
98.5699999999999932
 72
1
 10
-3.1499999999999999
 20
98.5699999999999932
 11
-2.5
 21
98.5699999999999932
 72
2
 10
-2.3500000000000001
 20
98.5499999999999972
 40
0.0509901951359291
 50
0.0
 51
360.0
 73
1
 72
2
 10
-2.6000000000000001
 20
98.0999999999999801
 40
0.02
 50
0.0
 51
360.0
 73
1
 72
2
 10
-2.6000000000000001
 20
97.4000000000000057
 40
0.02
 50
0.0
 51
360.0
 73
1
 72
2
 10
-2.5
 20
97.4000000000000057
 40
0.02
 50
0.0
 51
360.0
 73
1
 72
2
 10
-2.6000000000000001
 20
97.4000000000000057
 40
0.0300000000000002
 50
90.0
 51
270.0
 73
1
 72
1
 10
-2.6000000000000001
 20
97.3700000000000045
 11
-2.5000000000000004
 21
97.3700000000000045
 72
2
 10
-2.5000000000000004
 20
97.4000000000000057
 40
0.0300000000000002
 50
270.0
 51
89.9999999999999858
 73
1
 72
1
 10
-2.5000000000000004
 20
97.4300000000000068
 11
-2.6000000000000001
 21
97.4300000000000068
 72
2
 10
-2.6999999999999997
 20
98.0999999999999659
 40
0.02
 50
0.0
 51
360.0
 73
1
 72
2
 10
-2.6999999999999997
 20
97.3999999999999204
 40
0.02
 50
0.0
 51
360.0
 73
1
 72
2
 10
-2.5
 20
97.2999999999999972
 40
0.02
 50
0.0
 51
360.0
 73
1
 72
2
 10
-2.6000000000000001
 20
97.2999999999999972
 40
0.02
 50
0.0
 51
360.0
 73
1
 72
2
 10
-2.7000000000000002
 20
97.2999999999999972
 40
0.02
 50
0.0
 51
360.0
 73
1
 72
2
 10
-2.8000000000000003
 20
97.2999999999999972
 40
0.02
 50
0.0
 51
360.0
 73
1
 72
2
 10
-2.9000000000000004
 20
97.2999999999999972
 40
0.02
 50
0.0
 51
360.0
 73
1
 72
2
 10
-3.0000000000000004
 20
97.2999999999999972
 40
0.02
 50
0.0
 51
360.0
 73
1
 72
2
 10
-3.1000000000000005
 20
97.2999999999999972
 40
0.02
 50
0.0
 51
360.0
 73
1
 72
2
 10
-2.5000000000000004
 20
97.3000000000000114
 40
0.0300000000000002
 50
270.0
 51
89.9999999999999858
 73
1
 72
1
 10
-2.5
 20
97.3299999999999841
 11
-3.1499999999999999
 21
97.3299999999999841
 72
1
 10
-3.1500000000000004
 20
97.3299999999999841
 11
-3.8000000000000003
 21
97.3299999999999841
 72
2
 10
-3.7999999999999994
 20
97.3000000000000114
 40
0.0300000000000002
 50
89.9999999999999858
 51
270.0
 73
1
 72
1
 10
-3.7999999999999998
 20
97.269999999999996
 11
-3.1500000000000004
 21
97.269999999999996
 72
1
 10
-3.1499999999999999
 20
97.269999999999996
 11
-2.5
 21
97.269999999999996
 72
2
 10
-2.3500000000000001
 20
97.3499999999999943
 40
0.0509901951359291
 50
0.0
 51
360.0
 73
1
 72
2
 10
-2.7999999999999998
 20
98.5
 40
0.0300000000000002
 50
360.0
 51
180.0
 73
1
 72
1
 10
-2.8300000000000001
 20
98.5
 11
-2.8300000000000001
 21
97.3999999999999915
 72
2
 10
-2.8000000000000003
 20
97.3999999999999915
 40
0.0300000000000002
 50
180.0
 51
0.0
 73
1
 72
1
 10
-2.7699999999999996
 20
97.3999999999999915
 11
-2.7699999999999996
 21
98.5
 72
2
 10
-2.7999999999999998
 20
97.3999999999999204
 40
0.02
 50
0.0
 51
360.0
 73
1
 72
2
 10
-3.1000000000000001
 20
97.3999999999999062
 40
0.02
 50
0.0
 51
360.0
 73
1
 72
2
 10
-3.0
 20
97.3999999999999062
 40
0.02
 50
0.0
 51
360.0
 73
1
 72
2
 10
-2.8999999999999999
 20
97.3999999999999062
 40
0.02
 50
0.0
 51
360.0
 73
1
 72
2
 10
-3.1000000000000001
 20
97.3999999999999062
 40
0.0300000000000002
 50
90.0
 51
270.0
 73
1
 72
1
 10
-3.1000000000000001
 20
97.3699999999999051
 11
-2.9000000000000004
 21
97.3699999999999051
 72
2
 10
-2.9000000000000004
 20
97.3999999999999062
 40
0.0300000000000002
 50
270.0
 51
89.9999999999999858
 73
1
 72
1
 10
-2.9000000000000004
 20
97.4299999999999073
 11
-3.1000000000000001
 21
97.4299999999999073
 72
2
 10
-3.1999999999999997
 20
98.5
 40
0.02
 50
0.0
 51
360.0
 73
1
 72
2
 10
-3.2999999999999998
 20
98.5
 40
0.02
 50
0.0
 51
360.0
 73
1
 72
2
 10
-3.3999999999999999
 20
98.5
 40
0.02
 50
0.0
 51
360.0
 73
1
 72
2
 10
-3.1999999999999997
 20
98.5
 40
0.0300000000000002
 50
270.0
 51
89.9999999999999858
 73
1
 72
1
 10
-3.1999999999999997
 20
98.5300000000000011
 11
-3.3999999999999995
 21
98.5300000000000011
 72
2
 10
-3.3999999999999995
 20
98.5
 40
0.0300000000000002
 50
89.9999999999999858
 51
270.0
 73
1
 72
1
 10
-3.3999999999999995
 20
98.4699999999999989
 11
-3.1999999999999997
 21
98.4699999999999989
 72
2
 10
-3.1999999999999997
 20
98.3999999999999915
 40
0.02
 50
0.0
 51
360.0
 73
1
 72
2
 10
-3.2999999999999998
 20
98.3999999999999915
 40
0.02
 50
0.0
 51
360.0
 73
1
 72
2
 10
-3.3999999999999999
 20
98.3999999999999915
 40
0.02
 50
0.0
 51
360.0
 73
1
 72
2
 10
-3.1999999999999997
 20
98.3999999999999915
 40
0.0300000000000002
 50
270.0
 51
89.9999999999999858
 73
1
 72
1
 10
-3.1999999999999997
 20
98.4299999999999926
 11
-3.3999999999999995
 21
98.4299999999999926
 72
2
 10
-3.3999999999999995
 20
98.3999999999999915
 40
0.0300000000000002
 50
89.9999999999999858
 51
270.0
 73
1
 72
1
 10
-3.3999999999999995
 20
98.3699999999999903
 11
-3.1999999999999997
 21
98.3699999999999903
 72
2
 10
-3.1999999999999997
 20
98.2999999999999829
 40
0.02
 50
0.0
 51
360.0
 73
1
 72
2
 10
-3.2999999999999998
 20
98.2999999999999829
 40
0.02
 50
0.0
 51
360.0
 73
1
 72
2
 10
-3.2999999999999998
 20
98.2999999999999972
 40
0.02
 50
0.0
 51
360.0
 73
1
 72
2
 10
-3.3999999999999999
 20
98.2999999999999829
 40
0.02
 50
0.0
 51
360.0
 73
1
 72
2
 10
-3.1999999999999997
 20
98.2999999999999829
 40
0.0300000000000002
 50
270.0
 51
89.9999999999999858
 73
1
 72
1
 10
-3.1999999999999997
 20
98.3299999999999841
 11
-3.3999999999999995
 21
98.3299999999999841
 72
2
 10
-3.3999999999999995
 20
98.2999999999999829
 40
0.0300000000000002
 50
89.9999999999999858
 51
270.0
 73
1
 72
1
 10
-3.3999999999999995
 20
98.2699999999999818
 11
-3.1999999999999997
 21
98.2699999999999818
 72
2
 10
-3.1999999999999997
 20
98.1999999999999744
 40
0.02
 50
0.0
 51
360.0
 73
1
 72
2
 10
-3.2999999999999998
 20
98.1999999999999744
 40
0.02
 50
0.0
 51
360.0
 73
1
 72
2
 10
-3.3999999999999999
 20
98.1999999999999744
 40
0.02
 50
0.0
 51
360.0
 73
1
 72
2
 10
-3.1999999999999997
 20
98.1999999999999744
 40
0.0300000000000002
 50
270.0
 51
89.9999999999999858
 73
1
 72
1
 10
-3.1999999999999997
 20
98.2299999999999756
 11
-3.3999999999999995
 21
98.2299999999999756
 72
2
 10
-3.3999999999999995
 20
98.1999999999999744
 40
0.0300000000000002
 50
89.9999999999999858
 51
270.0
 73
1
 72
1
 10
-3.3999999999999995
 20
98.1699999999999733
 11
-3.1999999999999997
 21
98.1699999999999733
 72
2
 10
-3.1999999999999997
 20
98.0999999999999659
 40
0.02
 50
0.0
 51
360.0
 73
1
 72
2
 10
-3.2999999999999998
 20
98.0999999999999659
 40
0.02
 50
0.0
 51
360.0
 73
1
 72
2
 10
-3.3999999999999999
 20
98.0999999999999659
 40
0.02
 50
0.0
 51
360.0
 73
1
 72
2
 10
-3.1999999999999997
 20
98.0999999999999659
 40
0.0300000000000002
 50
270.0
 51
89.9999999999999858
 73
1
 72
1
 10
-3.1999999999999997
 20
98.129999999999967
 11
-3.3999999999999995
 21
98.129999999999967
 72
2
 10
-3.3999999999999995
 20
98.0999999999999659
 40
0.0300000000000002
 50
89.9999999999999858
 51
270.0
 73
1
 72
1
 10
-3.3999999999999999
 20
98.0699999999999648
 11
-3.2000000000000002
 21
98.0699999999999648
 72
2
 10
-3.1999999999999997
 20
97.9999999999999574
 40
0.02
 50
0.0
 51
360.0
 73
1
 72
2
 10
-3.2999999999999998
 20
97.9999999999999574
 40
0.02
 50
0.0
 51
360.0
 73
1
 72
2
 10
-3.3999999999999999
 20
97.9999999999999574
 40
0.02
 50
0.0
 51
360.0
 73
1
 72
2
 10
-3.1999999999999997
 20
97.9999999999999574
 40
0.0300000000000002
 50
270.0
 51
89.9999999999999858
 73
1
 72
1
 10
-3.1999999999999997
 20
98.0299999999999585
 11
-3.3999999999999995
 21
98.0299999999999585
 72
2
 10
-3.3999999999999999
 20
97.9999999999999574
 40
0.0300000000000002
 50
89.9999999999999858
 51
270.0
 73
1
 72
1
 10
-3.3999999999999999
 20
97.9699999999999562
 11
-3.2000000000000002
 21
97.9699999999999562
 72
2
 10
-3.1999999999999997
 20
97.8999999999999488
 40
0.02
 50
0.0
 51
360.0
 73
1
 72
2
 10
-3.2999999999999998
 20
97.8999999999999488
 40
0.02
 50
0.0
 51
360.0
 73
1
 72
2
 10
-3.3999999999999999
 20
97.8999999999999488
 40
0.02
 50
0.0
 51
360.0
 73
1
 72
2
 10
-3.1999999999999997
 20
97.8999999999999488
 40
0.0300000000000002
 50
270.0
 51
89.9999999999999858
 73
1
 72
1
 10
-3.1999999999999997
 20
97.92999999999995
 11
-3.3999999999999995
 21
97.92999999999995
 72
2
 10
-3.399999999999999
 20
97.8999999999999488
 40
0.0300000000000002
 50
89.9999999999999858
 51
270.0
 73
1
 72
1
 10
-3.3999999999999995
 20
97.8699999999999477
 11
-3.2000000000000002
 21
97.8699999999999477
 72
2
 10
-3.1999999999999997
 20
97.7999999999999403
 40
0.02
 50
0.0
 51
360.0
 73
1
 72
2
 10
-3.2999999999999998
 20
97.7999999999999403
 40
0.02
 50
0.0
 51
360.0
 73
1
 72
2
 10
-3.3999999999999999
 20
97.7999999999999403
 40
0.02
 50
0.0
 51
360.0
 73
1
 72
2
 10
-3.1999999999999997
 20
97.7999999999999403
 40
0.0300000000000002
 50
270.0
 51
89.9999999999999858
 73
1
 72
1
 10
-3.1999999999999993
 20
97.8299999999999415
 11
-3.3999999999999995
 21
97.8299999999999415
 72
2
 10
-3.3999999999999999
 20
97.7999999999999403
 40
0.0300000000000002
 50
89.9999999999999858
 51
270.0
 73
1
 72
1
 10
-3.3999999999999995
 20
97.7699999999999392
 11
-3.1999999999999997
 21
97.7699999999999392
 72
2
 10
-3.1999999999999997
 20
97.6999999999999318
 40
0.02
 50
0.0
 51
360.0
 73
1
 72
2
 10
-3.3000000000000003
 20
97.6999999999999318
 40
0.02
 50
0.0
 51
360.0
 73
1
 72
2
 10
-3.3999999999999999
 20
97.6999999999999318
 40
0.02
 50
0.0
 51
360.0
 73
1
 72
2
 10
-3.1999999999999997
 20
97.6999999999999318
 40
0.0300000000000002
 50
270.0
 51
89.9999999999999858
 73
1
 72
1
 10
-3.1999999999999993
 20
97.7299999999999329
 11
-3.3999999999999999
 21
97.7299999999999329
 72
2
 10
-3.399999999999999
 20
97.6999999999999318
 40
0.0300000000000002
 50
89.9999999999999858
 51
270.0
 73
1
 72
1
 10
-3.3999999999999995
 20
97.6699999999999307
 11
-3.1999999999999997
 21
97.6699999999999307
 72
2
 10
-3.1999999999999997
 20
97.5999999999999233
 40
0.02
 50
0.0
 51
360.0
 73
1
 72
2
 10
-3.3000000000000003
 20
97.5999999999999233
 40
0.02
 50
0.0
 51
360.0
 73
1
 72
2
 10
-3.4000000000000004
 20
97.5999999999999233
 40
0.02
 50
0.0
 51
360.0
 73
1
 72
2
 10
-3.1999999999999997
 20
97.5999999999999233
 40
0.0300000000000002
 50
270.0
 51
89.9999999999999858
 73
1
 72
1
 10
-3.1999999999999997
 20
97.6299999999999244
 11
-3.399999999999999
 21
97.6299999999999244
 72
2
 10
-3.3999999999999995
 20
97.5999999999999233
 40
0.0300000000000002
 50
89.9999999999999858
 51
270.0
 73
1
 72
1
 10
-3.3999999999999999
 20
97.5699999999999221
 11
-3.2000000000000002
 21
97.5699999999999221
 72
2
 10
-3.1999999999999997
 20
97.4999999999999147
 40
0.02
 50
0.0
 51
360.0
 73
1
 72
2
 10
-3.2999999999999998
 20
97.4999999999999147
 40
0.02
 50
0.0
 51
360.0
 73
1
 72
2
 10
-3.3999999999999999
 20
97.4999999999999147
 40
0.02
 50
0.0
 51
360.0
 73
1
 72
2
 10
-3.1999999999999997
 20
97.4999999999999147
 40
0.0300000000000002
 50
270.0
 51
89.9999999999999858
 73
1
 72
1
 10
-3.1999999999999997
 20
97.5299999999999159
 11
-3.3999999999999995
 21
97.5299999999999159
 72
2
 10
-3.3999999999999999
 20
97.4999999999999147
 40
0.0300000000000002
 50
89.9999999999999858
 51
270.0
 73
1
 72
1
 10
-3.4000000000000004
 20
97.4699999999999136
 11
-3.1999999999999993
 21
97.4699999999999136
 72
2
 10
-3.5
 20
98.5
 40
0.02
 50
0.0
 51
360.0
 73
1
 72
2
 10
-3.5
 20
98.3999999999999915
 40
0.02
 50
0.0
 51
360.0
 73
1
 72
2
 10
-3.5
 20
98.2999999999999829
 40
0.02
 50
0.0
 51
360.0
 73
1
 72
2
 10
-3.5
 20
98.1999999999999744
 40
0.02
 50
0.0
 51
360.0
 73
1
 72
2
 10
-3.5
 20
98.0999999999999659
 40
0.02
 50
0.0
 51
360.0
 73
1
 72
2
 10
-3.5
 20
97.9999999999999574
 40
0.02
 50
0.0
 51
360.0
 73
1
 72
2
 10
-3.4999999999999996
 20
97.8999999999999488
 40
0.02
 50
0.0
 51
360.0
 73
1
 72
2
 10
-3.5
 20
97.7999999999999403
 40
0.02
 50
0.0
 51
360.0
 73
1
 72
2
 10
-3.4999999999999996
 20
97.6999999999999318
 40
0.02
 50
0.0
 51
360.0
 73
1
 72
2
 10
-3.4999999999999996
 20
97.5999999999999233
 40
0.02
 50
0.0
 51
360.0
 73
1
 72
2
 10
-3.5
 20
97.4999999999999147
 40
0.02
 50
0.0
 51
360.0
 73
1
 72
2
 10
-3.6000000000000001
 20
98.5
 40
0.02
 50
0.0
 51
360.0
 73
1
 72
2
 10
-3.6000000000000001
 20
98.3999999999999915
 40
0.02
 50
0.0
 51
360.0
 73
1
 72
2
 10
-3.6000000000000001
 20
98.2999999999999829
 40
0.02
 50
0.0
 51
360.0
 73
1
 72
2
 10
-3.6000000000000001
 20
98.1999999999999744
 40
0.02
 50
0.0
 51
360.0
 73
1
 72
2
 10
-3.6000000000000005
 20
97.9999999999999574
 40
0.02
 50
0.0
 51
360.0
 73
1
 72
2
 10
-3.6000000000000001
 20
97.8999999999999488
 40
0.02
 50
0.0
 51
360.0
 73
1
 72
2
 10
-3.6000000000000005
 20
97.7999999999999403
 40
0.02
 50
0.0
 51
360.0
 73
1
 72
2
 10
-3.6000000000000001
 20
97.6999999999999318
 40
0.02
 50
0.0
 51
360.0
 73
1
 72
2
 10
-3.6000000000000005
 20
97.5999999999999233
 40
0.02
 50
0.0
 51
360.0
 73
1
 72
2
 10
-3.6000000000000005
 20
97.4999999999999147
 40
0.02
 50
0.0
 51
360.0
 73
1
 72
2
 10
-3.6000000000000001
 20
98.5
 40
0.0300000000000002
 50
360.0
 51
180.0
 73
1
 72
1
 10
-3.6300000000000003
 20
98.5
 11
-3.6300000000000008
 21
97.3999999999999915
 72
2
 10
-3.5999999999999996
 20
97.3999999999999915
 40
0.0300000000000002
 50
179.9999999999999716
 51
360.0
 73
1
 72
1
 10
-3.5699999999999998
 20
97.3999999999999915
 11
-3.5699999999999998
 21
98.5
 72
2
 10
-3.6999999999999997
 20
98.5
 40
0.02
 50
0.0
 51
360.0
 73
1
 72
2
 10
-3.7999999999999998
 20
98.5
 40
0.02
 50
0.0
 51
360.0
 73
1
 72
2
 10
-3.6999999999999997
 20
98.5
 40
0.0300000000000002
 50
270.0
 51
89.9999999999999858
 73
1
 72
1
 10
-3.6999999999999997
 20
98.5300000000000011
 11
-3.7999999999999994
 21
98.5300000000000011
 72
2
 10
-3.7999999999999994
 20
98.5
 40
0.0300000000000002
 50
89.9999999999999858
 51
270.0
 73
1
 72
1
 10
-3.7999999999999994
 20
98.4699999999999989
 11
-3.6999999999999997
 21
98.4699999999999989
 72
2
 10
-3.6999999999999997
 20
98.3999999999999915
 40
0.02
 50
0.0
 51
360.0
 73
1
 72
2
 10
-3.7999999999999998
 20
98.3999999999999915
 40
0.02
 50
0.0
 51
360.0
 73
1
 72
2
 10
-3.8999999999999999
 20
98.3999999999999915
 40
0.02
 50
0.0
 51
360.0
 73
1
 72
2
 10
-3.6999999999999997
 20
98.3999999999999915
 40
0.0300000000000002
 50
270.0
 51
89.9999999999999858
 73
1
 72
1
 10
-3.6999999999999997
 20
98.4299999999999926
 11
-3.8999999999999995
 21
98.4299999999999926
 72
2
 10
-3.8999999999999995
 20
98.3999999999999915
 40
0.0300000000000002
 50
89.9999999999999858
 51
270.0
 73
1
 72
1
 10
-3.8999999999999995
 20
98.3699999999999903
 11
-3.6999999999999997
 21
98.3699999999999903
 72
2
 10
-3.6999999999999997
 20
98.2999999999999829
 40
0.02
 50
0.0
 51
360.0
 73
1
 72
2
 10
-3.7999999999999998
 20
98.2999999999999829
 40
0.02
 50
0.0
 51
360.0
 73
1
 72
2
 10
-3.8999999999999999
 20
98.2999999999999829
 40
0.02
 50
0.0
 51
360.0
 73
1
 72
2
 10
-3.6999999999999997
 20
98.2999999999999829
 40
0.0300000000000002
 50
270.0
 51
89.9999999999999858
 73
1
 72
1
 10
-3.6999999999999997
 20
98.3299999999999841
 11
-3.8999999999999995
 21
98.3299999999999841
 72
2
 10
-3.8999999999999995
 20
98.2999999999999829
 40
0.0300000000000002
 50
89.9999999999999858
 51
270.0
 73
1
 72
1
 10
-3.8999999999999995
 20
98.2699999999999818
 11
-3.6999999999999997
 21
98.2699999999999818
 72
2
 10
-3.6999999999999997
 20
98.1999999999999744
 40
0.02
 50
0.0
 51
360.0
 73
1
 72
2
 10
-3.7999999999999998
 20
98.1999999999999744
 40
0.02
 50
0.0
 51
360.0
 73
1
 72
2
 10
-3.8999999999999999
 20
98.1999999999999744
 40
0.02
 50
0.0
 51
360.0
 73
1
 72
2
 10
-3.6999999999999997
 20
98.1999999999999744
 40
0.0300000000000002
 50
270.0
 51
89.9999999999999858
 73
1
 72
1
 10
-3.7000000000000002
 20
98.2299999999999756
 11
-3.8999999999999995
 21
98.2299999999999756
 72
2
 10
-3.8999999999999995
 20
98.1999999999999744
 40
0.0300000000000002
 50
89.9999999999999858
 51
270.0
 73
1
 72
1
 10
-3.8999999999999995
 20
98.1699999999999733
 11
-3.6999999999999997
 21
98.1699999999999733
 72
2
 10
-3.7999999999999998
 20
98.0999999999999659
 40
0.02
 50
0.0
 51
360.0
 73
1
 72
2
 10
-3.8999999999999999
 20
98.0999999999999659
 40
0.02
 50
0.0
 51
360.0
 73
1
 72
2
 10
-3.8999999999999995
 20
98.0999999999999659
 40
0.0300000000000002
 50
89.9999999999999858
 51
270.0
 73
1
 72
1
 10
-3.8999999999999995
 20
98.0699999999999648
 11
-3.6999999999999997
 21
98.0699999999999648
 72
2
 10
-3.7000000000000002
 20
98.0999999999999801
 40
0.0300000000000002
 50
270.0
 51
89.9999999999999858
 73
1
 72
1
 10
-3.7000000000000002
 20
98.129999999999967
 11
-3.8999999999999995
 21
98.129999999999967
 72
2
 10
-3.6999999999999997
 20
97.9999999999999574
 40
0.02
 50
0.0
 51
360.0
 73
1
 72
2
 10
-3.8000000000000003
 20
97.9999999999999574
 40
0.02
 50
0.0
 51
360.0
 73
1
 72
2
 10
-3.9000000000000004
 20
97.9999999999999574
 40
0.02
 50
0.0
 51
360.0
 73
1
 72
2
 10
-3.6999999999999997
 20
97.9999999999999574
 40
0.0300000000000002
 50
270.0
 51
89.9999999999999858
 73
1
 72
1
 10
-3.6999999999999997
 20
98.0299999999999585
 11
-3.8999999999999995
 21
98.0299999999999585
 72
2
 10
-3.8999999999999999
 20
97.9999999999999574
 40
0.0300000000000002
 50
89.9999999999999858
 51
270.0
 73
1
 72
1
 10
-3.8999999999999999
 20
97.9699999999999562
 11
-3.6999999999999997
 21
97.9699999999999562
 72
2
 10
-3.7000000000000002
 20
97.8999999999999488
 40
0.02
 50
0.0
 51
360.0
 73
1
 72
2
 10
-3.7999999999999998
 20
97.8999999999999488
 40
0.02
 50
0.0
 51
360.0
 73
1
 72
2
 10
-3.8999999999999999
 20
97.8999999999999488
 40
0.02
 50
0.0
 51
360.0
 73
1
 72
2
 10
-3.7000000000000002
 20
97.8999999999999488
 40
0.0300000000000002
 50
270.0
 51
89.9999999999999858
 73
1
 72
1
 10
-3.6999999999999993
 20
97.92999999999995
 11
-3.8999999999999995
 21
97.92999999999995
 72
2
 10
-3.8999999999999995
 20
97.8999999999999488
 40
0.0300000000000002
 50
89.9999999999999858
 51
270.0
 73
1
 72
1
 10
-3.8999999999999999
 20
97.8699999999999477
 11
-3.6999999999999993
 21
97.8699999999999477
 72
2
 10
-3.6999999999999993
 20
97.7999999999999403
 40
0.02
 50
0.0
 51
360.0
 73
1
 72
2
 10
-3.7999999999999998
 20
97.7999999999999403
 40
0.02
 50
0.0
 51
360.0
 73
1
 72
2
 10
-3.9000000000000004
 20
97.7999999999999403
 40
0.02
 50
0.0
 51
360.0
 73
1
 72
2
 10
-3.6999999999999993
 20
97.7999999999999403
 40
0.0300000000000002
 50
270.0
 51
89.9999999999999858
 73
1
 72
1
 10
-3.6999999999999997
 20
97.8299999999999415
 11
-3.8999999999999995
 21
97.8299999999999415
 72
2
 10
-3.8999999999999995
 20
97.7999999999999403
 40
0.0300000000000002
 50
89.9999999999999858
 51
270.0
 73
1
 72
1
 10
-3.8999999999999995
 20
97.7699999999999392
 11
-3.7000000000000002
 21
97.7699999999999392
 72
2
 10
-3.6999999999999997
 20
97.6999999999999318
 40
0.02
 50
0.0
 51
360.0
 73
1
 72
2
 10
-3.8000000000000003
 20
97.6999999999999318
 40
0.02
 50
0.0
 51
360.0
 73
1
 72
2
 10
-3.8999999999999999
 20
97.6999999999999318
 40
0.02
 50
0.0
 51
360.0
 73
1
 72
2
 10
-3.6999999999999997
 20
97.6999999999999318
 40
0.0300000000000002
 50
270.0
 51
89.9999999999999858
 73
1
 72
1
 10
-3.6999999999999997
 20
97.7299999999999329
 11
-3.8999999999999995
 21
97.7299999999999329
 72
2
 10
-3.8999999999999999
 20
97.6999999999999318
 40
0.0300000000000002
 50
89.9999999999999858
 51
270.0
 73
1
 72
1
 10
-3.8999999999999995
 20
97.6699999999999307
 11
-3.7000000000000002
 21
97.6699999999999307
 72
2
 10
-3.6999999999999997
 20
97.5999999999999233
 40
0.02
 50
0.0
 51
360.0
 73
1
 72
2
 10
-3.7999999999999998
 20
97.5999999999999233
 40
0.02
 50
0.0
 51
360.0
 73
1
 72
2
 10
-3.8999999999999999
 20
97.5999999999999233
 40
0.02
 50
0.0
 51
360.0
 73
1
 72
2
 10
-3.6999999999999997
 20
97.5999999999999233
 40
0.0300000000000002
 50
270.0
 51
89.9999999999999858
 73
1
 72
1
 10
-3.6999999999999993
 20
97.6299999999999244
 11
-3.8999999999999995
 21
97.6299999999999244
 72
2
 10
-3.8999999999999995
 20
97.5999999999999233
 40
0.0300000000000002
 50
89.9999999999999858
 51
270.0
 73
1
 72
1
 10
-3.8999999999999995
 20
97.5699999999999221
 11
-3.7000000000000002
 21
97.5699999999999221
 72
2
 10
-3.7000000000000002
 20
97.4999999999999147
 40
0.02
 50
0.0
 51
360.0
 73
1
 72
2
 10
-3.7999999999999994
 20
97.4999999999999147
 40
0.02
 50
0.0
 51
360.0
 73
1
 72
2
 10
-3.9000000000000004
 20
97.4999999999999147
 40
0.02
 50
0.0
 51
360.0
 73
1
 72
2
 10
-3.7000000000000002
 20
97.4999999999999147
 40
0.0300000000000002
 50
270.0
 51
89.9999999999999858
 73
1
 72
1
 10
-3.7000000000000002
 20
97.5299999999999159
 11
-3.8999999999999995
 21
97.5299999999999159
 72
2
 10
-3.9000000000000004
 20
97.4999999999999147
 40
0.0300000000000002
 50
89.9999999999999858
 51
270.0
 73
1
 72
1
 10
-3.8999999999999999
 20
97.4699999999999136
 11
-3.7000000000000002
 21
97.4699999999999136
 72
2
 10
-4.0
 20
98.3999999999999915
 40
0.02
 50
0.0
 51
360.0
 73
1
 72
2
 10
-4.0
 20
98.2999999999999829
 40
0.02
 50
0.0
 51
360.0
 73
1
 72
2
 10
-4.0
 20
98.1999999999999744
 40
0.02
 50
0.0
 51
360.0
 73
1
 72
2
 10
-4.0
 20
98.0999999999999659
 40
0.02
 50
0.0
 51
360.0
 73
1
 72
2
 10
-4.0
 20
97.9999999999999574
 40
0.02
 50
0.0
 51
360.0
 73
1
 72
2
 10
-4.0000000000000009
 20
97.8999999999999488
 40
0.02
 50
0.0
 51
360.0
 73
1
 72
2
 10
-4.0
 20
97.7999999999999403
 40
0.02
 50
0.0
 51
360.0
 73
1
 72
2
 10
-4.0000000000000009
 20
97.6999999999999318
 40
0.02
 50
0.0
 51
360.0
 73
1
 72
2
 10
-4.0000000000000009
 20
97.5999999999999233
 40
0.02
 50
0.0
 51
360.0
 73
1
 72
2
 10
-4.0
 20
97.4999999999999147
 40
0.02
 50
0.0
 51
360.0
 73
1
 72
2
 10
-4.0
 20
98.4000000000000057
 40
0.0300000000000002
 50
360.0
 51
180.0
 73
1
 72
1
 10
-4.0300000000000011
 20
98.4000000000000057
 11
-4.0300000000000002
 21
97.5
 72
2
 10
-4.0000000000000009
 20
97.5
 40
0.0300000000000002
 50
180.0
 51
360.0
 73
1
 72
1
 10
-3.9700000000000006
 20
97.5
 11
-3.9700000000000002
 21
98.4000000000000057
 72
2
 10
-3.7999999999999998
 20
98.5999999999999943
 40
0.02
 50
0.0
 51
360.0
 73
1
 72
2
 10
-3.6999999999999997
 20
98.5999999999999943
 40
0.02
 50
0.0
 51
360.0
 73
1
 72
2
 10
-3.5999999999999996
 20
98.5999999999999943
 40
0.02
 50
0.0
 51
360.0
 73
1
 72
2
 10
-3.4999999999999996
 20
98.5999999999999943
 40
0.02
 50
0.0
 51
360.0
 73
1
 72
2
 10
-3.3999999999999995
 20
98.5999999999999943
 40
0.02
 50
0.0
 51
360.0
 73
1
 72
2
 10
-3.2999999999999994
 20
98.5999999999999943
 40
0.02
 50
0.0
 51
360.0
 73
1
 72
2
 10
-3.1999999999999993
 20
98.5999999999999943
 40
0.02
 50
0.0
 51
360.0
 73
1
 72
2
 10
-3.9499999999999997
 20
98.5499999999999972
 40
0.0509901951359291
 50
0.0
 51
360.0
 73
1
 72
2
 10
-3.7000000000000002
 20
98.0999999999999801
 40
0.02
 50
0.0
 51
360.0
 73
1
 72
2
 10
-3.7000000000000006
 20
97.4000000000000057
 40
0.02
 50
0.0
 51
360.0
 73
1
 72
2
 10
-3.8000000000000003
 20
97.4000000000000057
 40
0.02
 50
0.0
 51
360.0
 73
1
 72
2
 10
-3.7000000000000006
 20
97.4000000000000057
 40
0.0300000000000002
 50
270.0
 51
89.9999999999999858
 73
1
 72
1
 10
-3.7000000000000002
 20
97.4300000000000068
 11
-3.7999999999999994
 21
97.4300000000000068
 72
2
 10
-3.8000000000000003
 20
97.4000000000000057
 40
0.0300000000000002
 50
89.9999999999999858
 51
270.0
 73
1
 72
1
 10
-3.7999999999999989
 20
97.3700000000000045
 11
-3.7000000000000002
 21
97.3700000000000045
 72
2
 10
-3.6000000000000001
 20
98.0999999999999659
 40
0.02
 50
0.0
 51
360.0
 73
1
 72
2
 10
-3.6000000000000005
 20
97.3999999999999204
 40
0.02
 50
0.0
 51
360.0
 73
1
 72
2
 10
-3.7999999999999994
 20
97.2999999999999972
 40
0.02
 50
0.0
 51
360.0
 73
1
 72
2
 10
-3.7000000000000002
 20
97.2999999999999972
 40
0.02
 50
0.0
 51
360.0
 73
1
 72
2
 10
-3.5999999999999996
 20
97.2999999999999972
 40
0.02
 50
0.0
 51
360.0
 73
1
 72
2
 10
-3.4999999999999996
 20
97.2999999999999972
 40
0.02
 50
0.0
 51
360.0
 73
1
 72
2
 10
-3.3999999999999999
 20
97.2999999999999972
 40
0.02
 50
0.0
 51
360.0
 73
1
 72
2
 10
-3.2999999999999994
 20
97.2999999999999972
 40
0.02
 50
0.0
 51
360.0
 73
1
 72
2
 10
-3.1999999999999993
 20
97.2999999999999972
 40
0.02
 50
0.0
 51
360.0
 73
1
 72
2
 10
-3.9500000000000002
 20
97.3499999999999943
 40
0.0509901951359291
 50
0.0
 51
360.0
 73
1
 72
2
 10
-3.5
 20
98.5
 40
0.0300000000000002
 50
360.0
 51
180.0
 73
1
 72
1
 10
-3.5300000000000002
 20
98.5
 11
-3.5300000000000007
 21
97.3999999999999915
 72
2
 10
-3.4999999999999991
 20
97.3999999999999915
 40
0.0300000000000002
 50
179.9999999999999716
 51
360.0
 73
1
 72
1
 10
-3.4699999999999998
 20
97.3999999999999915
 11
-3.4699999999999998
 21
98.5
 72
2
 10
-3.4999999999999996
 20
97.3999999999999204
 40
0.02
 50
0.0
 51
360.0
 73
1
 72
2
 10
-3.2000000000000002
 20
97.3999999999999062
 40
0.02
 50
0.0
 51
360.0
 73
1
 72
2
 10
-3.3000000000000003
 20
97.3999999999999062
 40
0.02
 50
0.0
 51
360.0
 73
1
 72
2
 10
-3.3999999999999999
 20
97.3999999999999062
 40
0.02
 50
0.0
 51
360.0
 73
1
 72
2
 10
-3.2000000000000002
 20
97.3999999999999062
 40
0.0300000000000002
 50
270.0
 51
89.9999999999999858
 73
1
 72
1
 10
-3.1999999999999997
 20
97.4299999999999073
 11
-3.3999999999999995
 21
97.4299999999999073
 72
2
 10
-3.399999999999999
 20
97.3999999999999062
 40
0.0300000000000002
 50
89.9999999999999858
 51
270.0
 73
1
 72
1
 10
-3.3999999999999995
 20
97.3699999999999051
 11
-3.1999999999999997
 21
97.3699999999999051
 97
0
 75
0
 76
1
 98
0
  0
CIRCLE
  5
84
100
AcDbEntity
100
AcDbCircle
  8
0
 62
256
370
-1
  6
ByLayer
 10
-3.1000000000000001
 20
98.5
 30
0.0
 40
0.02
  0
CIRCLE
  5
85
100
AcDbEntity
100
AcDbCircle
  8
0
 62
256
370
-1
  6
ByLayer
 10
-3.0
 20
98.5
 30
0.0
 40
0.02
  0
CIRCLE
  5
86
100
AcDbEntity
100
AcDbCircle
  8
0
 62
256
370
-1
  6
ByLayer
 10
-2.8999999999999999
 20
98.5
 30
0.0
 40
0.02
  0
ARC
  5
87
100
AcDbEntity
  8
0
 62
256
370
-1
  6
ByLayer
100
AcDbCircle
 10
-3.1000000000000001
 20
98.5
 30
0.0
 40
0.0300000000000002
100
AcDbArc
 50
90.0
 51
270.0
  0
ARC
  5
88
100
AcDbEntity
  8
0
 62
256
370
-1
  6
ByLayer
100
AcDbCircle
 10
-2.9000000000000004
 20
98.5
 30
0.0
 40
0.0300000000000002
100
AcDbArc
 50
270.0
 51
89.9999999999999858
  0
LINE
  5
89
100
AcDbEntity
100
AcDbLine
  8
0
 62
256
370
-1
  6
ByLayer
 10
-3.1000000000000001
 20
98.5300000000000011
 30
0.0
 11
-2.9000000000000004
 21
98.5300000000000011
 31
0.0
  0
LINE
  5
8A
100
AcDbEntity
100
AcDbLine
  8
0
 62
256
370
-1
  6
ByLayer
 10
-2.9000000000000004
 20
98.4699999999999989
 30
0.0
 11
-3.1000000000000001
 21
98.4699999999999989
 31
0.0
  0
CIRCLE
  5
8B
100
AcDbEntity
100
AcDbCircle
  8
0
 62
256
370
-1
  6
ByLayer
 10
-3.1000000000000001
 20
98.3999999999999915
 30
0.0
 40
0.02
  0
CIRCLE
  5
8C
100
AcDbEntity
100
AcDbCircle
  8
0
 62
256
370
-1
  6
ByLayer
 10
-3.0
 20
98.3999999999999915
 30
0.0
 40
0.02
  0
CIRCLE
  5
8D
100
AcDbEntity
100
AcDbCircle
  8
0
 62
256
370
-1
  6
ByLayer
 10
-2.8999999999999999
 20
98.3999999999999915
 30
0.0
 40
0.02
  0
ARC
  5
8E
100
AcDbEntity
  8
0
 62
256
370
-1
  6
ByLayer
100
AcDbCircle
 10
-3.1000000000000001
 20
98.3999999999999915
 30
0.0
 40
0.0300000000000002
100
AcDbArc
 50
90.0
 51
270.0
  0
ARC
  5
8F
100
AcDbEntity
  8
0
 62
256
370
-1
  6
ByLayer
100
AcDbCircle
 10
-2.9000000000000004
 20
98.3999999999999915
 30
0.0
 40
0.0300000000000002
100
AcDbArc
 50
270.0
 51
89.9999999999999858
  0
LINE
  5
90
100
AcDbEntity
100
AcDbLine
  8
0
 62
256
370
-1
  6
ByLayer
 10
-3.1000000000000001
 20
98.4299999999999926
 30
0.0
 11
-2.9000000000000004
 21
98.4299999999999926
 31
0.0
  0
LINE
  5
91
100
AcDbEntity
100
AcDbLine
  8
0
 62
256
370
-1
  6
ByLayer
 10
-2.9000000000000004
 20
98.3699999999999903
 30
0.0
 11
-3.1000000000000001
 21
98.3699999999999903
 31
0.0
  0
CIRCLE
  5
92
100
AcDbEntity
100
AcDbCircle
  8
0
 62
256
370
-1
  6
ByLayer
 10
-3.1000000000000001
 20
98.2999999999999829
 30
0.0
 40
0.02
  0
CIRCLE
  5
93
100
AcDbEntity
100
AcDbCircle
  8
0
 62
256
370
-1
  6
ByLayer
 10
-3.0
 20
98.2999999999999829
 30
0.0
 40
0.02
  0
CIRCLE
  5
94
100
AcDbEntity
100
AcDbCircle
  8
0
 62
256
370
-1
  6
ByLayer
 10
-2.8999999999999999
 20
98.2999999999999829
 30
0.0
 40
0.02
  0
ARC
  5
95
100
AcDbEntity
  8
0
 62
256
370
-1
  6
ByLayer
100
AcDbCircle
 10
-3.1000000000000001
 20
98.2999999999999829
 30
0.0
 40
0.0300000000000002
100
AcDbArc
 50
90.0
 51
270.0
  0
ARC
  5
96
100
AcDbEntity
  8
0
 62
256
370
-1
  6
ByLayer
100
AcDbCircle
 10
-2.9000000000000004
 20
98.2999999999999829
 30
0.0
 40
0.0300000000000002
100
AcDbArc
 50
270.0
 51
89.9999999999999858
  0
LINE
  5
97
100
AcDbEntity
100
AcDbLine
  8
0
 62
256
370
-1
  6
ByLayer
 10
-3.1000000000000001
 20
98.3299999999999841
 30
0.0
 11
-2.9000000000000004
 21
98.3299999999999841
 31
0.0
  0
LINE
  5
98
100
AcDbEntity
100
AcDbLine
  8
0
 62
256
370
-1
  6
ByLayer
 10
-2.9000000000000004
 20
98.2699999999999818
 30
0.0
 11
-3.1000000000000001
 21
98.2699999999999818
 31
0.0
  0
CIRCLE
  5
99
100
AcDbEntity
100
AcDbCircle
  8
0
 62
256
370
-1
  6
ByLayer
 10
-3.1000000000000001
 20
98.1999999999999744
 30
0.0
 40
0.02
  0
CIRCLE
  5
9A
100
AcDbEntity
100
AcDbCircle
  8
0
 62
256
370
-1
  6
ByLayer
 10
-3.0
 20
98.1999999999999744
 30
0.0
 40
0.02
  0
CIRCLE
  5
9B
100
AcDbEntity
100
AcDbCircle
  8
0
 62
256
370
-1
  6
ByLayer
 10
-2.8999999999999999
 20
98.1999999999999744
 30
0.0
 40
0.02
  0
ARC
  5
9C
100
AcDbEntity
  8
0
 62
256
370
-1
  6
ByLayer
100
AcDbCircle
 10
-3.1000000000000001
 20
98.1999999999999744
 30
0.0
 40
0.0300000000000002
100
AcDbArc
 50
90.0
 51
270.0
  0
ARC
  5
9D
100
AcDbEntity
  8
0
 62
256
370
-1
  6
ByLayer
100
AcDbCircle
 10
-2.9000000000000004
 20
98.1999999999999744
 30
0.0
 40
0.0300000000000002
100
AcDbArc
 50
270.0
 51
89.9999999999999858
  0
LINE
  5
9E
100
AcDbEntity
100
AcDbLine
  8
0
 62
256
370
-1
  6
ByLayer
 10
-3.1000000000000001
 20
98.2299999999999756
 30
0.0
 11
-2.9000000000000004
 21
98.2299999999999756
 31
0.0
  0
LINE
  5
9F
100
AcDbEntity
100
AcDbLine
  8
0
 62
256
370
-1
  6
ByLayer
 10
-2.9000000000000004
 20
98.1699999999999733
 30
0.0
 11
-3.1000000000000001
 21
98.1699999999999733
 31
0.0
  0
CIRCLE
  5
A0
100
AcDbEntity
100
AcDbCircle
  8
0
 62
256
370
-1
  6
ByLayer
 10
-3.1000000000000001
 20
98.0999999999999659
 30
0.0
 40
0.02
  0
CIRCLE
  5
A1
100
AcDbEntity
100
AcDbCircle
  8
0
 62
256
370
-1
  6
ByLayer
 10
-3.0
 20
98.0999999999999659
 30
0.0
 40
0.02
  0
CIRCLE
  5
A2
100
AcDbEntity
100
AcDbCircle
  8
0
 62
256
370
-1
  6
ByLayer
 10
-2.8999999999999999
 20
98.0999999999999659
 30
0.0
 40
0.02
  0
ARC
  5
A3
100
AcDbEntity
  8
0
 62
256
370
-1
  6
ByLayer
100
AcDbCircle
 10
-3.1000000000000001
 20
98.0999999999999659
 30
0.0
 40
0.0300000000000002
100
AcDbArc
 50
90.0
 51
270.0
  0
ARC
  5
A4
100
AcDbEntity
  8
0
 62
256
370
-1
  6
ByLayer
100
AcDbCircle
 10
-2.9000000000000004
 20
98.0999999999999659
 30
0.0
 40
0.0300000000000002
100
AcDbArc
 50
270.0
 51
89.9999999999999858
  0
LINE
  5
A5
100
AcDbEntity
100
AcDbLine
  8
0
 62
256
370
-1
  6
ByLayer
 10
-3.1000000000000001
 20
98.129999999999967
 30
0.0
 11
-2.9000000000000004
 21
98.129999999999967
 31
0.0
  0
LINE
  5
A6
100
AcDbEntity
100
AcDbLine
  8
0
 62
256
370
-1
  6
ByLayer
 10
-2.9000000000000004
 20
98.0699999999999648
 30
0.0
 11
-3.1000000000000001
 21
98.0699999999999648
 31
0.0
  0
CIRCLE
  5
A7
100
AcDbEntity
100
AcDbCircle
  8
0
 62
256
370
-1
  6
ByLayer
 10
-3.1000000000000001
 20
97.9999999999999574
 30
0.0
 40
0.02
  0
CIRCLE
  5
A8
100
AcDbEntity
100
AcDbCircle
  8
0
 62
256
370
-1
  6
ByLayer
 10
-3.0
 20
97.9999999999999574
 30
0.0
 40
0.02
  0
CIRCLE
  5
A9
100
AcDbEntity
100
AcDbCircle
  8
0
 62
256
370
-1
  6
ByLayer
 10
-2.8999999999999999
 20
97.9999999999999574
 30
0.0
 40
0.02
  0
ARC
  5
AA
100
AcDbEntity
  8
0
 62
256
370
-1
  6
ByLayer
100
AcDbCircle
 10
-3.1000000000000001
 20
97.9999999999999574
 30
0.0
 40
0.0300000000000002
100
AcDbArc
 50
90.0
 51
270.0
  0
ARC
  5
AB
100
AcDbEntity
  8
0
 62
256
370
-1
  6
ByLayer
100
AcDbCircle
 10
-2.9000000000000004
 20
97.9999999999999574
 30
0.0
 40
0.0300000000000002
100
AcDbArc
 50
270.0
 51
89.9999999999999858
  0
LINE
  5
AC
100
AcDbEntity
100
AcDbLine
  8
0
 62
256
370
-1
  6
ByLayer
 10
-3.1000000000000001
 20
98.0299999999999585
 30
0.0
 11
-2.9000000000000004
 21
98.0299999999999585
 31
0.0
  0
LINE
  5
AD
100
AcDbEntity
100
AcDbLine
  8
0
 62
256
370
-1
  6
ByLayer
 10
-2.9000000000000004
 20
97.9699999999999562
 30
0.0
 11
-3.1000000000000001
 21
97.9699999999999562
 31
0.0
  0
CIRCLE
  5
AE
100
AcDbEntity
100
AcDbCircle
  8
0
 62
256
370
-1
  6
ByLayer
 10
-3.1000000000000001
 20
97.8999999999999488
 30
0.0
 40
0.02
  0
CIRCLE
  5
AF
100
AcDbEntity
100
AcDbCircle
  8
0
 62
256
370
-1
  6
ByLayer
 10
-3.0
 20
97.8999999999999488
 30
0.0
 40
0.02
  0
CIRCLE
  5
B0
100
AcDbEntity
100
AcDbCircle
  8
0
 62
256
370
-1
  6
ByLayer
 10
-2.8999999999999999
 20
97.8999999999999488
 30
0.0
 40
0.02
  0
ARC
  5
B1
100
AcDbEntity
  8
0
 62
256
370
-1
  6
ByLayer
100
AcDbCircle
 10
-3.1000000000000001
 20
97.8999999999999488
 30
0.0
 40
0.0300000000000002
100
AcDbArc
 50
90.0
 51
270.0
  0
ARC
  5
B2
100
AcDbEntity
  8
0
 62
256
370
-1
  6
ByLayer
100
AcDbCircle
 10
-2.9000000000000004
 20
97.8999999999999488
 30
0.0
 40
0.0300000000000002
100
AcDbArc
 50
270.0
 51
89.9999999999999858
  0
LINE
  5
B3
100
AcDbEntity
100
AcDbLine
  8
0
 62
256
370
-1
  6
ByLayer
 10
-3.1000000000000001
 20
97.92999999999995
 30
0.0
 11
-2.9000000000000004
 21
97.92999999999995
 31
0.0
  0
LINE
  5
B4
100
AcDbEntity
100
AcDbLine
  8
0
 62
256
370
-1
  6
ByLayer
 10
-2.9000000000000004
 20
97.8699999999999477
 30
0.0
 11
-3.1000000000000001
 21
97.8699999999999477
 31
0.0
  0
CIRCLE
  5
B5
100
AcDbEntity
100
AcDbCircle
  8
0
 62
256
370
-1
  6
ByLayer
 10
-3.1000000000000001
 20
97.7999999999999403
 30
0.0
 40
0.02
  0
CIRCLE
  5
B6
100
AcDbEntity
100
AcDbCircle
  8
0
 62
256
370
-1
  6
ByLayer
 10
-3.0
 20
97.7999999999999403
 30
0.0
 40
0.02
  0
CIRCLE
  5
B7
100
AcDbEntity
100
AcDbCircle
  8
0
 62
256
370
-1
  6
ByLayer
 10
-2.8999999999999999
 20
97.7999999999999403
 30
0.0
 40
0.02
  0
ARC
  5
B8
100
AcDbEntity
  8
0
 62
256
370
-1
  6
ByLayer
100
AcDbCircle
 10
-3.1000000000000001
 20
97.7999999999999403
 30
0.0
 40
0.0300000000000002
100
AcDbArc
 50
90.0
 51
270.0
  0
ARC
  5
B9
100
AcDbEntity
  8
0
 62
256
370
-1
  6
ByLayer
100
AcDbCircle
 10
-2.9000000000000004
 20
97.7999999999999403
 30
0.0
 40
0.0300000000000002
100
AcDbArc
 50
270.0
 51
89.9999999999999858
  0
LINE
  5
BA
100
AcDbEntity
100
AcDbLine
  8
0
 62
256
370
-1
  6
ByLayer
 10
-3.1000000000000001
 20
97.8299999999999415
 30
0.0
 11
-2.9000000000000004
 21
97.8299999999999415
 31
0.0
  0
LINE
  5
BB
100
AcDbEntity
100
AcDbLine
  8
0
 62
256
370
-1
  6
ByLayer
 10
-2.9000000000000004
 20
97.7699999999999392
 30
0.0
 11
-3.1000000000000001
 21
97.7699999999999392
 31
0.0
  0
CIRCLE
  5
BC
100
AcDbEntity
100
AcDbCircle
  8
0
 62
256
370
-1
  6
ByLayer
 10
-3.1000000000000001
 20
97.6999999999999318
 30
0.0
 40
0.02
  0
CIRCLE
  5
BD
100
AcDbEntity
100
AcDbCircle
  8
0
 62
256
370
-1
  6
ByLayer
 10
-3.0
 20
97.6999999999999318
 30
0.0
 40
0.02
  0
CIRCLE
  5
BE
100
AcDbEntity
100
AcDbCircle
  8
0
 62
256
370
-1
  6
ByLayer
 10
-2.8999999999999999
 20
97.6999999999999318
 30
0.0
 40
0.02
  0
ARC
  5
BF
100
AcDbEntity
  8
0
 62
256
370
-1
  6
ByLayer
100
AcDbCircle
 10
-3.1000000000000001
 20
97.6999999999999318
 30
0.0
 40
0.0300000000000002
100
AcDbArc
 50
90.0
 51
270.0
  0
ARC
  5
C0
100
AcDbEntity
  8
0
 62
256
370
-1
  6
ByLayer
100
AcDbCircle
 10
-2.9000000000000004
 20
97.6999999999999318
 30
0.0
 40
0.0300000000000002
100
AcDbArc
 50
270.0
 51
89.9999999999999858
  0
LINE
  5
C1
100
AcDbEntity
100
AcDbLine
  8
0
 62
256
370
-1
  6
ByLayer
 10
-3.1000000000000001
 20
97.7299999999999329
 30
0.0
 11
-2.9000000000000004
 21
97.7299999999999329
 31
0.0
  0
LINE
  5
C2
100
AcDbEntity
100
AcDbLine
  8
0
 62
256
370
-1
  6
ByLayer
 10
-2.9000000000000004
 20
97.6699999999999307
 30
0.0
 11
-3.1000000000000001
 21
97.6699999999999307
 31
0.0
  0
CIRCLE
  5
C3
100
AcDbEntity
100
AcDbCircle
  8
0
 62
256
370
-1
  6
ByLayer
 10
-3.1000000000000001
 20
97.5999999999999233
 30
0.0
 40
0.02
  0
CIRCLE
  5
C4
100
AcDbEntity
100
AcDbCircle
  8
0
 62
256
370
-1
  6
ByLayer
 10
-3.0
 20
97.5999999999999233
 30
0.0
 40
0.02
  0
CIRCLE
  5
C5
100
AcDbEntity
100
AcDbCircle
  8
0
 62
256
370
-1
  6
ByLayer
 10
-2.8999999999999999
 20
97.5999999999999233
 30
0.0
 40
0.02
  0
ARC
  5
C6
100
AcDbEntity
  8
0
 62
256
370
-1
  6
ByLayer
100
AcDbCircle
 10
-3.1000000000000001
 20
97.5999999999999233
 30
0.0
 40
0.0300000000000002
100
AcDbArc
 50
90.0
 51
270.0
  0
ARC
  5
C7
100
AcDbEntity
  8
0
 62
256
370
-1
  6
ByLayer
100
AcDbCircle
 10
-2.9000000000000004
 20
97.5999999999999233
 30
0.0
 40
0.0300000000000002
100
AcDbArc
 50
270.0
 51
89.9999999999999858
  0
LINE
  5
C8
100
AcDbEntity
100
AcDbLine
  8
0
 62
256
370
-1
  6
ByLayer
 10
-3.1000000000000001
 20
97.6299999999999244
 30
0.0
 11
-2.9000000000000004
 21
97.6299999999999244
 31
0.0
  0
LINE
  5
C9
100
AcDbEntity
100
AcDbLine
  8
0
 62
256
370
-1
  6
ByLayer
 10
-2.9000000000000004
 20
97.5699999999999221
 30
0.0
 11
-3.1000000000000001
 21
97.5699999999999221
 31
0.0
  0
CIRCLE
  5
CA
100
AcDbEntity
100
AcDbCircle
  8
0
 62
256
370
-1
  6
ByLayer
 10
-3.1000000000000001
 20
97.4999999999999147
 30
0.0
 40
0.02
  0
CIRCLE
  5
CB
100
AcDbEntity
100
AcDbCircle
  8
0
 62
256
370
-1
  6
ByLayer
 10
-3.0
 20
97.4999999999999147
 30
0.0
 40
0.02
  0
CIRCLE
  5
CC
100
AcDbEntity
100
AcDbCircle
  8
0
 62
256
370
-1
  6
ByLayer
 10
-2.8999999999999999
 20
97.4999999999999147
 30
0.0
 40
0.02
  0
ARC
  5
CD
100
AcDbEntity
  8
0
 62
256
370
-1
  6
ByLayer
100
AcDbCircle
 10
-3.1000000000000001
 20
97.4999999999999147
 30
0.0
 40
0.0300000000000002
100
AcDbArc
 50
90.0
 51
270.0
  0
ARC
  5
CE
100
AcDbEntity
  8
0
 62
256
370
-1
  6
ByLayer
100
AcDbCircle
 10
-2.9000000000000004
 20
97.4999999999999147
 30
0.0
 40
0.0300000000000002
100
AcDbArc
 50
270.0
 51
89.9999999999999858
  0
LINE
  5
CF
100
AcDbEntity
100
AcDbLine
  8
0
 62
256
370
-1
  6
ByLayer
 10
-3.1000000000000001
 20
97.5299999999999159
 30
0.0
 11
-2.9000000000000004
 21
97.5299999999999159
 31
0.0
  0
LINE
  5
D0
100
AcDbEntity
100
AcDbLine
  8
0
 62
256
370
-1
  6
ByLayer
 10
-2.9000000000000004
 20
97.4699999999999136
 30
0.0
 11
-3.1000000000000001
 21
97.4699999999999136
 31
0.0
  0
CIRCLE
  5
D1
100
AcDbEntity
100
AcDbCircle
  8
0
 62
256
370
-1
  6
ByLayer
 10
-2.7999999999999998
 20
98.5
 30
0.0
 40
0.02
  0
CIRCLE
  5
D2
100
AcDbEntity
100
AcDbCircle
  8
0
 62
256
370
-1
  6
ByLayer
 10
-2.7999999999999998
 20
98.3999999999999915
 30
0.0
 40
0.02
  0
CIRCLE
  5
D3
100
AcDbEntity
100
AcDbCircle
  8
0
 62
256
370
-1
  6
ByLayer
 10
-2.7999999999999998
 20
98.2999999999999829
 30
0.0
 40
0.02
  0
CIRCLE
  5
D4
100
AcDbEntity
100
AcDbCircle
  8
0
 62
256
370
-1
  6
ByLayer
 10
-2.7999999999999998
 20
98.1999999999999744
 30
0.0
 40
0.02
  0
CIRCLE
  5
D5
100
AcDbEntity
100
AcDbCircle
  8
0
 62
256
370
-1
  6
ByLayer
 10
-2.7999999999999998
 20
98.0999999999999659
 30
0.0
 40
0.02
  0
CIRCLE
  5
D6
100
AcDbEntity
100
AcDbCircle
  8
0
 62
256
370
-1
  6
ByLayer
 10
-2.7999999999999998
 20
97.9999999999999574
 30
0.0
 40
0.02
  0
CIRCLE
  5
D7
100
AcDbEntity
100
AcDbCircle
  8
0
 62
256
370
-1
  6
ByLayer
 10
-2.7999999999999998
 20
97.8999999999999488
 30
0.0
 40
0.02
  0
CIRCLE
  5
D8
100
AcDbEntity
100
AcDbCircle
  8
0
 62
256
370
-1
  6
ByLayer
 10
-2.7999999999999998
 20
97.7999999999999403
 30
0.0
 40
0.02
  0
CIRCLE
  5
D9
100
AcDbEntity
100
AcDbCircle
  8
0
 62
256
370
-1
  6
ByLayer
 10
-2.7999999999999998
 20
97.6999999999999318
 30
0.0
 40
0.02
  0
CIRCLE
  5
DA
100
AcDbEntity
100
AcDbCircle
  8
0
 62
256
370
-1
  6
ByLayer
 10
-2.7999999999999998
 20
97.5999999999999233
 30
0.0
 40
0.02
  0
CIRCLE
  5
DB
100
AcDbEntity
100
AcDbCircle
  8
0
 62
256
370
-1
  6
ByLayer
 10
-2.7999999999999998
 20
97.4999999999999147
 30
0.0
 40
0.02
  0
CIRCLE
  5
DC
100
AcDbEntity
100
AcDbCircle
  8
0
 62
256
370
-1
  6
ByLayer
 10
-2.6999999999999997
 20
98.5
 30
0.0
 40
0.02
  0
CIRCLE
  5
DD
100
AcDbEntity
100
AcDbCircle
  8
0
 62
256
370
-1
  6
ByLayer
 10
-2.6999999999999997
 20
98.3999999999999915
 30
0.0
 40
0.02
  0
CIRCLE
  5
DE
100
AcDbEntity
100
AcDbCircle
  8
0
 62
256
370
-1
  6
ByLayer
 10
-2.6999999999999997
 20
98.2999999999999829
 30
0.0
 40
0.02
  0
CIRCLE
  5
DF
100
AcDbEntity
100
AcDbCircle
  8
0
 62
256
370
-1
  6
ByLayer
 10
-2.6999999999999997
 20
98.1999999999999744
 30
0.0
 40
0.02
  0
CIRCLE
  5
E0
100
AcDbEntity
100
AcDbCircle
  8
0
 62
256
370
-1
  6
ByLayer
 10
-2.6999999999999997
 20
97.9999999999999574
 30
0.0
 40
0.02
  0
CIRCLE
  5
E1
100
AcDbEntity
100
AcDbCircle
  8
0
 62
256
370
-1
  6
ByLayer
 10
-2.6999999999999997
 20
97.8999999999999488
 30
0.0
 40
0.02
  0
CIRCLE
  5
E2
100
AcDbEntity
100
AcDbCircle
  8
0
 62
256
370
-1
  6
ByLayer
 10
-2.6999999999999997
 20
97.7999999999999403
 30
0.0
 40
0.02
  0
CIRCLE
  5
E3
100
AcDbEntity
100
AcDbCircle
  8
0
 62
256
370
-1
  6
ByLayer
 10
-2.6999999999999997
 20
97.6999999999999318
 30
0.0
 40
0.02
  0
CIRCLE
  5
E4
100
AcDbEntity
100
AcDbCircle
  8
0
 62
256
370
-1
  6
ByLayer
 10
-2.6999999999999997
 20
97.5999999999999233
 30
0.0
 40
0.02
  0
CIRCLE
  5
E5
100
AcDbEntity
100
AcDbCircle
  8
0
 62
256
370
-1
  6
ByLayer
 10
-2.6999999999999997
 20
97.4999999999999147
 30
0.0
 40
0.02
  0
ARC
  5
E6
100
AcDbEntity
  8
0
 62
256
370
-1
  6
ByLayer
100
AcDbCircle
 10
-2.6999999999999997
 20
98.5
 30
0.0
 40
0.0300000000000002
100
AcDbArc
 50
360.0
 51
180.0
  0
CIRCLE
  5
E7
100
AcDbEntity
100
AcDbCircle
  8
0
 62
256
370
-1
  6
ByLayer
 10
-2.6000000000000001
 20
98.5
 30
0.0
 40
0.02
  0
CIRCLE
  5
E8
100
AcDbEntity
100
AcDbCircle
  8
0
 62
256
370
-1
  6
ByLayer
 10
-2.5
 20
98.5
 30
0.0
 40
0.02
  0
ARC
  5
E9
100
AcDbEntity
  8
0
 62
256
370
-1
  6
ByLayer
100
AcDbCircle
 10
-2.6000000000000001
 20
98.5
 30
0.0
 40
0.0300000000000002
100
AcDbArc
 50
90.0
 51
270.0
  0
CIRCLE
  5
EA
100
AcDbEntity
100
AcDbCircle
  8
0
 62
256
370
-1
  6
ByLayer
 10
-2.6000000000000001
 20
98.3999999999999915
 30
0.0
 40
0.02
  0
CIRCLE
  5
EB
100
AcDbEntity
100
AcDbCircle
  8
0
 62
256
370
-1
  6
ByLayer
 10
-2.5
 20
98.3999999999999915
 30
0.0
 40
0.02
  0
CIRCLE
  5
EC
100
AcDbEntity
100
AcDbCircle
  8
0
 62
256
370
-1
  6
ByLayer
 10
-2.3999999999999999
 20
98.3999999999999915
 30
0.0
 40
0.02
  0
ARC
  5
ED
100
AcDbEntity
  8
0
 62
256
370
-1
  6
ByLayer
100
AcDbCircle
 10
-2.6000000000000001
 20
98.3999999999999915
 30
0.0
 40
0.0300000000000002
100
AcDbArc
 50
90.0
 51
270.0
  0
ARC
  5
EE
100
AcDbEntity
  8
0
 62
256
370
-1
  6
ByLayer
100
AcDbCircle
 10
-2.4000000000000004
 20
98.3999999999999915
 30
0.0
 40
0.0300000000000002
100
AcDbArc
 50
270.0
 51
89.9999999999999858
  0
LINE
  5
EF
100
AcDbEntity
100
AcDbLine
  8
0
 62
256
370
-1
  6
ByLayer
 10
-2.6000000000000001
 20
98.4299999999999926
 30
0.0
 11
-2.4000000000000004
 21
98.4299999999999926
 31
0.0
  0
LINE
  5
F0
100
AcDbEntity
100
AcDbLine
  8
0
 62
256
370
-1
  6
ByLayer
 10
-2.4000000000000004
 20
98.3699999999999903
 30
0.0
 11
-2.6000000000000001
 21
98.3699999999999903
 31
0.0
  0
CIRCLE
  5
F1
100
AcDbEntity
100
AcDbCircle
  8
0
 62
256
370
-1
  6
ByLayer
 10
-2.6000000000000001
 20
98.2999999999999829
 30
0.0
 40
0.02
  0
CIRCLE
  5
F2
100
AcDbEntity
100
AcDbCircle
  8
0
 62
256
370
-1
  6
ByLayer
 10
-2.5
 20
98.2999999999999829
 30
0.0
 40
0.02
  0
CIRCLE
  5
F3
100
AcDbEntity
100
AcDbCircle
  8
0
 62
256
370
-1
  6
ByLayer
 10
-2.3999999999999999
 20
98.2999999999999829
 30
0.0
 40
0.02
  0
ARC
  5
F4
100
AcDbEntity
  8
0
 62
256
370
-1
  6
ByLayer
100
AcDbCircle
 10
-2.6000000000000001
 20
98.2999999999999829
 30
0.0
 40
0.0300000000000002
100
AcDbArc
 50
90.0
 51
270.0
  0
ARC
  5
F5
100
AcDbEntity
  8
0
 62
256
370
-1
  6
ByLayer
100
AcDbCircle
 10
-2.4000000000000004
 20
98.2999999999999829
 30
0.0
 40
0.0300000000000002
100
AcDbArc
 50
270.0
 51
89.9999999999999858
  0
LINE
  5
F6
100
AcDbEntity
100
AcDbLine
  8
0
 62
256
370
-1
  6
ByLayer
 10
-2.6000000000000001
 20
98.3299999999999841
 30
0.0
 11
-2.4000000000000004
 21
98.3299999999999841
 31
0.0
  0
LINE
  5
F7
100
AcDbEntity
100
AcDbLine
  8
0
 62
256
370
-1
  6
ByLayer
 10
-2.4000000000000004
 20
98.2699999999999818
 30
0.0
 11
-2.6000000000000001
 21
98.2699999999999818
 31
0.0
  0
CIRCLE
  5
F8
100
AcDbEntity
100
AcDbCircle
  8
0
 62
256
370
-1
  6
ByLayer
 10
-2.6000000000000001
 20
98.1999999999999744
 30
0.0
 40
0.02
  0
CIRCLE
  5
F9
100
AcDbEntity
100
AcDbCircle
  8
0
 62
256
370
-1
  6
ByLayer
 10
-2.5
 20
98.1999999999999744
 30
0.0
 40
0.02
  0
CIRCLE
  5
FA
100
AcDbEntity
100
AcDbCircle
  8
0
 62
256
370
-1
  6
ByLayer
 10
-2.3999999999999999
 20
98.1999999999999744
 30
0.0
 40
0.02
  0
ARC
  5
FB
100
AcDbEntity
  8
0
 62
256
370
-1
  6
ByLayer
100
AcDbCircle
 10
-2.6000000000000001
 20
98.1999999999999744
 30
0.0
 40
0.0300000000000002
100
AcDbArc
 50
90.0
 51
270.0
  0
ARC
  5
FC
100
AcDbEntity
  8
0
 62
256
370
-1
  6
ByLayer
100
AcDbCircle
 10
-2.4000000000000004
 20
98.1999999999999744
 30
0.0
 40
0.0300000000000002
100
AcDbArc
 50
270.0
 51
89.9999999999999858
  0
LINE
  5
FD
100
AcDbEntity
100
AcDbLine
  8
0
 62
256
370
-1
  6
ByLayer
 10
-2.6000000000000001
 20
98.2299999999999756
 30
0.0
 11
-2.4000000000000004
 21
98.2299999999999756
 31
0.0
  0
LINE
  5
FE
100
AcDbEntity
100
AcDbLine
  8
0
 62
256
370
-1
  6
ByLayer
 10
-2.4000000000000004
 20
98.1699999999999733
 30
0.0
 11
-2.6000000000000001
 21
98.1699999999999733
 31
0.0
  0
CIRCLE
  5
FF
100
AcDbEntity
100
AcDbCircle
  8
0
 62
256
370
-1
  6
ByLayer
 10
-2.5
 20
98.0999999999999659
 30
0.0
 40
0.02
  0
CIRCLE
  5
100
100
AcDbEntity
100
AcDbCircle
  8
0
 62
256
370
-1
  6
ByLayer
 10
-2.3999999999999999
 20
98.0999999999999659
 30
0.0
 40
0.02
  0
ARC
  5
101
100
AcDbEntity
  8
0
 62
256
370
-1
  6
ByLayer
100
AcDbCircle
 10
-2.4000000000000004
 20
98.0999999999999659
 30
0.0
 40
0.0300000000000002
100
AcDbArc
 50
270.0
 51
89.9999999999999858
  0
LINE
  5
102
100
AcDbEntity
100
AcDbLine
  8
0
 62
256
370
-1
  6
ByLayer
 10
-2.6000000000000001
 20
98.129999999999967
 30
0.0
 11
-2.4000000000000004
 21
98.129999999999967
 31
0.0
  0
LINE
  5
103
100
AcDbEntity
100
AcDbLine
  8
0
 62
256
370
-1
  6
ByLayer
 10
-2.4000000000000004
 20
98.0699999999999648
 30
0.0
 11
-2.6000000000000001
 21
98.0699999999999648
 31
0.0
  0
CIRCLE
  5
104
100
AcDbEntity
100
AcDbCircle
  8
0
 62
256
370
-1
  6
ByLayer
 10
-2.6000000000000001
 20
97.9999999999999574
 30
0.0
 40
0.02
  0
CIRCLE
  5
105
100
AcDbEntity
100
AcDbCircle
  8
0
 62
256
370
-1
  6
ByLayer
 10
-2.5
 20
97.9999999999999574
 30
0.0
 40
0.02
  0
CIRCLE
  5
106
100
AcDbEntity
100
AcDbCircle
  8
0
 62
256
370
-1
  6
ByLayer
 10
-2.3999999999999999
 20
97.9999999999999574
 30
0.0
 40
0.02
  0
ARC
  5
107
100
AcDbEntity
  8
0
 62
256
370
-1
  6
ByLayer
100
AcDbCircle
 10
-2.6000000000000001
 20
97.9999999999999574
 30
0.0
 40
0.0300000000000002
100
AcDbArc
 50
90.0
 51
270.0
  0
ARC
  5
108
100
AcDbEntity
  8
0
 62
256
370
-1
  6
ByLayer
100
AcDbCircle
 10
-2.4000000000000004
 20
97.9999999999999574
 30
0.0
 40
0.0300000000000002
100
AcDbArc
 50
270.0
 51
89.9999999999999858
  0
LINE
  5
109
100
AcDbEntity
100
AcDbLine
  8
0
 62
256
370
-1
  6
ByLayer
 10
-2.6000000000000001
 20
98.0299999999999585
 30
0.0
 11
-2.4000000000000004
 21
98.0299999999999585
 31
0.0
  0
LINE
  5
10A
100
AcDbEntity
100
AcDbLine
  8
0
 62
256
370
-1
  6
ByLayer
 10
-2.4000000000000004
 20
97.9699999999999562
 30
0.0
 11
-2.6000000000000001
 21
97.9699999999999562
 31
0.0
  0
CIRCLE
  5
10B
100
AcDbEntity
100
AcDbCircle
  8
0
 62
256
370
-1
  6
ByLayer
 10
-2.6000000000000001
 20
97.8999999999999488
 30
0.0
 40
0.02
  0
CIRCLE
  5
10C
100
AcDbEntity
100
AcDbCircle
  8
0
 62
256
370
-1
  6
ByLayer
 10
-2.5
 20
97.8999999999999488
 30
0.0
 40
0.02
  0
CIRCLE
  5
10D
100
AcDbEntity
100
AcDbCircle
  8
0
 62
256
370
-1
  6
ByLayer
 10
-2.3999999999999999
 20
97.8999999999999488
 30
0.0
 40
0.02
  0
ARC
  5
10E
100
AcDbEntity
  8
0
 62
256
370
-1
  6
ByLayer
100
AcDbCircle
 10
-2.6000000000000001
 20
97.8999999999999488
 30
0.0
 40
0.0300000000000002
100
AcDbArc
 50
90.0
 51
270.0
  0
ARC
  5
10F
100
AcDbEntity
  8
0
 62
256
370
-1
  6
ByLayer
100
AcDbCircle
 10
-2.4000000000000004
 20
97.8999999999999488
 30
0.0
 40
0.0300000000000002
100
AcDbArc
 50
270.0
 51
89.9999999999999858
  0
LINE
  5
110
100
AcDbEntity
100
AcDbLine
  8
0
 62
256
370
-1
  6
ByLayer
 10
-2.6000000000000001
 20
97.92999999999995
 30
0.0
 11
-2.4000000000000004
 21
97.92999999999995
 31
0.0
  0
LINE
  5
111
100
AcDbEntity
100
AcDbLine
  8
0
 62
256
370
-1
  6
ByLayer
 10
-2.4000000000000004
 20
97.8699999999999477
 30
0.0
 11
-2.6000000000000001
 21
97.8699999999999477
 31
0.0
  0
CIRCLE
  5
112
100
AcDbEntity
100
AcDbCircle
  8
0
 62
256
370
-1
  6
ByLayer
 10
-2.6000000000000001
 20
97.7999999999999403
 30
0.0
 40
0.02
  0
CIRCLE
  5
113
100
AcDbEntity
100
AcDbCircle
  8
0
 62
256
370
-1
  6
ByLayer
 10
-2.5
 20
97.7999999999999403
 30
0.0
 40
0.02
  0
CIRCLE
  5
114
100
AcDbEntity
100
AcDbCircle
  8
0
 62
256
370
-1
  6
ByLayer
 10
-2.3999999999999999
 20
97.7999999999999403
 30
0.0
 40
0.02
  0
ARC
  5
115
100
AcDbEntity
  8
0
 62
256
370
-1
  6
ByLayer
100
AcDbCircle
 10
-2.6000000000000001
 20
97.7999999999999403
 30
0.0
 40
0.0300000000000002
100
AcDbArc
 50
90.0
 51
270.0
  0
ARC
  5
116
100
AcDbEntity
  8
0
 62
256
370
-1
  6
ByLayer
100
AcDbCircle
 10
-2.4000000000000004
 20
97.7999999999999403
 30
0.0
 40
0.0300000000000002
100
AcDbArc
 50
270.0
 51
89.9999999999999858
  0
LINE
  5
117
100
AcDbEntity
100
AcDbLine
  8
0
 62
256
370
-1
  6
ByLayer
 10
-2.6000000000000001
 20
97.8299999999999415
 30
0.0
 11
-2.4000000000000004
 21
97.8299999999999415
 31
0.0
  0
LINE
  5
118
100
AcDbEntity
100
AcDbLine
  8
0
 62
256
370
-1
  6
ByLayer
 10
-2.4000000000000004
 20
97.7699999999999392
 30
0.0
 11
-2.6000000000000001
 21
97.7699999999999392
 31
0.0
  0
CIRCLE
  5
119
100
AcDbEntity
100
AcDbCircle
  8
0
 62
256
370
-1
  6
ByLayer
 10
-2.6000000000000001
 20
97.6999999999999318
 30
0.0
 40
0.02
  0
CIRCLE
  5
11A
100
AcDbEntity
100
AcDbCircle
  8
0
 62
256
370
-1
  6
ByLayer
 10
-2.5
 20
97.6999999999999318
 30
0.0
 40
0.02
  0
CIRCLE
  5
11B
100
AcDbEntity
100
AcDbCircle
  8
0
 62
256
370
-1
  6
ByLayer
 10
-2.3999999999999999
 20
97.6999999999999318
 30
0.0
 40
0.02
  0
ARC
  5
11C
100
AcDbEntity
  8
0
 62
256
370
-1
  6
ByLayer
100
AcDbCircle
 10
-2.6000000000000001
 20
97.6999999999999318
 30
0.0
 40
0.0300000000000002
100
AcDbArc
 50
90.0
 51
270.0
  0
ARC
  5
11D
100
AcDbEntity
  8
0
 62
256
370
-1
  6
ByLayer
100
AcDbCircle
 10
-2.4000000000000004
 20
97.6999999999999318
 30
0.0
 40
0.0300000000000002
100
AcDbArc
 50
270.0
 51
89.9999999999999858
  0
LINE
  5
11E
100
AcDbEntity
100
AcDbLine
  8
0
 62
256
370
-1
  6
ByLayer
 10
-2.6000000000000001
 20
97.7299999999999329
 30
0.0
 11
-2.4000000000000004
 21
97.7299999999999329
 31
0.0
  0
LINE
  5
11F
100
AcDbEntity
100
AcDbLine
  8
0
 62
256
370
-1
  6
ByLayer
 10
-2.4000000000000004
 20
97.6699999999999307
 30
0.0
 11
-2.6000000000000001
 21
97.6699999999999307
 31
0.0
  0
CIRCLE
  5
120
100
AcDbEntity
100
AcDbCircle
  8
0
 62
256
370
-1
  6
ByLayer
 10
-2.6000000000000001
 20
97.5999999999999233
 30
0.0
 40
0.02
  0
CIRCLE
  5
121
100
AcDbEntity
100
AcDbCircle
  8
0
 62
256
370
-1
  6
ByLayer
 10
-2.5
 20
97.5999999999999233
 30
0.0
 40
0.02
  0
CIRCLE
  5
122
100
AcDbEntity
100
AcDbCircle
  8
0
 62
256
370
-1
  6
ByLayer
 10
-2.3999999999999999
 20
97.5999999999999233
 30
0.0
 40
0.02
  0
ARC
  5
123
100
AcDbEntity
  8
0
 62
256
370
-1
  6
ByLayer
100
AcDbCircle
 10
-2.6000000000000001
 20
97.5999999999999233
 30
0.0
 40
0.0300000000000002
100
AcDbArc
 50
90.0
 51
270.0
  0
ARC
  5
124
100
AcDbEntity
  8
0
 62
256
370
-1
  6
ByLayer
100
AcDbCircle
 10
-2.4000000000000004
 20
97.5999999999999233
 30
0.0
 40
0.0300000000000002
100
AcDbArc
 50
270.0
 51
89.9999999999999858
  0
LINE
  5
125
100
AcDbEntity
100
AcDbLine
  8
0
 62
256
370
-1
  6
ByLayer
 10
-2.6000000000000001
 20
97.6299999999999244
 30
0.0
 11
-2.4000000000000004
 21
97.6299999999999244
 31
0.0
  0
LINE
  5
126
100
AcDbEntity
100
AcDbLine
  8
0
 62
256
370
-1
  6
ByLayer
 10
-2.4000000000000004
 20
97.5699999999999221
 30
0.0
 11
-2.6000000000000001
 21
97.5699999999999221
 31
0.0
  0
CIRCLE
  5
127
100
AcDbEntity
100
AcDbCircle
  8
0
 62
256
370
-1
  6
ByLayer
 10
-2.6000000000000001
 20
97.4999999999999147
 30
0.0
 40
0.02
  0
CIRCLE
  5
128
100
AcDbEntity
100
AcDbCircle
  8
0
 62
256
370
-1
  6
ByLayer
 10
-2.5
 20
97.4999999999999147
 30
0.0
 40
0.02
  0
CIRCLE
  5
129
100
AcDbEntity
100
AcDbCircle
  8
0
 62
256
370
-1
  6
ByLayer
 10
-2.3999999999999999
 20
97.4999999999999147
 30
0.0
 40
0.02
  0
ARC
  5
12A
100
AcDbEntity
  8
0
 62
256
370
-1
  6
ByLayer
100
AcDbCircle
 10
-2.6000000000000001
 20
97.4999999999999147
 30
0.0
 40
0.0300000000000002
100
AcDbArc
 50
90.0
 51
270.0
  0
ARC
  5
12B
100
AcDbEntity
  8
0
 62
256
370
-1
  6
ByLayer
100
AcDbCircle
 10
-2.4000000000000004
 20
97.4999999999999147
 30
0.0
 40
0.0300000000000002
100
AcDbArc
 50
270.0
 51
89.9999999999999858
  0
LINE
  5
12C
100
AcDbEntity
100
AcDbLine
  8
0
 62
256
370
-1
  6
ByLayer
 10
-2.6000000000000001
 20
97.5299999999999159
 30
0.0
 11
-2.4000000000000004
 21
97.5299999999999159
 31
0.0
  0
LINE
  5
12D
100
AcDbEntity
100
AcDbLine
  8
0
 62
256
370
-1
  6
ByLayer
 10
-2.4000000000000004
 20
97.4699999999999136
 30
0.0
 11
-2.6000000000000001
 21
97.4699999999999136
 31
0.0
  0
ARC
  5
12E
100
AcDbEntity
  8
0
 62
256
370
-1
  6
ByLayer
100
AcDbCircle
 10
-2.5000000000000004
 20
98.5
 30
0.0
 40
0.0300000000000002
100
AcDbArc
 50
270.0
 51
89.9999999999999858
  0
LINE
  5
12F
100
AcDbEntity
100
AcDbLine
  8
0
 62
256
370
-1
  6
ByLayer
 10
-2.6000000000000001
 20
98.5300000000000011
 30
0.0
 11
-2.5000000000000004
 21
98.5300000000000011
 31
0.0
  0
LINE
  5
130
100
AcDbEntity
100
AcDbLine
  8
0
 62
256
370
-1
  6
ByLayer
 10
-2.5000000000000004
 20
98.4699999999999989
 30
0.0
 11
-2.6000000000000001
 21
98.4699999999999989
 31
0.0
  0
CIRCLE
  5
131
100
AcDbEntity
100
AcDbCircle
  8
0
 62
256
370
-1
  6
ByLayer
 10
-2.2999999999999994
 20
98.3999999999999915
 30
0.0
 40
0.02
  0
CIRCLE
  5
132
100
AcDbEntity
100
AcDbCircle
  8
0
 62
256
370
-1
  6
ByLayer
 10
-2.2999999999999994
 20
98.2999999999999829
 30
0.0
 40
0.02
  0
CIRCLE
  5
133
100
AcDbEntity
100
AcDbCircle
  8
0
 62
256
370
-1
  6
ByLayer
 10
-2.2999999999999994
 20
98.1999999999999744
 30
0.0
 40
0.02
  0
CIRCLE
  5
134
100
AcDbEntity
100
AcDbCircle
  8
0
 62
256
370
-1
  6
ByLayer
 10
-2.2999999999999994
 20
98.0999999999999659
 30
0.0
 40
0.02
  0
CIRCLE
  5
135
100
AcDbEntity
100
AcDbCircle
  8
0
 62
256
370
-1
  6
ByLayer
 10
-2.2999999999999994
 20
97.9999999999999574
 30
0.0
 40
0.02
  0
CIRCLE
  5
136
100
AcDbEntity
100
AcDbCircle
  8
0
 62
256
370
-1
  6
ByLayer
 10
-2.2999999999999994
 20
97.8999999999999488
 30
0.0
 40
0.02
  0
CIRCLE
  5
137
100
AcDbEntity
100
AcDbCircle
  8
0
 62
256
370
-1
  6
ByLayer
 10
-2.2999999999999994
 20
97.7999999999999403
 30
0.0
 40
0.02
  0
CIRCLE
  5
138
100
AcDbEntity
100
AcDbCircle
  8
0
 62
256
370
-1
  6
ByLayer
 10
-2.2999999999999994
 20
97.6999999999999318
 30
0.0
 40
0.02
  0
CIRCLE
  5
139
100
AcDbEntity
100
AcDbCircle
  8
0
 62
256
370
-1
  6
ByLayer
 10
-2.2999999999999994
 20
97.5999999999999233
 30
0.0
 40
0.02
  0
CIRCLE
  5
13A
100
AcDbEntity
100
AcDbCircle
  8
0
 62
256
370
-1
  6
ByLayer
 10
-2.2999999999999994
 20
97.4999999999999147
 30
0.0
 40
0.02
  0
ARC
  5
13B
100
AcDbEntity
  8
0
 62
256
370
-1
  6
ByLayer
100
AcDbCircle
 10
-2.2999999999999994
 20
98.4000000000000057
 30
0.0
 40
0.0300000000000002
100
AcDbArc
 50
360.0
 51
180.0
  0
CIRCLE
  5
13C
100
AcDbEntity
100
AcDbCircle
  8
0
 62
256
370
-1
  6
ByLayer
 10
-2.5
 20
98.5999999999999943
 30
0.0
 40
0.02
  0
CIRCLE
  5
13D
100
AcDbEntity
100
AcDbCircle
  8
0
 62
256
370
-1
  6
ByLayer
 10
-2.6000000000000001
 20
98.5999999999999943
 30
0.0
 40
0.02
  0
CIRCLE
  5
13E
100
AcDbEntity
100
AcDbCircle
  8
0
 62
256
370
-1
  6
ByLayer
 10
-2.7000000000000002
 20
98.5999999999999943
 30
0.0
 40
0.02
  0
CIRCLE
  5
13F
100
AcDbEntity
100
AcDbCircle
  8
0
 62
256
370
-1
  6
ByLayer
 10
-2.8000000000000003
 20
98.5999999999999943
 30
0.0
 40
0.02
  0
CIRCLE
  5
140
100
AcDbEntity
100
AcDbCircle
  8
0
 62
256
370
-1
  6
ByLayer
 10
-2.9000000000000004
 20
98.5999999999999943
 30
0.0
 40
0.02
  0
CIRCLE
  5
141
100
AcDbEntity
100
AcDbCircle
  8
0
 62
256
370
-1
  6
ByLayer
 10
-3.0000000000000004
 20
98.5999999999999943
 30
0.0
 40
0.02
  0
CIRCLE
  5
142
100
AcDbEntity
100
AcDbCircle
  8
0
 62
256
370
-1
  6
ByLayer
 10
-3.1000000000000005
 20
98.5999999999999943
 30
0.0
 40
0.02
  0
ARC
  5
143
100
AcDbEntity
  8
0
 62
256
370
-1
  6
ByLayer
100
AcDbCircle
 10
-2.5000000000000004
 20
98.6000000000000085
 30
0.0
 40
0.0300000000000002
100
AcDbArc
 50
270.0
 51
89.9999999999999858
  0
LINE
  5
144
100
AcDbEntity
100
AcDbLine
  8
0
 62
256
370
-1
  6
ByLayer
 10
-2.5
 20
98.6299999999999812
 30
0.0
 11
-3.1499999999999999
 21
98.6299999999999812
 31
0.0
  0
LINE
  5
145
100
AcDbEntity
100
AcDbLine
  8
0
 62
256
370
-1
  6
ByLayer
 10
-2.5
 20
98.5699999999999932
 30
0.0
 11
-3.1499999999999999
 21
98.5699999999999932
 31
0.0
  0
CIRCLE
  5
146
100
AcDbEntity
100
AcDbCircle
  8
0
 62
256
370
-1
  6
ByLayer
 10
-2.3500000000000001
 20
98.5499999999999972
 30
0.0
 40
0.0509901951359291
  0
LINE
  5
147
100
AcDbEntity
100
AcDbLine
  8
Elementy
 62
256
370
-1
  6
ByLayer
 10
-2.4399999999999999
 20
98.1500000000000057
 30
0.0
 11
-2.4399999999999999
 21
97.6500000000000057
 31
0.0
  0
LINE
  5
148
100
AcDbEntity
100
AcDbLine
  8
Elementy
 62
256
370
-1
  6
ByLayer
 10
-2.4399999999999999
 20
97.6500000000000057
 30
0.0
 11
-2.0999999999999996
 21
97.6500000000000057
 31
0.0
  0
LINE
  5
149
100
AcDbEntity
100
AcDbLine
  8
Elementy
 62
256
370
-1
  6
ByLayer
 10
-2.0999999999999996
 20
97.6500000000000057
 30
0.0
 11
-2.0999999999999996
 21
98.1500000000000057
 31
0.0
  0
LINE
  5
14A
100
AcDbEntity
100
AcDbLine
  8
Elementy
 62
256
370
-1
  6
ByLayer
 10
-2.0999999999999996
 20
98.1500000000000057
 30
0.0
 11
-2.4399999999999999
 21
98.1500000000000057
 31
0.0
  0
LINE
  5
14B
100
AcDbEntity
100
AcDbLine
  8
Elementy
 62
256
370
-1
  6
ByLayer
 10
-3.9500000000000002
 20
97.8999999999999915
 30
0.0
 11
-3.9500000000000002
 21
98.1499999999999915
 31
0.0
  0
LINE
  5
14C
100
AcDbEntity
100
AcDbLine
  8
Elementy
 62
256
370
-1
  6
ByLayer
 10
-3.9500000000000002
 20
98.1499999999999915
 30
0.0
 11
-3.8500000000000001
 21
98.1499999999999915
 31
0.0
  0
LINE
  5
14D
100
AcDbEntity
100
AcDbLine
  8
Elementy
 62
256
370
-1
  6
ByLayer
 10
-3.8500000000000001
 20
98.1499999999999915
 30
0.0
 11
-3.8500000000000001
 21
97.6499999999999915
 31
0.0
  0
LINE
  5
14E
100
AcDbEntity
100
AcDbLine
  8
Elementy
 62
256
370
-1
  6
ByLayer
 10
-3.8500000000000001
 20
97.6499999999999915
 30
0.0
 11
-3.9500000000000002
 21
97.6499999999999915
 31
0.0
  0
LINE
  5
14F
100
AcDbEntity
100
AcDbLine
  8
Elementy
 62
256
370
-1
  6
ByLayer
 10
-3.9500000000000002
 20
97.6499999999999915
 30
0.0
 11
-3.9500000000000002
 21
97.8999999999999915
 31
0.0
  0
CIRCLE
  5
150
100
AcDbEntity
100
AcDbCircle
  8
Punkty
 62
256
370
-1
  6
ByLayer
 10
-2.4000000000000004
 20
98.0999999999999943
 30
0.0
 40
0.04
  0
CIRCLE
  5
151
100
AcDbEntity
100
AcDbCircle
  8
Punkty
 62
256
370
-1
  6
ByLayer
 10
-2.4000000000000004
 20
98.0
 30
0.0
 40
0.04
  0
CIRCLE
  5
152
100
AcDbEntity
100
AcDbCircle
  8
Punkty
 62
256
370
-1
  6
ByLayer
 10
-2.4000000000000004
 20
97.9000000000000057
 30
0.0
 40
0.04
  0
CIRCLE
  5
153
100
AcDbEntity
100
AcDbCircle
  8
Punkty
 62
256
370
-1
  6
ByLayer
 10
-2.4000000000000004
 20
97.8000000000000114
 30
0.0
 40
0.04
  0
CIRCLE
  5
154
100
AcDbEntity
100
AcDbCircle
  8
Punkty
 62
256
370
-1
  6
ByLayer
 10
-2.4000000000000004
 20
97.7000000000000171
 30
0.0
 40
0.04
  0
CIRCLE
  5
155
100
AcDbEntity
100
AcDbCircle
  8
Punkty
 62
256
370
-1
  6
ByLayer
 10
-3.8999999999999999
 20
98.1000000000000085
 30
0.0
 40
0.04
  0
CIRCLE
  5
156
100
AcDbEntity
100
AcDbCircle
  8
Punkty
 62
256
370
-1
  6
ByLayer
 10
-3.8999999999999999
 20
98.0000000000000142
 30
0.0
 40
0.04
  0
CIRCLE
  5
157
100
AcDbEntity
100
AcDbCircle
  8
Punkty
 62
256
370
-1
  6
ByLayer
 10
-3.8999999999999999
 20
97.9000000000000199
 30
0.0
 40
0.04
  0
CIRCLE
  5
158
100
AcDbEntity
100
AcDbCircle
  8
Punkty
 62
256
370
-1
  6
ByLayer
 10
-3.8999999999999999
 20
97.8000000000000256
 30
0.0
 40
0.04
  0
CIRCLE
  5
159
100
AcDbEntity
100
AcDbCircle
  8
Punkty
 62
256
370
-1
  6
ByLayer
 10
-3.8999999999999999
 20
97.7000000000000313
 30
0.0
 40
0.04
  0
CIRCLE
  5
15A
100
AcDbEntity
100
AcDbCircle
  8
Punkty
 62
256
370
-1
  6
ByLayer
 10
-2.6000000000000005
 20
97.7000000000000171
 30
0.0
 40
0.04
  0
CIRCLE
  5
15B
100
AcDbEntity
100
AcDbCircle
  8
Punkty
 62
256
370
-1
  6
ByLayer
 10
-3.7000000000000006
 20
97.7000000000000171
 30
0.0
 40
0.04
  0
CIRCLE
  5
15C
100
AcDbEntity
100
AcDbCircle
  8
Punkty
 62
256
370
-1
  6
ByLayer
 10
-3.4000000000000008
 20
97.7000000000000171
 30
0.0
 40
0.04
  0
CIRCLE
  5
15D
100
AcDbEntity
100
AcDbCircle
  8
Punkty
 62
256
370
-1
  6
ByLayer
 10
-3.2000000000000006
 20
97.7000000000000171
 30
0.0
 40
0.04
  0
CIRCLE
  5
15E
100
AcDbEntity
100
AcDbCircle
  8
Punkty
 62
256
370
-1
  6
ByLayer
 10
-3.1000000000000005
 20
97.7000000000000171
 30
0.0
 40
0.04
  0
CIRCLE
  5
15F
100
AcDbEntity
100
AcDbCircle
  8
Punkty
 62
256
370
-1
  6
ByLayer
 10
-2.9000000000000008
 20
97.7000000000000171
 30
0.0
 40
0.04
  0
LINE
  5
160
100
AcDbEntity
100
AcDbLine
  8
Polaczenia
 62
256
370
-1
  6
ByLayer
 10
-2.6000000000000001
 20
97.7000000000000028
 30
0.0
 11
-2.9000000000000004
 21
97.7000000000000028
 31
0.0
  0
LINE
  5
161
100
AcDbEntity
100
AcDbLine
  8
Polaczenia
 62
256
370
-1
  6
ByLayer
 10
-3.1000000000000001
 20
97.7000000000000028
 30
0.0
 11
-3.2000000000000002
 21
97.7000000000000028
 31
0.0
  0
LINE
  5
162
100
AcDbEntity
100
AcDbLine
  8
Polaczenia
 62
256
370
-1
  6
ByLayer
 10
-3.4000000000000004
 20
97.7000000000000028
 30
0.0
 11
-3.7000000000000002
 21
97.7000000000000028
 31
0.0
  0
LINE
  5
163
100
AcDbEntity
100
AcDbLine
  8
Elementy
 62
256
370
-1
  6
ByLayer
 10
-3.7500000000000009
 20
98.1500000000000057
 30
0.0
 11
-3.5500000000000012
 21
98.1500000000000057
 31
0.0
  0
LINE
  5
164
100
AcDbEntity
100
AcDbLine
  8
Elementy
 62
256
370
-1
  6
ByLayer
 10
-3.5500000000000012
 20
98.1500000000000057
 30
0.0
 11
-3.5500000000000012
 21
98.0500000000000114
 31
0.0
  0
LINE
  5
165
100
AcDbEntity
100
AcDbLine
  8
Elementy
 62
256
370
-1
  6
ByLayer
 10
-3.5500000000000012
 20
98.0500000000000114
 30
0.0
 11
-3.7500000000000009
 21
98.0500000000000114
 31
0.0
  0
LINE
  5
166
100
AcDbEntity
100
AcDbLine
  8
Elementy
 62
256
370
-1
  6
ByLayer
 10
-3.7500000000000009
 20
98.0500000000000114
 30
0.0
 11
-3.7500000000000009
 21
98.1500000000000057
 31
0.0
  0
CIRCLE
  5
167
100
AcDbEntity
100
AcDbCircle
  8
Punkty
 62
256
370
-1
  6
ByLayer
 10
-3.600000000000001
 20
98.1000000000000085
 30
0.0
 40
0.04
  0
CIRCLE
  5
168
100
AcDbEntity
100
AcDbCircle
  8
Punkty
 62
256
370
-1
  6
ByLayer
 10
-3.7000000000000011
 20
98.1000000000000085
 30
0.0
 40
0.04
  0
CIRCLE
  5
169
100
AcDbEntity
100
AcDbCircle
  8
Punkty
 62
256
370
-1
  6
ByLayer
 10
-2.7000000000000011
 20
98.1000000000000085
 30
0.0
 40
0.04
  0
CIRCLE
  5
16A
100
AcDbEntity
100
AcDbCircle
  8
Punkty
 62
256
370
-1
  6
ByLayer
 10
-2.600000000000001
 20
98.1000000000000085
 30
0.0
 40
0.04
  0
LINE
  5
16B
100
AcDbEntity
100
AcDbLine
  8
Polaczenia
 62
256
370
-1
  6
ByLayer
 10
-2.6000000000000001
 20
98.1000000000000085
 30
0.0
 11
-2.7000000000000002
 21
98.1000000000000085
 31
0.0
  0
LINE
  5
16C
100
AcDbEntity
100
AcDbLine
  8
Polaczenia
 62
256
370
-1
  6
ByLayer
 10
-3.7000000000000002
 20
98.0
 30
0.0
 11
-3.5
 21
98.0
 31
0.0
  0
LINE
  5
16D
100
AcDbEntity
100
AcDbLine
  8
Polaczenia
 62
256
370
-1
  6
ByLayer
 10
-2.7999999999999998
 20
98.0000000000000142
 30
0.0
 11
-2.6000000000000001
 21
98.0000000000000142
 31
0.0
  0
CIRCLE
  5
16E
100
AcDbEntity
100
AcDbCircle
  8
Punkty
 62
256
370
-1
  6
ByLayer
 10
-3.7000000000000011
 20
98.0
 30
0.0
 40
0.04
  0
CIRCLE
  5
16F
100
AcDbEntity
100
AcDbCircle
  8
Punkty
 62
256
370
-1
  6
ByLayer
 10
-3.5
 20
98.0
 30
0.0
 40
0.04
  0
CIRCLE
  5
170
100
AcDbEntity
100
AcDbCircle
  8
Punkty
 62
256
370
-1
  6
ByLayer
 10
-2.8000000000000007
 20
98.0
 30
0.0
 40
0.04
  0
CIRCLE
  5
171
100
AcDbEntity
100
AcDbCircle
  8
Punkty
 62
256
370
-1
  6
ByLayer
 10
-2.6000000000000005
 20
98.0
 30
0.0
 40
0.04
  0
CIRCLE
  5
172
100
AcDbEntity
100
AcDbCircle
  8
0
 62
256
370
-1
  6
ByLayer
 10
-3.0
 20
98.2999999999999972
 30
0.0
 40
0.02
  0
CIRCLE
  5
173
100
AcDbEntity
100
AcDbCircle
  8
0
 62
256
370
-1
  6
ByLayer
 10
-2.6000000000000001
 20
98.0999999999999801
 30
0.0
 40
0.02
  0
ARC
  5
174
100
AcDbEntity
  8
0
 62
256
370
-1
  6
ByLayer
100
AcDbCircle
 10
-2.6000000000000001
 20
98.0999999999999801
 30
0.0
 40
0.0300000000000002
100
AcDbArc
 50
90.0
 51
270.0
  0
CIRCLE
  5
175
100
AcDbEntity
100
AcDbCircle
  8
0
 62
256
370
-1
  6
ByLayer
 10
-2.6000000000000001
 20
97.4000000000000057
 30
0.0
 40
0.02
  0
CIRCLE
  5
176
100
AcDbEntity
100
AcDbCircle
  8
0
 62
256
370
-1
  6
ByLayer
 10
-2.5
 20
97.4000000000000057
 30
0.0
 40
0.02
  0
ARC
  5
177
100
AcDbEntity
  8
0
 62
256
370
-1
  6
ByLayer
100
AcDbCircle
 10
-2.6000000000000001
 20
97.4000000000000057
 30
0.0
 40
0.0300000000000002
100
AcDbArc
 50
90.0
 51
270.0
  0
ARC
  5
178
100
AcDbEntity
  8
0
 62
256
370
-1
  6
ByLayer
100
AcDbCircle
 10
-2.5000000000000004
 20
97.4000000000000057
 30
0.0
 40
0.0300000000000002
100
AcDbArc
 50
270.0
 51
89.9999999999999858
  0
LINE
  5
179
100
AcDbEntity
100
AcDbLine
  8
0
 62
256
370
-1
  6
ByLayer
 10
-2.6000000000000001
 20
97.4300000000000068
 30
0.0
 11
-2.5000000000000004
 21
97.4300000000000068
 31
0.0
  0
LINE
  5
17A
100
AcDbEntity
100
AcDbLine
  8
0
 62
256
370
-1
  6
ByLayer
 10
-2.5000000000000004
 20
97.3700000000000045
 30
0.0
 11
-2.6000000000000001
 21
97.3700000000000045
 31
0.0
  0
CIRCLE
  5
17B
100
AcDbEntity
100
AcDbCircle
  8
0
 62
256
370
-1
  6
ByLayer
 10
-2.6999999999999997
 20
98.0999999999999659
 30
0.0
 40
0.02
  0
CIRCLE
  5
17C
100
AcDbEntity
100
AcDbCircle
  8
0
 62
256
370
-1
  6
ByLayer
 10
-2.6999999999999997
 20
97.3999999999999204
 30
0.0
 40
0.02
  0
LINE
  5
17D
100
AcDbEntity
100
AcDbLine
  8
0
 62
256
370
-1
  6
ByLayer
 10
-2.6699999999999995
 20
97.3999999999999915
 30
0.0
 11
-2.6699999999999995
 21
98.5
 31
0.0
  0
LINE
  5
17E
100
AcDbEntity
100
AcDbLine
  8
0
 62
256
370
-1
  6
ByLayer
 10
-2.73
 20
98.5
 30
0.0
 11
-2.73
 21
97.3999999999999915
 31
0.0
  0
ARC
  5
17F
100
AcDbEntity
  8
0
 62
256
370
-1
  6
ByLayer
100
AcDbCircle
 10
-2.7000000000000002
 20
97.3999999999999915
 30
0.0
 40
0.0300000000000002
100
AcDbArc
 50
180.0
 51
0.0
  0
CIRCLE
  5
180
100
AcDbEntity
100
AcDbCircle
  8
0
 62
256
370
-1
  6
ByLayer
 10
-2.5
 20
97.2999999999999972
 30
0.0
 40
0.02
  0
CIRCLE
  5
181
100
AcDbEntity
100
AcDbCircle
  8
0
 62
256
370
-1
  6
ByLayer
 10
-2.6000000000000001
 20
97.2999999999999972
 30
0.0
 40
0.02
  0
CIRCLE
  5
182
100
AcDbEntity
100
AcDbCircle
  8
0
 62
256
370
-1
  6
ByLayer
 10
-2.7000000000000002
 20
97.2999999999999972
 30
0.0
 40
0.02
  0
CIRCLE
  5
183
100
AcDbEntity
100
AcDbCircle
  8
0
 62
256
370
-1
  6
ByLayer
 10
-2.8000000000000003
 20
97.2999999999999972
 30
0.0
 40
0.02
  0
CIRCLE
  5
184
100
AcDbEntity
100
AcDbCircle
  8
0
 62
256
370
-1
  6
ByLayer
 10
-2.9000000000000004
 20
97.2999999999999972
 30
0.0
 40
0.02
  0
CIRCLE
  5
185
100
AcDbEntity
100
AcDbCircle
  8
0
 62
256
370
-1
  6
ByLayer
 10
-3.0000000000000004
 20
97.2999999999999972
 30
0.0
 40
0.02
  0
CIRCLE
  5
186
100
AcDbEntity
100
AcDbCircle
  8
0
 62
256
370
-1
  6
ByLayer
 10
-3.1000000000000005
 20
97.2999999999999972
 30
0.0
 40
0.02
  0
ARC
  5
187
100
AcDbEntity
  8
0
 62
256
370
-1
  6
ByLayer
100
AcDbCircle
 10
-2.5000000000000004
 20
97.3000000000000114
 30
0.0
 40
0.0300000000000002
100
AcDbArc
 50
270.0
 51
89.9999999999999858
  0
LINE
  5
188
100
AcDbEntity
100
AcDbLine
  8
0
 62
256
370
-1
  6
ByLayer
 10
-2.5
 20
97.3299999999999841
 30
0.0
 11
-3.1499999999999999
 21
97.3299999999999841
 31
0.0
  0
LINE
  5
189
100
AcDbEntity
100
AcDbLine
  8
0
 62
256
370
-1
  6
ByLayer
 10
-2.5
 20
97.269999999999996
 30
0.0
 11
-3.1499999999999999
 21
97.269999999999996
 31
0.0
  0
CIRCLE
  5
18A
100
AcDbEntity
100
AcDbCircle
  8
0
 62
256
370
-1
  6
ByLayer
 10
-2.3500000000000001
 20
97.3499999999999943
 30
0.0
 40
0.0509901951359291
  0
ARC
  5
18B
100
AcDbEntity
  8
0
 62
256
370
-1
  6
ByLayer
100
AcDbCircle
 10
-2.2999999999999994
 20
97.5
 30
0.0
 40
0.0300000000000002
100
AcDbArc
 50
180.0
 51
360.0
  0
LINE
  5
18C
100
AcDbEntity
100
AcDbLine
  8
0
 62
256
370
-1
  6
ByLayer
 10
-2.3299999999999996
 20
98.4000000000000057
 30
0.0
 11
-2.3299999999999996
 21
97.5
 31
0.0
  0
LINE
  5
18D
100
AcDbEntity
100
AcDbLine
  8
0
 62
256
370
-1
  6
ByLayer
 10
-2.2699999999999991
 20
97.5
 30
0.0
 11
-2.2699999999999991
 21
98.4000000000000057
 31
0.0
  0
ARC
  5
18E
100
AcDbEntity
  8
0
 62
256
370
-1
  6
ByLayer
100
AcDbCircle
 10
-2.7999999999999998
 20
98.5
 30
0.0
 40
0.0300000000000002
100
AcDbArc
 50
360.0
 51
180.0
  0
LINE
  5
18F
100
AcDbEntity
100
AcDbLine
  8
0
 62
256
370
-1
  6
ByLayer
 10
-2.7699999999999996
 20
97.3999999999999915
 30
0.0
 11
-2.7699999999999996
 21
98.5
 31
0.0
  0
LINE
  5
190
100
AcDbEntity
100
AcDbLine
  8
0
 62
256
370
-1
  6
ByLayer
 10
-2.8300000000000001
 20
98.5
 30
0.0
 11
-2.8300000000000001
 21
97.3999999999999915
 31
0.0
  0
ARC
  5
191
100
AcDbEntity
  8
0
 62
256
370
-1
  6
ByLayer
100
AcDbCircle
 10
-2.8000000000000003
 20
97.3999999999999915
 30
0.0
 40
0.0300000000000002
100
AcDbArc
 50
180.0
 51
0.0
  0
CIRCLE
  5
192
100
AcDbEntity
100
AcDbCircle
  8
0
 62
256
370
-1
  6
ByLayer
 10
-2.7999999999999998
 20
97.3999999999999204
 30
0.0
 40
0.02
  0
CIRCLE
  5
193
100
AcDbEntity
100
AcDbCircle
  8
0
 62
256
370
-1
  6
ByLayer
 10
-3.1000000000000001
 20
97.3999999999999062
 30
0.0
 40
0.02
  0
CIRCLE
  5
194
100
AcDbEntity
100
AcDbCircle
  8
0
 62
256
370
-1
  6
ByLayer
 10
-3.0
 20
97.3999999999999062
 30
0.0
 40
0.02
  0
CIRCLE
  5
195
100
AcDbEntity
100
AcDbCircle
  8
0
 62
256
370
-1
  6
ByLayer
 10
-2.8999999999999999
 20
97.3999999999999062
 30
0.0
 40
0.02
  0
ARC
  5
196
100
AcDbEntity
  8
0
 62
256
370
-1
  6
ByLayer
100
AcDbCircle
 10
-3.1000000000000001
 20
97.3999999999999062
 30
0.0
 40
0.0300000000000002
100
AcDbArc
 50
90.0
 51
270.0
  0
ARC
  5
197
100
AcDbEntity
  8
0
 62
256
370
-1
  6
ByLayer
100
AcDbCircle
 10
-2.9000000000000004
 20
97.3999999999999062
 30
0.0
 40
0.0300000000000002
100
AcDbArc
 50
270.0
 51
89.9999999999999858
  0
LINE
  5
198
100
AcDbEntity
100
AcDbLine
  8
0
 62
256
370
-1
  6
ByLayer
 10
-3.1000000000000001
 20
97.4299999999999073
 30
0.0
 11
-2.9000000000000004
 21
97.4299999999999073
 31
0.0
  0
LINE
  5
199
100
AcDbEntity
100
AcDbLine
  8
0
 62
256
370
-1
  6
ByLayer
 10
-2.9000000000000004
 20
97.3699999999999051
 30
0.0
 11
-3.1000000000000001
 21
97.3699999999999051
 31
0.0
  0
CIRCLE
  5
19A
100
AcDbEntity
100
AcDbCircle
  8
0
 62
256
370
-1
  6
ByLayer
 10
-3.1999999999999997
 20
98.5
 30
0.0
 40
0.02
  0
CIRCLE
  5
19B
100
AcDbEntity
100
AcDbCircle
  8
0
 62
256
370
-1
  6
ByLayer
 10
-3.2999999999999998
 20
98.5
 30
0.0
 40
0.02
  0
CIRCLE
  5
19C
100
AcDbEntity
100
AcDbCircle
  8
0
 62
256
370
-1
  6
ByLayer
 10
-3.3999999999999999
 20
98.5
 30
0.0
 40
0.02
  0
ARC
  5
19D
100
AcDbEntity
  8
0
 62
256
370
-1
  6
ByLayer
100
AcDbCircle
 10
-3.1999999999999997
 20
98.5
 30
0.0
 40
0.0300000000000002
100
AcDbArc
 50
270.0
 51
89.9999999999999858
  0
ARC
  5
19E
100
AcDbEntity
  8
0
 62
256
370
-1
  6
ByLayer
100
AcDbCircle
 10
-3.3999999999999995
 20
98.5
 30
0.0
 40
0.0300000000000002
100
AcDbArc
 50
89.9999999999999858
 51
270.0
  0
LINE
  5
19F
100
AcDbEntity
100
AcDbLine
  8
0
 62
256
370
-1
  6
ByLayer
 10
-3.1999999999999997
 20
98.5300000000000011
 30
0.0
 11
-3.3999999999999995
 21
98.5300000000000011
 31
0.0
  0
LINE
  5
1A0
100
AcDbEntity
100
AcDbLine
  8
0
 62
256
370
-1
  6
ByLayer
 10
-3.3999999999999995
 20
98.4699999999999989
 30
0.0
 11
-3.1999999999999997
 21
98.4699999999999989
 31
0.0
  0
CIRCLE
  5
1A1
100
AcDbEntity
100
AcDbCircle
  8
0
 62
256
370
-1
  6
ByLayer
 10
-3.1999999999999997
 20
98.3999999999999915
 30
0.0
 40
0.02
  0
CIRCLE
  5
1A2
100
AcDbEntity
100
AcDbCircle
  8
0
 62
256
370
-1
  6
ByLayer
 10
-3.2999999999999998
 20
98.3999999999999915
 30
0.0
 40
0.02
  0
CIRCLE
  5
1A3
100
AcDbEntity
100
AcDbCircle
  8
0
 62
256
370
-1
  6
ByLayer
 10
-3.3999999999999999
 20
98.3999999999999915
 30
0.0
 40
0.02
  0
ARC
  5
1A4
100
AcDbEntity
  8
0
 62
256
370
-1
  6
ByLayer
100
AcDbCircle
 10
-3.1999999999999997
 20
98.3999999999999915
 30
0.0
 40
0.0300000000000002
100
AcDbArc
 50
270.0
 51
89.9999999999999858
  0
ARC
  5
1A5
100
AcDbEntity
  8
0
 62
256
370
-1
  6
ByLayer
100
AcDbCircle
 10
-3.3999999999999995
 20
98.3999999999999915
 30
0.0
 40
0.0300000000000002
100
AcDbArc
 50
89.9999999999999858
 51
270.0
  0
LINE
  5
1A6
100
AcDbEntity
100
AcDbLine
  8
0
 62
256
370
-1
  6
ByLayer
 10
-3.1999999999999997
 20
98.4299999999999926
 30
0.0
 11
-3.3999999999999995
 21
98.4299999999999926
 31
0.0
  0
LINE
  5
1A7
100
AcDbEntity
100
AcDbLine
  8
0
 62
256
370
-1
  6
ByLayer
 10
-3.3999999999999995
 20
98.3699999999999903
 30
0.0
 11
-3.1999999999999997
 21
98.3699999999999903
 31
0.0
  0
CIRCLE
  5
1A8
100
AcDbEntity
100
AcDbCircle
  8
0
 62
256
370
-1
  6
ByLayer
 10
-3.1999999999999997
 20
98.2999999999999829
 30
0.0
 40
0.02
  0
CIRCLE
  5
1A9
100
AcDbEntity
100
AcDbCircle
  8
0
 62
256
370
-1
  6
ByLayer
 10
-3.2999999999999998
 20
98.2999999999999829
 30
0.0
 40
0.02
  0
CIRCLE
  5
1AA
100
AcDbEntity
100
AcDbCircle
  8
0
 62
256
370
-1
  6
ByLayer
 10
-3.3999999999999999
 20
98.2999999999999829
 30
0.0
 40
0.02
  0
ARC
  5
1AB
100
AcDbEntity
  8
0
 62
256
370
-1
  6
ByLayer
100
AcDbCircle
 10
-3.1999999999999997
 20
98.2999999999999829
 30
0.0
 40
0.0300000000000002
100
AcDbArc
 50
270.0
 51
89.9999999999999858
  0
ARC
  5
1AC
100
AcDbEntity
  8
0
 62
256
370
-1
  6
ByLayer
100
AcDbCircle
 10
-3.3999999999999995
 20
98.2999999999999829
 30
0.0
 40
0.0300000000000002
100
AcDbArc
 50
89.9999999999999858
 51
270.0
  0
LINE
  5
1AD
100
AcDbEntity
100
AcDbLine
  8
0
 62
256
370
-1
  6
ByLayer
 10
-3.1999999999999997
 20
98.3299999999999841
 30
0.0
 11
-3.3999999999999995
 21
98.3299999999999841
 31
0.0
  0
LINE
  5
1AE
100
AcDbEntity
100
AcDbLine
  8
0
 62
256
370
-1
  6
ByLayer
 10
-3.3999999999999995
 20
98.2699999999999818
 30
0.0
 11
-3.1999999999999997
 21
98.2699999999999818
 31
0.0
  0
CIRCLE
  5
1AF
100
AcDbEntity
100
AcDbCircle
  8
0
 62
256
370
-1
  6
ByLayer
 10
-3.1999999999999997
 20
98.1999999999999744
 30
0.0
 40
0.02
  0
CIRCLE
  5
1B0
100
AcDbEntity
100
AcDbCircle
  8
0
 62
256
370
-1
  6
ByLayer
 10
-3.2999999999999998
 20
98.1999999999999744
 30
0.0
 40
0.02
  0
CIRCLE
  5
1B1
100
AcDbEntity
100
AcDbCircle
  8
0
 62
256
370
-1
  6
ByLayer
 10
-3.3999999999999999
 20
98.1999999999999744
 30
0.0
 40
0.02
  0
ARC
  5
1B2
100
AcDbEntity
  8
0
 62
256
370
-1
  6
ByLayer
100
AcDbCircle
 10
-3.1999999999999997
 20
98.1999999999999744
 30
0.0
 40
0.0300000000000002
100
AcDbArc
 50
270.0
 51
89.9999999999999858
  0
ARC
  5
1B3
100
AcDbEntity
  8
0
 62
256
370
-1
  6
ByLayer
100
AcDbCircle
 10
-3.3999999999999995
 20
98.1999999999999744
 30
0.0
 40
0.0300000000000002
100
AcDbArc
 50
89.9999999999999858
 51
270.0
  0
LINE
  5
1B4
100
AcDbEntity
100
AcDbLine
  8
0
 62
256
370
-1
  6
ByLayer
 10
-3.1999999999999997
 20
98.2299999999999756
 30
0.0
 11
-3.3999999999999995
 21
98.2299999999999756
 31
0.0
  0
LINE
  5
1B5
100
AcDbEntity
100
AcDbLine
  8
0
 62
256
370
-1
  6
ByLayer
 10
-3.3999999999999995
 20
98.1699999999999733
 30
0.0
 11
-3.1999999999999997
 21
98.1699999999999733
 31
0.0
  0
CIRCLE
  5
1B6
100
AcDbEntity
100
AcDbCircle
  8
0
 62
256
370
-1
  6
ByLayer
 10
-3.1999999999999997
 20
98.0999999999999659
 30
0.0
 40
0.02
  0
CIRCLE
  5
1B7
100
AcDbEntity
100
AcDbCircle
  8
0
 62
256
370
-1
  6
ByLayer
 10
-3.2999999999999998
 20
98.0999999999999659
 30
0.0
 40
0.02
  0
CIRCLE
  5
1B8
100
AcDbEntity
100
AcDbCircle
  8
0
 62
256
370
-1
  6
ByLayer
 10
-3.3999999999999999
 20
98.0999999999999659
 30
0.0
 40
0.02
  0
ARC
  5
1B9
100
AcDbEntity
  8
0
 62
256
370
-1
  6
ByLayer
100
AcDbCircle
 10
-3.1999999999999997
 20
98.0999999999999659
 30
0.0
 40
0.0300000000000002
100
AcDbArc
 50
270.0
 51
89.9999999999999858
  0
ARC
  5
1BA
100
AcDbEntity
  8
0
 62
256
370
-1
  6
ByLayer
100
AcDbCircle
 10
-3.3999999999999995
 20
98.0999999999999659
 30
0.0
 40
0.0300000000000002
100
AcDbArc
 50
89.9999999999999858
 51
270.0
  0
LINE
  5
1BB
100
AcDbEntity
100
AcDbLine
  8
0
 62
256
370
-1
  6
ByLayer
 10
-3.1999999999999997
 20
98.129999999999967
 30
0.0
 11
-3.3999999999999995
 21
98.129999999999967
 31
0.0
  0
LINE
  5
1BC
100
AcDbEntity
100
AcDbLine
  8
0
 62
256
370
-1
  6
ByLayer
 10
-3.3999999999999999
 20
98.0699999999999648
 30
0.0
 11
-3.2000000000000002
 21
98.0699999999999648
 31
0.0
  0
CIRCLE
  5
1BD
100
AcDbEntity
100
AcDbCircle
  8
0
 62
256
370
-1
  6
ByLayer
 10
-3.1999999999999997
 20
97.9999999999999574
 30
0.0
 40
0.02
  0
CIRCLE
  5
1BE
100
AcDbEntity
100
AcDbCircle
  8
0
 62
256
370
-1
  6
ByLayer
 10
-3.2999999999999998
 20
97.9999999999999574
 30
0.0
 40
0.02
  0
CIRCLE
  5
1BF
100
AcDbEntity
100
AcDbCircle
  8
0
 62
256
370
-1
  6
ByLayer
 10
-3.3999999999999999
 20
97.9999999999999574
 30
0.0
 40
0.02
  0
ARC
  5
1C0
100
AcDbEntity
  8
0
 62
256
370
-1
  6
ByLayer
100
AcDbCircle
 10
-3.1999999999999997
 20
97.9999999999999574
 30
0.0
 40
0.0300000000000002
100
AcDbArc
 50
270.0
 51
89.9999999999999858
  0
ARC
  5
1C1
100
AcDbEntity
  8
0
 62
256
370
-1
  6
ByLayer
100
AcDbCircle
 10
-3.3999999999999999
 20
97.9999999999999574
 30
0.0
 40
0.0300000000000002
100
AcDbArc
 50
89.9999999999999858
 51
270.0
  0
LINE
  5
1C2
100
AcDbEntity
100
AcDbLine
  8
0
 62
256
370
-1
  6
ByLayer
 10
-3.1999999999999997
 20
98.0299999999999585
 30
0.0
 11
-3.3999999999999995
 21
98.0299999999999585
 31
0.0
  0
LINE
  5
1C3
100
AcDbEntity
100
AcDbLine
  8
0
 62
256
370
-1
  6
ByLayer
 10
-3.3999999999999999
 20
97.9699999999999562
 30
0.0
 11
-3.2000000000000002
 21
97.9699999999999562
 31
0.0
  0
CIRCLE
  5
1C4
100
AcDbEntity
100
AcDbCircle
  8
0
 62
256
370
-1
  6
ByLayer
 10
-3.1999999999999997
 20
97.8999999999999488
 30
0.0
 40
0.02
  0
CIRCLE
  5
1C5
100
AcDbEntity
100
AcDbCircle
  8
0
 62
256
370
-1
  6
ByLayer
 10
-3.2999999999999998
 20
97.8999999999999488
 30
0.0
 40
0.02
  0
CIRCLE
  5
1C6
100
AcDbEntity
100
AcDbCircle
  8
0
 62
256
370
-1
  6
ByLayer
 10
-3.3999999999999999
 20
97.8999999999999488
 30
0.0
 40
0.02
  0
ARC
  5
1C7
100
AcDbEntity
  8
0
 62
256
370
-1
  6
ByLayer
100
AcDbCircle
 10
-3.1999999999999997
 20
97.8999999999999488
 30
0.0
 40
0.0300000000000002
100
AcDbArc
 50
270.0
 51
89.9999999999999858
  0
ARC
  5
1C8
100
AcDbEntity
  8
0
 62
256
370
-1
  6
ByLayer
100
AcDbCircle
 10
-3.399999999999999
 20
97.8999999999999488
 30
0.0
 40
0.0300000000000002
100
AcDbArc
 50
89.9999999999999858
 51
270.0
  0
LINE
  5
1C9
100
AcDbEntity
100
AcDbLine
  8
0
 62
256
370
-1
  6
ByLayer
 10
-3.1999999999999997
 20
97.92999999999995
 30
0.0
 11
-3.3999999999999995
 21
97.92999999999995
 31
0.0
  0
LINE
  5
1CA
100
AcDbEntity
100
AcDbLine
  8
0
 62
256
370
-1
  6
ByLayer
 10
-3.3999999999999995
 20
97.8699999999999477
 30
0.0
 11
-3.2000000000000002
 21
97.8699999999999477
 31
0.0
  0
CIRCLE
  5
1CB
100
AcDbEntity
100
AcDbCircle
  8
0
 62
256
370
-1
  6
ByLayer
 10
-3.1999999999999997
 20
97.7999999999999403
 30
0.0
 40
0.02
  0
CIRCLE
  5
1CC
100
AcDbEntity
100
AcDbCircle
  8
0
 62
256
370
-1
  6
ByLayer
 10
-3.2999999999999998
 20
97.7999999999999403
 30
0.0
 40
0.02
  0
CIRCLE
  5
1CD
100
AcDbEntity
100
AcDbCircle
  8
0
 62
256
370
-1
  6
ByLayer
 10
-3.3999999999999999
 20
97.7999999999999403
 30
0.0
 40
0.02
  0
ARC
  5
1CE
100
AcDbEntity
  8
0
 62
256
370
-1
  6
ByLayer
100
AcDbCircle
 10
-3.1999999999999997
 20
97.7999999999999403
 30
0.0
 40
0.0300000000000002
100
AcDbArc
 50
270.0
 51
89.9999999999999858
  0
ARC
  5
1CF
100
AcDbEntity
  8
0
 62
256
370
-1
  6
ByLayer
100
AcDbCircle
 10
-3.3999999999999999
 20
97.7999999999999403
 30
0.0
 40
0.0300000000000002
100
AcDbArc
 50
89.9999999999999858
 51
270.0
  0
LINE
  5
1D0
100
AcDbEntity
100
AcDbLine
  8
0
 62
256
370
-1
  6
ByLayer
 10
-3.1999999999999993
 20
97.8299999999999415
 30
0.0
 11
-3.3999999999999995
 21
97.8299999999999415
 31
0.0
  0
LINE
  5
1D1
100
AcDbEntity
100
AcDbLine
  8
0
 62
256
370
-1
  6
ByLayer
 10
-3.3999999999999995
 20
97.7699999999999392
 30
0.0
 11
-3.1999999999999997
 21
97.7699999999999392
 31
0.0
  0
CIRCLE
  5
1D2
100
AcDbEntity
100
AcDbCircle
  8
0
 62
256
370
-1
  6
ByLayer
 10
-3.1999999999999997
 20
97.6999999999999318
 30
0.0
 40
0.02
  0
CIRCLE
  5
1D3
100
AcDbEntity
100
AcDbCircle
  8
0
 62
256
370
-1
  6
ByLayer
 10
-3.3000000000000003
 20
97.6999999999999318
 30
0.0
 40
0.02
  0
CIRCLE
  5
1D4
100
AcDbEntity
100
AcDbCircle
  8
0
 62
256
370
-1
  6
ByLayer
 10
-3.3999999999999999
 20
97.6999999999999318
 30
0.0
 40
0.02
  0
ARC
  5
1D5
100
AcDbEntity
  8
0
 62
256
370
-1
  6
ByLayer
100
AcDbCircle
 10
-3.1999999999999997
 20
97.6999999999999318
 30
0.0
 40
0.0300000000000002
100
AcDbArc
 50
270.0
 51
89.9999999999999858
  0
ARC
  5
1D6
100
AcDbEntity
  8
0
 62
256
370
-1
  6
ByLayer
100
AcDbCircle
 10
-3.399999999999999
 20
97.6999999999999318
 30
0.0
 40
0.0300000000000002
100
AcDbArc
 50
89.9999999999999858
 51
270.0
  0
LINE
  5
1D7
100
AcDbEntity
100
AcDbLine
  8
0
 62
256
370
-1
  6
ByLayer
 10
-3.1999999999999993
 20
97.7299999999999329
 30
0.0
 11
-3.3999999999999999
 21
97.7299999999999329
 31
0.0
  0
LINE
  5
1D8
100
AcDbEntity
100
AcDbLine
  8
0
 62
256
370
-1
  6
ByLayer
 10
-3.3999999999999995
 20
97.6699999999999307
 30
0.0
 11
-3.1999999999999997
 21
97.6699999999999307
 31
0.0
  0
CIRCLE
  5
1D9
100
AcDbEntity
100
AcDbCircle
  8
0
 62
256
370
-1
  6
ByLayer
 10
-3.1999999999999997
 20
97.5999999999999233
 30
0.0
 40
0.02
  0
CIRCLE
  5
1DA
100
AcDbEntity
100
AcDbCircle
  8
0
 62
256
370
-1
  6
ByLayer
 10
-3.3000000000000003
 20
97.5999999999999233
 30
0.0
 40
0.02
  0
CIRCLE
  5
1DB
100
AcDbEntity
100
AcDbCircle
  8
0
 62
256
370
-1
  6
ByLayer
 10
-3.4000000000000004
 20
97.5999999999999233
 30
0.0
 40
0.02
  0
ARC
  5
1DC
100
AcDbEntity
  8
0
 62
256
370
-1
  6
ByLayer
100
AcDbCircle
 10
-3.1999999999999997
 20
97.5999999999999233
 30
0.0
 40
0.0300000000000002
100
AcDbArc
 50
270.0
 51
89.9999999999999858
  0
ARC
  5
1DD
100
AcDbEntity
  8
0
 62
256
370
-1
  6
ByLayer
100
AcDbCircle
 10
-3.3999999999999995
 20
97.5999999999999233
 30
0.0
 40
0.0300000000000002
100
AcDbArc
 50
89.9999999999999858
 51
270.0
  0
LINE
  5
1DE
100
AcDbEntity
100
AcDbLine
  8
0
 62
256
370
-1
  6
ByLayer
 10
-3.1999999999999997
 20
97.6299999999999244
 30
0.0
 11
-3.399999999999999
 21
97.6299999999999244
 31
0.0
  0
LINE
  5
1DF
100
AcDbEntity
100
AcDbLine
  8
0
 62
256
370
-1
  6
ByLayer
 10
-3.3999999999999999
 20
97.5699999999999221
 30
0.0
 11
-3.2000000000000002
 21
97.5699999999999221
 31
0.0
  0
CIRCLE
  5
1E0
100
AcDbEntity
100
AcDbCircle
  8
0
 62
256
370
-1
  6
ByLayer
 10
-3.1999999999999997
 20
97.4999999999999147
 30
0.0
 40
0.02
  0
CIRCLE
  5
1E1
100
AcDbEntity
100
AcDbCircle
  8
0
 62
256
370
-1
  6
ByLayer
 10
-3.2999999999999998
 20
97.4999999999999147
 30
0.0
 40
0.02
  0
CIRCLE
  5
1E2
100
AcDbEntity
100
AcDbCircle
  8
0
 62
256
370
-1
  6
ByLayer
 10
-3.3999999999999999
 20
97.4999999999999147
 30
0.0
 40
0.02
  0
ARC
  5
1E3
100
AcDbEntity
  8
0
 62
256
370
-1
  6
ByLayer
100
AcDbCircle
 10
-3.1999999999999997
 20
97.4999999999999147
 30
0.0
 40
0.0300000000000002
100
AcDbArc
 50
270.0
 51
89.9999999999999858
  0
ARC
  5
1E4
100
AcDbEntity
  8
0
 62
256
370
-1
  6
ByLayer
100
AcDbCircle
 10
-3.3999999999999999
 20
97.4999999999999147
 30
0.0
 40
0.0300000000000002
100
AcDbArc
 50
89.9999999999999858
 51
270.0
  0
LINE
  5
1E5
100
AcDbEntity
100
AcDbLine
  8
0
 62
256
370
-1
  6
ByLayer
 10
-3.1999999999999997
 20
97.5299999999999159
 30
0.0
 11
-3.3999999999999995
 21
97.5299999999999159
 31
0.0
  0
LINE
  5
1E6
100
AcDbEntity
100
AcDbLine
  8
0
 62
256
370
-1
  6
ByLayer
 10
-3.4000000000000004
 20
97.4699999999999136
 30
0.0
 11
-3.1999999999999993
 21
97.4699999999999136
 31
0.0
  0
CIRCLE
  5
1E7
100
AcDbEntity
100
AcDbCircle
  8
0
 62
256
370
-1
  6
ByLayer
 10
-3.5
 20
98.5
 30
0.0
 40
0.02
  0
CIRCLE
  5
1E8
100
AcDbEntity
100
AcDbCircle
  8
0
 62
256
370
-1
  6
ByLayer
 10
-3.5
 20
98.3999999999999915
 30
0.0
 40
0.02
  0
CIRCLE
  5
1E9
100
AcDbEntity
100
AcDbCircle
  8
0
 62
256
370
-1
  6
ByLayer
 10
-3.5
 20
98.2999999999999829
 30
0.0
 40
0.02
  0
CIRCLE
  5
1EA
100
AcDbEntity
100
AcDbCircle
  8
0
 62
256
370
-1
  6
ByLayer
 10
-3.5
 20
98.1999999999999744
 30
0.0
 40
0.02
  0
CIRCLE
  5
1EB
100
AcDbEntity
100
AcDbCircle
  8
0
 62
256
370
-1
  6
ByLayer
 10
-3.5
 20
98.0999999999999659
 30
0.0
 40
0.02
  0
CIRCLE
  5
1EC
100
AcDbEntity
100
AcDbCircle
  8
0
 62
256
370
-1
  6
ByLayer
 10
-3.5
 20
97.9999999999999574
 30
0.0
 40
0.02
  0
CIRCLE
  5
1ED
100
AcDbEntity
100
AcDbCircle
  8
0
 62
256
370
-1
  6
ByLayer
 10
-3.4999999999999996
 20
97.8999999999999488
 30
0.0
 40
0.02
  0
CIRCLE
  5
1EE
100
AcDbEntity
100
AcDbCircle
  8
0
 62
256
370
-1
  6
ByLayer
 10
-3.5
 20
97.7999999999999403
 30
0.0
 40
0.02
  0
CIRCLE
  5
1EF
100
AcDbEntity
100
AcDbCircle
  8
0
 62
256
370
-1
  6
ByLayer
 10
-3.4999999999999996
 20
97.6999999999999318
 30
0.0
 40
0.02
  0
CIRCLE
  5
1F0
100
AcDbEntity
100
AcDbCircle
  8
0
 62
256
370
-1
  6
ByLayer
 10
-3.4999999999999996
 20
97.5999999999999233
 30
0.0
 40
0.02
  0
CIRCLE
  5
1F1
100
AcDbEntity
100
AcDbCircle
  8
0
 62
256
370
-1
  6
ByLayer
 10
-3.5
 20
97.4999999999999147
 30
0.0
 40
0.02
  0
CIRCLE
  5
1F2
100
AcDbEntity
100
AcDbCircle
  8
0
 62
256
370
-1
  6
ByLayer
 10
-3.6000000000000001
 20
98.5
 30
0.0
 40
0.02
  0
CIRCLE
  5
1F3
100
AcDbEntity
100
AcDbCircle
  8
0
 62
256
370
-1
  6
ByLayer
 10
-3.6000000000000001
 20
98.3999999999999915
 30
0.0
 40
0.02
  0
CIRCLE
  5
1F4
100
AcDbEntity
100
AcDbCircle
  8
0
 62
256
370
-1
  6
ByLayer
 10
-3.6000000000000001
 20
98.2999999999999829
 30
0.0
 40
0.02
  0
CIRCLE
  5
1F5
100
AcDbEntity
100
AcDbCircle
  8
0
 62
256
370
-1
  6
ByLayer
 10
-3.6000000000000001
 20
98.1999999999999744
 30
0.0
 40
0.02
  0
CIRCLE
  5
1F6
100
AcDbEntity
100
AcDbCircle
  8
0
 62
256
370
-1
  6
ByLayer
 10
-3.6000000000000005
 20
97.9999999999999574
 30
0.0
 40
0.02
  0
CIRCLE
  5
1F7
100
AcDbEntity
100
AcDbCircle
  8
0
 62
256
370
-1
  6
ByLayer
 10
-3.6000000000000001
 20
97.8999999999999488
 30
0.0
 40
0.02
  0
CIRCLE
  5
1F8
100
AcDbEntity
100
AcDbCircle
  8
0
 62
256
370
-1
  6
ByLayer
 10
-3.6000000000000005
 20
97.7999999999999403
 30
0.0
 40
0.02
  0
CIRCLE
  5
1F9
100
AcDbEntity
100
AcDbCircle
  8
0
 62
256
370
-1
  6
ByLayer
 10
-3.6000000000000001
 20
97.6999999999999318
 30
0.0
 40
0.02
  0
CIRCLE
  5
1FA
100
AcDbEntity
100
AcDbCircle
  8
0
 62
256
370
-1
  6
ByLayer
 10
-3.6000000000000005
 20
97.5999999999999233
 30
0.0
 40
0.02
  0
CIRCLE
  5
1FB
100
AcDbEntity
100
AcDbCircle
  8
0
 62
256
370
-1
  6
ByLayer
 10
-3.6000000000000005
 20
97.4999999999999147
 30
0.0
 40
0.02
  0
ARC
  5
1FC
100
AcDbEntity
  8
0
 62
256
370
-1
  6
ByLayer
100
AcDbCircle
 10
-3.6000000000000001
 20
98.5
 30
0.0
 40
0.0300000000000002
100
AcDbArc
 50
360.0
 51
180.0
  0
CIRCLE
  5
1FD
100
AcDbEntity
100
AcDbCircle
  8
0
 62
256
370
-1
  6
ByLayer
 10
-3.6999999999999997
 20
98.5
 30
0.0
 40
0.02
  0
CIRCLE
  5
1FE
100
AcDbEntity
100
AcDbCircle
  8
0
 62
256
370
-1
  6
ByLayer
 10
-3.7999999999999998
 20
98.5
 30
0.0
 40
0.02
  0
ARC
  5
1FF
100
AcDbEntity
  8
0
 62
256
370
-1
  6
ByLayer
100
AcDbCircle
 10
-3.6999999999999997
 20
98.5
 30
0.0
 40
0.0300000000000002
100
AcDbArc
 50
270.0
 51
89.9999999999999858
  0
CIRCLE
  5
200
100
AcDbEntity
100
AcDbCircle
  8
0
 62
256
370
-1
  6
ByLayer
 10
-3.6999999999999997
 20
98.3999999999999915
 30
0.0
 40
0.02
  0
CIRCLE
  5
201
100
AcDbEntity
100
AcDbCircle
  8
0
 62
256
370
-1
  6
ByLayer
 10
-3.7999999999999998
 20
98.3999999999999915
 30
0.0
 40
0.02
  0
CIRCLE
  5
202
100
AcDbEntity
100
AcDbCircle
  8
0
 62
256
370
-1
  6
ByLayer
 10
-3.8999999999999999
 20
98.3999999999999915
 30
0.0
 40
0.02
  0
ARC
  5
203
100
AcDbEntity
  8
0
 62
256
370
-1
  6
ByLayer
100
AcDbCircle
 10
-3.6999999999999997
 20
98.3999999999999915
 30
0.0
 40
0.0300000000000002
100
AcDbArc
 50
270.0
 51
89.9999999999999858
  0
ARC
  5
204
100
AcDbEntity
  8
0
 62
256
370
-1
  6
ByLayer
100
AcDbCircle
 10
-3.8999999999999995
 20
98.3999999999999915
 30
0.0
 40
0.0300000000000002
100
AcDbArc
 50
89.9999999999999858
 51
270.0
  0
LINE
  5
205
100
AcDbEntity
100
AcDbLine
  8
0
 62
256
370
-1
  6
ByLayer
 10
-3.6999999999999997
 20
98.4299999999999926
 30
0.0
 11
-3.8999999999999995
 21
98.4299999999999926
 31
0.0
  0
LINE
  5
206
100
AcDbEntity
100
AcDbLine
  8
0
 62
256
370
-1
  6
ByLayer
 10
-3.8999999999999995
 20
98.3699999999999903
 30
0.0
 11
-3.6999999999999997
 21
98.3699999999999903
 31
0.0
  0
CIRCLE
  5
207
100
AcDbEntity
100
AcDbCircle
  8
0
 62
256
370
-1
  6
ByLayer
 10
-3.6999999999999997
 20
98.2999999999999829
 30
0.0
 40
0.02
  0
CIRCLE
  5
208
100
AcDbEntity
100
AcDbCircle
  8
0
 62
256
370
-1
  6
ByLayer
 10
-3.7999999999999998
 20
98.2999999999999829
 30
0.0
 40
0.02
  0
CIRCLE
  5
209
100
AcDbEntity
100
AcDbCircle
  8
0
 62
256
370
-1
  6
ByLayer
 10
-3.8999999999999999
 20
98.2999999999999829
 30
0.0
 40
0.02
  0
ARC
  5
20A
100
AcDbEntity
  8
0
 62
256
370
-1
  6
ByLayer
100
AcDbCircle
 10
-3.6999999999999997
 20
98.2999999999999829
 30
0.0
 40
0.0300000000000002
100
AcDbArc
 50
270.0
 51
89.9999999999999858
  0
ARC
  5
20B
100
AcDbEntity
  8
0
 62
256
370
-1
  6
ByLayer
100
AcDbCircle
 10
-3.8999999999999995
 20
98.2999999999999829
 30
0.0
 40
0.0300000000000002
100
AcDbArc
 50
89.9999999999999858
 51
270.0
  0
LINE
  5
20C
100
AcDbEntity
100
AcDbLine
  8
0
 62
256
370
-1
  6
ByLayer
 10
-3.6999999999999997
 20
98.3299999999999841
 30
0.0
 11
-3.8999999999999995
 21
98.3299999999999841
 31
0.0
  0
LINE
  5
20D
100
AcDbEntity
100
AcDbLine
  8
0
 62
256
370
-1
  6
ByLayer
 10
-3.8999999999999995
 20
98.2699999999999818
 30
0.0
 11
-3.6999999999999997
 21
98.2699999999999818
 31
0.0
  0
CIRCLE
  5
20E
100
AcDbEntity
100
AcDbCircle
  8
0
 62
256
370
-1
  6
ByLayer
 10
-3.6999999999999997
 20
98.1999999999999744
 30
0.0
 40
0.02
  0
CIRCLE
  5
20F
100
AcDbEntity
100
AcDbCircle
  8
0
 62
256
370
-1
  6
ByLayer
 10
-3.7999999999999998
 20
98.1999999999999744
 30
0.0
 40
0.02
  0
CIRCLE
  5
210
100
AcDbEntity
100
AcDbCircle
  8
0
 62
256
370
-1
  6
ByLayer
 10
-3.8999999999999999
 20
98.1999999999999744
 30
0.0
 40
0.02
  0
ARC
  5
211
100
AcDbEntity
  8
0
 62
256
370
-1
  6
ByLayer
100
AcDbCircle
 10
-3.6999999999999997
 20
98.1999999999999744
 30
0.0
 40
0.0300000000000002
100
AcDbArc
 50
270.0
 51
89.9999999999999858
  0
ARC
  5
212
100
AcDbEntity
  8
0
 62
256
370
-1
  6
ByLayer
100
AcDbCircle
 10
-3.8999999999999995
 20
98.1999999999999744
 30
0.0
 40
0.0300000000000002
100
AcDbArc
 50
89.9999999999999858
 51
270.0
  0
LINE
  5
213
100
AcDbEntity
100
AcDbLine
  8
0
 62
256
370
-1
  6
ByLayer
 10
-3.7000000000000002
 20
98.2299999999999756
 30
0.0
 11
-3.8999999999999995
 21
98.2299999999999756
 31
0.0
  0
LINE
  5
214
100
AcDbEntity
100
AcDbLine
  8
0
 62
256
370
-1
  6
ByLayer
 10
-3.8999999999999995
 20
98.1699999999999733
 30
0.0
 11
-3.6999999999999997
 21
98.1699999999999733
 31
0.0
  0
CIRCLE
  5
215
100
AcDbEntity
100
AcDbCircle
  8
0
 62
256
370
-1
  6
ByLayer
 10
-3.7999999999999998
 20
98.0999999999999659
 30
0.0
 40
0.02
  0
CIRCLE
  5
216
100
AcDbEntity
100
AcDbCircle
  8
0
 62
256
370
-1
  6
ByLayer
 10
-3.8999999999999999
 20
98.0999999999999659
 30
0.0
 40
0.02
  0
ARC
  5
217
100
AcDbEntity
  8
0
 62
256
370
-1
  6
ByLayer
100
AcDbCircle
 10
-3.8999999999999995
 20
98.0999999999999659
 30
0.0
 40
0.0300000000000002
100
AcDbArc
 50
89.9999999999999858
 51
270.0
  0
LINE
  5
218
100
AcDbEntity
100
AcDbLine
  8
0
 62
256
370
-1
  6
ByLayer
 10
-3.7000000000000002
 20
98.129999999999967
 30
0.0
 11
-3.8999999999999995
 21
98.129999999999967
 31
0.0
  0
LINE
  5
219
100
AcDbEntity
100
AcDbLine
  8
0
 62
256
370
-1
  6
ByLayer
 10
-3.8999999999999995
 20
98.0699999999999648
 30
0.0
 11
-3.6999999999999997
 21
98.0699999999999648
 31
0.0
  0
CIRCLE
  5
21A
100
AcDbEntity
100
AcDbCircle
  8
0
 62
256
370
-1
  6
ByLayer
 10
-3.6999999999999997
 20
97.9999999999999574
 30
0.0
 40
0.02
  0
CIRCLE
  5
21B
100
AcDbEntity
100
AcDbCircle
  8
0
 62
256
370
-1
  6
ByLayer
 10
-3.8000000000000003
 20
97.9999999999999574
 30
0.0
 40
0.02
  0
CIRCLE
  5
21C
100
AcDbEntity
100
AcDbCircle
  8
0
 62
256
370
-1
  6
ByLayer
 10
-3.9000000000000004
 20
97.9999999999999574
 30
0.0
 40
0.02
  0
ARC
  5
21D
100
AcDbEntity
  8
0
 62
256
370
-1
  6
ByLayer
100
AcDbCircle
 10
-3.6999999999999997
 20
97.9999999999999574
 30
0.0
 40
0.0300000000000002
100
AcDbArc
 50
270.0
 51
89.9999999999999858
  0
ARC
  5
21E
100
AcDbEntity
  8
0
 62
256
370
-1
  6
ByLayer
100
AcDbCircle
 10
-3.8999999999999999
 20
97.9999999999999574
 30
0.0
 40
0.0300000000000002
100
AcDbArc
 50
89.9999999999999858
 51
270.0
  0
LINE
  5
21F
100
AcDbEntity
100
AcDbLine
  8
0
 62
256
370
-1
  6
ByLayer
 10
-3.6999999999999997
 20
98.0299999999999585
 30
0.0
 11
-3.8999999999999995
 21
98.0299999999999585
 31
0.0
  0
LINE
  5
220
100
AcDbEntity
100
AcDbLine
  8
0
 62
256
370
-1
  6
ByLayer
 10
-3.8999999999999999
 20
97.9699999999999562
 30
0.0
 11
-3.6999999999999997
 21
97.9699999999999562
 31
0.0
  0
CIRCLE
  5
221
100
AcDbEntity
100
AcDbCircle
  8
0
 62
256
370
-1
  6
ByLayer
 10
-3.7000000000000002
 20
97.8999999999999488
 30
0.0
 40
0.02
  0
CIRCLE
  5
222
100
AcDbEntity
100
AcDbCircle
  8
0
 62
256
370
-1
  6
ByLayer
 10
-3.7999999999999998
 20
97.8999999999999488
 30
0.0
 40
0.02
  0
CIRCLE
  5
223
100
AcDbEntity
100
AcDbCircle
  8
0
 62
256
370
-1
  6
ByLayer
 10
-3.8999999999999999
 20
97.8999999999999488
 30
0.0
 40
0.02
  0
ARC
  5
224
100
AcDbEntity
  8
0
 62
256
370
-1
  6
ByLayer
100
AcDbCircle
 10
-3.7000000000000002
 20
97.8999999999999488
 30
0.0
 40
0.0300000000000002
100
AcDbArc
 50
270.0
 51
89.9999999999999858
  0
ARC
  5
225
100
AcDbEntity
  8
0
 62
256
370
-1
  6
ByLayer
100
AcDbCircle
 10
-3.8999999999999995
 20
97.8999999999999488
 30
0.0
 40
0.0300000000000002
100
AcDbArc
 50
89.9999999999999858
 51
270.0
  0
LINE
  5
226
100
AcDbEntity
100
AcDbLine
  8
0
 62
256
370
-1
  6
ByLayer
 10
-3.6999999999999993
 20
97.92999999999995
 30
0.0
 11
-3.8999999999999995
 21
97.92999999999995
 31
0.0
  0
LINE
  5
227
100
AcDbEntity
100
AcDbLine
  8
0
 62
256
370
-1
  6
ByLayer
 10
-3.8999999999999999
 20
97.8699999999999477
 30
0.0
 11
-3.6999999999999993
 21
97.8699999999999477
 31
0.0
  0
CIRCLE
  5
228
100
AcDbEntity
100
AcDbCircle
  8
0
 62
256
370
-1
  6
ByLayer
 10
-3.6999999999999993
 20
97.7999999999999403
 30
0.0
 40
0.02
  0
CIRCLE
  5
229
100
AcDbEntity
100
AcDbCircle
  8
0
 62
256
370
-1
  6
ByLayer
 10
-3.7999999999999998
 20
97.7999999999999403
 30
0.0
 40
0.02
  0
CIRCLE
  5
22A
100
AcDbEntity
100
AcDbCircle
  8
0
 62
256
370
-1
  6
ByLayer
 10
-3.9000000000000004
 20
97.7999999999999403
 30
0.0
 40
0.02
  0
ARC
  5
22B
100
AcDbEntity
  8
0
 62
256
370
-1
  6
ByLayer
100
AcDbCircle
 10
-3.6999999999999993
 20
97.7999999999999403
 30
0.0
 40
0.0300000000000002
100
AcDbArc
 50
270.0
 51
89.9999999999999858
  0
ARC
  5
22C
100
AcDbEntity
  8
0
 62
256
370
-1
  6
ByLayer
100
AcDbCircle
 10
-3.8999999999999995
 20
97.7999999999999403
 30
0.0
 40
0.0300000000000002
100
AcDbArc
 50
89.9999999999999858
 51
270.0
  0
LINE
  5
22D
100
AcDbEntity
100
AcDbLine
  8
0
 62
256
370
-1
  6
ByLayer
 10
-3.6999999999999997
 20
97.8299999999999415
 30
0.0
 11
-3.8999999999999995
 21
97.8299999999999415
 31
0.0
  0
LINE
  5
22E
100
AcDbEntity
100
AcDbLine
  8
0
 62
256
370
-1
  6
ByLayer
 10
-3.8999999999999995
 20
97.7699999999999392
 30
0.0
 11
-3.7000000000000002
 21
97.7699999999999392
 31
0.0
  0
CIRCLE
  5
22F
100
AcDbEntity
100
AcDbCircle
  8
0
 62
256
370
-1
  6
ByLayer
 10
-3.6999999999999997
 20
97.6999999999999318
 30
0.0
 40
0.02
  0
CIRCLE
  5
230
100
AcDbEntity
100
AcDbCircle
  8
0
 62
256
370
-1
  6
ByLayer
 10
-3.8000000000000003
 20
97.6999999999999318
 30
0.0
 40
0.02
  0
CIRCLE
  5
231
100
AcDbEntity
100
AcDbCircle
  8
0
 62
256
370
-1
  6
ByLayer
 10
-3.8999999999999999
 20
97.6999999999999318
 30
0.0
 40
0.02
  0
ARC
  5
232
100
AcDbEntity
  8
0
 62
256
370
-1
  6
ByLayer
100
AcDbCircle
 10
-3.6999999999999997
 20
97.6999999999999318
 30
0.0
 40
0.0300000000000002
100
AcDbArc
 50
270.0
 51
89.9999999999999858
  0
ARC
  5
233
100
AcDbEntity
  8
0
 62
256
370
-1
  6
ByLayer
100
AcDbCircle
 10
-3.8999999999999999
 20
97.6999999999999318
 30
0.0
 40
0.0300000000000002
100
AcDbArc
 50
89.9999999999999858
 51
270.0
  0
LINE
  5
234
100
AcDbEntity
100
AcDbLine
  8
0
 62
256
370
-1
  6
ByLayer
 10
-3.6999999999999997
 20
97.7299999999999329
 30
0.0
 11
-3.8999999999999995
 21
97.7299999999999329
 31
0.0
  0
LINE
  5
235
100
AcDbEntity
100
AcDbLine
  8
0
 62
256
370
-1
  6
ByLayer
 10
-3.8999999999999995
 20
97.6699999999999307
 30
0.0
 11
-3.7000000000000002
 21
97.6699999999999307
 31
0.0
  0
CIRCLE
  5
236
100
AcDbEntity
100
AcDbCircle
  8
0
 62
256
370
-1
  6
ByLayer
 10
-3.6999999999999997
 20
97.5999999999999233
 30
0.0
 40
0.02
  0
CIRCLE
  5
237
100
AcDbEntity
100
AcDbCircle
  8
0
 62
256
370
-1
  6
ByLayer
 10
-3.7999999999999998
 20
97.5999999999999233
 30
0.0
 40
0.02
  0
CIRCLE
  5
238
100
AcDbEntity
100
AcDbCircle
  8
0
 62
256
370
-1
  6
ByLayer
 10
-3.8999999999999999
 20
97.5999999999999233
 30
0.0
 40
0.02
  0
ARC
  5
239
100
AcDbEntity
  8
0
 62
256
370
-1
  6
ByLayer
100
AcDbCircle
 10
-3.6999999999999997
 20
97.5999999999999233
 30
0.0
 40
0.0300000000000002
100
AcDbArc
 50
270.0
 51
89.9999999999999858
  0
ARC
  5
23A
100
AcDbEntity
  8
0
 62
256
370
-1
  6
ByLayer
100
AcDbCircle
 10
-3.8999999999999995
 20
97.5999999999999233
 30
0.0
 40
0.0300000000000002
100
AcDbArc
 50
89.9999999999999858
 51
270.0
  0
LINE
  5
23B
100
AcDbEntity
100
AcDbLine
  8
0
 62
256
370
-1
  6
ByLayer
 10
-3.6999999999999993
 20
97.6299999999999244
 30
0.0
 11
-3.8999999999999995
 21
97.6299999999999244
 31
0.0
  0
LINE
  5
23C
100
AcDbEntity
100
AcDbLine
  8
0
 62
256
370
-1
  6
ByLayer
 10
-3.8999999999999995
 20
97.5699999999999221
 30
0.0
 11
-3.7000000000000002
 21
97.5699999999999221
 31
0.0
  0
CIRCLE
  5
23D
100
AcDbEntity
100
AcDbCircle
  8
0
 62
256
370
-1
  6
ByLayer
 10
-3.7000000000000002
 20
97.4999999999999147
 30
0.0
 40
0.02
  0
CIRCLE
  5
23E
100
AcDbEntity
100
AcDbCircle
  8
0
 62
256
370
-1
  6
ByLayer
 10
-3.7999999999999994
 20
97.4999999999999147
 30
0.0
 40
0.02
  0
CIRCLE
  5
23F
100
AcDbEntity
100
AcDbCircle
  8
0
 62
256
370
-1
  6
ByLayer
 10
-3.9000000000000004
 20
97.4999999999999147
 30
0.0
 40
0.02
  0
ARC
  5
240
100
AcDbEntity
  8
0
 62
256
370
-1
  6
ByLayer
100
AcDbCircle
 10
-3.7000000000000002
 20
97.4999999999999147
 30
0.0
 40
0.0300000000000002
100
AcDbArc
 50
270.0
 51
89.9999999999999858
  0
ARC
  5
241
100
AcDbEntity
  8
0
 62
256
370
-1
  6
ByLayer
100
AcDbCircle
 10
-3.9000000000000004
 20
97.4999999999999147
 30
0.0
 40
0.0300000000000002
100
AcDbArc
 50
89.9999999999999858
 51
270.0
  0
LINE
  5
242
100
AcDbEntity
100
AcDbLine
  8
0
 62
256
370
-1
  6
ByLayer
 10
-3.7000000000000002
 20
97.5299999999999159
 30
0.0
 11
-3.8999999999999995
 21
97.5299999999999159
 31
0.0
  0
LINE
  5
243
100
AcDbEntity
100
AcDbLine
  8
0
 62
256
370
-1
  6
ByLayer
 10
-3.8999999999999999
 20
97.4699999999999136
 30
0.0
 11
-3.7000000000000002
 21
97.4699999999999136
 31
0.0
  0
ARC
  5
244
100
AcDbEntity
  8
0
 62
256
370
-1
  6
ByLayer
100
AcDbCircle
 10
-3.7999999999999994
 20
98.5
 30
0.0
 40
0.0300000000000002
100
AcDbArc
 50
89.9999999999999858
 51
270.0
  0
LINE
  5
245
100
AcDbEntity
100
AcDbLine
  8
0
 62
256
370
-1
  6
ByLayer
 10
-3.6999999999999997
 20
98.5300000000000011
 30
0.0
 11
-3.7999999999999994
 21
98.5300000000000011
 31
0.0
  0
LINE
  5
246
100
AcDbEntity
100
AcDbLine
  8
0
 62
256
370
-1
  6
ByLayer
 10
-3.7999999999999994
 20
98.4699999999999989
 30
0.0
 11
-3.6999999999999997
 21
98.4699999999999989
 31
0.0
  0
CIRCLE
  5
247
100
AcDbEntity
100
AcDbCircle
  8
0
 62
256
370
-1
  6
ByLayer
 10
-4.0
 20
98.3999999999999915
 30
0.0
 40
0.02
  0
CIRCLE
  5
248
100
AcDbEntity
100
AcDbCircle
  8
0
 62
256
370
-1
  6
ByLayer
 10
-4.0
 20
98.2999999999999829
 30
0.0
 40
0.02
  0
CIRCLE
  5
249
100
AcDbEntity
100
AcDbCircle
  8
0
 62
256
370
-1
  6
ByLayer
 10
-4.0
 20
98.1999999999999744
 30
0.0
 40
0.02
  0
CIRCLE
  5
24A
100
AcDbEntity
100
AcDbCircle
  8
0
 62
256
370
-1
  6
ByLayer
 10
-4.0
 20
98.0999999999999659
 30
0.0
 40
0.02
  0
CIRCLE
  5
24B
100
AcDbEntity
100
AcDbCircle
  8
0
 62
256
370
-1
  6
ByLayer
 10
-4.0
 20
97.9999999999999574
 30
0.0
 40
0.02
  0
CIRCLE
  5
24C
100
AcDbEntity
100
AcDbCircle
  8
0
 62
256
370
-1
  6
ByLayer
 10
-4.0000000000000009
 20
97.8999999999999488
 30
0.0
 40
0.02
  0
CIRCLE
  5
24D
100
AcDbEntity
100
AcDbCircle
  8
0
 62
256
370
-1
  6
ByLayer
 10
-4.0
 20
97.7999999999999403
 30
0.0
 40
0.02
  0
CIRCLE
  5
24E
100
AcDbEntity
100
AcDbCircle
  8
0
 62
256
370
-1
  6
ByLayer
 10
-4.0000000000000009
 20
97.6999999999999318
 30
0.0
 40
0.02
  0
CIRCLE
  5
24F
100
AcDbEntity
100
AcDbCircle
  8
0
 62
256
370
-1
  6
ByLayer
 10
-4.0000000000000009
 20
97.5999999999999233
 30
0.0
 40
0.02
  0
CIRCLE
  5
250
100
AcDbEntity
100
AcDbCircle
  8
0
 62
256
370
-1
  6
ByLayer
 10
-4.0
 20
97.4999999999999147
 30
0.0
 40
0.02
  0
ARC
  5
251
100
AcDbEntity
  8
0
 62
256
370
-1
  6
ByLayer
100
AcDbCircle
 10
-4.0
 20
98.4000000000000057
 30
0.0
 40
0.0300000000000002
100
AcDbArc
 50
360.0
 51
180.0
  0
CIRCLE
  5
252
100
AcDbEntity
100
AcDbCircle
  8
0
 62
256
370
-1
  6
ByLayer
 10
-3.7999999999999998
 20
98.5999999999999943
 30
0.0
 40
0.02
  0
CIRCLE
  5
253
100
AcDbEntity
100
AcDbCircle
  8
0
 62
256
370
-1
  6
ByLayer
 10
-3.6999999999999997
 20
98.5999999999999943
 30
0.0
 40
0.02
  0
CIRCLE
  5
254
100
AcDbEntity
100
AcDbCircle
  8
0
 62
256
370
-1
  6
ByLayer
 10
-3.5999999999999996
 20
98.5999999999999943
 30
0.0
 40
0.02
  0
CIRCLE
  5
255
100
AcDbEntity
100
AcDbCircle
  8
0
 62
256
370
-1
  6
ByLayer
 10
-3.4999999999999996
 20
98.5999999999999943
 30
0.0
 40
0.02
  0
CIRCLE
  5
256
100
AcDbEntity
100
AcDbCircle
  8
0
 62
256
370
-1
  6
ByLayer
 10
-3.3999999999999995
 20
98.5999999999999943
 30
0.0
 40
0.02
  0
CIRCLE
  5
257
100
AcDbEntity
100
AcDbCircle
  8
0
 62
256
370
-1
  6
ByLayer
 10
-3.2999999999999994
 20
98.5999999999999943
 30
0.0
 40
0.02
  0
CIRCLE
  5
258
100
AcDbEntity
100
AcDbCircle
  8
0
 62
256
370
-1
  6
ByLayer
 10
-3.1999999999999993
 20
98.5999999999999943
 30
0.0
 40
0.02
  0
ARC
  5
259
100
AcDbEntity
  8
0
 62
256
370
-1
  6
ByLayer
100
AcDbCircle
 10
-3.7999999999999994
 20
98.6000000000000085
 30
0.0
 40
0.0300000000000002
100
AcDbArc
 50
89.9999999999999858
 51
270.0
  0
LINE
  5
25A
100
AcDbEntity
100
AcDbLine
  8
0
 62
256
370
-1
  6
ByLayer
 10
-3.7999999999999998
 20
98.6299999999999812
 30
0.0
 11
-3.1499999999999999
 21
98.6299999999999812
 31
0.0
  0
LINE
  5
25B
100
AcDbEntity
100
AcDbLine
  8
0
 62
256
370
-1
  6
ByLayer
 10
-3.7999999999999998
 20
98.5699999999999932
 30
0.0
 11
-3.1499999999999999
 21
98.5699999999999932
 31
0.0
  0
CIRCLE
  5
25C
100
AcDbEntity
100
AcDbCircle
  8
0
 62
256
370
-1
  6
ByLayer
 10
-3.9499999999999997
 20
98.5499999999999972
 30
0.0
 40
0.0509901951359291
  0
CIRCLE
  5
25D
100
AcDbEntity
100
AcDbCircle
  8
0
 62
256
370
-1
  6
ByLayer
 10
-3.2999999999999998
 20
98.2999999999999972
 30
0.0
 40
0.02
  0
CIRCLE
  5
25E
100
AcDbEntity
100
AcDbCircle
  8
0
 62
256
370
-1
  6
ByLayer
 10
-3.7000000000000002
 20
98.0999999999999801
 30
0.0
 40
0.02
  0
ARC
  5
25F
100
AcDbEntity
  8
0
 62
256
370
-1
  6
ByLayer
100
AcDbCircle
 10
-3.7000000000000002
 20
98.0999999999999801
 30
0.0
 40
0.0300000000000002
100
AcDbArc
 50
270.0
 51
89.9999999999999858
  0
CIRCLE
  5
260
100
AcDbEntity
100
AcDbCircle
  8
0
 62
256
370
-1
  6
ByLayer
 10
-3.7000000000000006
 20
97.4000000000000057
 30
0.0
 40
0.02
  0
CIRCLE
  5
261
100
AcDbEntity
100
AcDbCircle
  8
0
 62
256
370
-1
  6
ByLayer
 10
-3.8000000000000003
 20
97.4000000000000057
 30
0.0
 40
0.02
  0
ARC
  5
262
100
AcDbEntity
  8
0
 62
256
370
-1
  6
ByLayer
100
AcDbCircle
 10
-3.7000000000000006
 20
97.4000000000000057
 30
0.0
 40
0.0300000000000002
100
AcDbArc
 50
270.0
 51
89.9999999999999858
  0
ARC
  5
263
100
AcDbEntity
  8
0
 62
256
370
-1
  6
ByLayer
100
AcDbCircle
 10
-3.8000000000000003
 20
97.4000000000000057
 30
0.0
 40
0.0300000000000002
100
AcDbArc
 50
89.9999999999999858
 51
270.0
  0
LINE
  5
264
100
AcDbEntity
100
AcDbLine
  8
0
 62
256
370
-1
  6
ByLayer
 10
-3.7000000000000002
 20
97.4300000000000068
 30
0.0
 11
-3.7999999999999994
 21
97.4300000000000068
 31
0.0
  0
LINE
  5
265
100
AcDbEntity
100
AcDbLine
  8
0
 62
256
370
-1
  6
ByLayer
 10
-3.7999999999999989
 20
97.3700000000000045
 30
0.0
 11
-3.7000000000000002
 21
97.3700000000000045
 31
0.0
  0
CIRCLE
  5
266
100
AcDbEntity
100
AcDbCircle
  8
0
 62
256
370
-1
  6
ByLayer
 10
-3.6000000000000001
 20
98.0999999999999659
 30
0.0
 40
0.02
  0
CIRCLE
  5
267
100
AcDbEntity
100
AcDbCircle
  8
0
 62
256
370
-1
  6
ByLayer
 10
-3.6000000000000005
 20
97.3999999999999204
 30
0.0
 40
0.02
  0
LINE
  5
268
100
AcDbEntity
100
AcDbLine
  8
0
 62
256
370
-1
  6
ByLayer
 10
-3.6300000000000008
 20
97.3999999999999915
 30
0.0
 11
-3.6300000000000003
 21
98.5
 31
0.0
  0
LINE
  5
269
100
AcDbEntity
100
AcDbLine
  8
0
 62
256
370
-1
  6
ByLayer
 10
-3.5699999999999998
 20
98.5
 30
0.0
 11
-3.5699999999999998
 21
97.3999999999999915
 31
0.0
  0
ARC
  5
26A
100
AcDbEntity
  8
0
 62
256
370
-1
  6
ByLayer
100
AcDbCircle
 10
-3.5999999999999996
 20
97.3999999999999915
 30
0.0
 40
0.0300000000000002
100
AcDbArc
 50
179.9999999999999716
 51
360.0
  0
CIRCLE
  5
26B
100
AcDbEntity
100
AcDbCircle
  8
0
 62
256
370
-1
  6
ByLayer
 10
-3.7999999999999994
 20
97.2999999999999972
 30
0.0
 40
0.02
  0
CIRCLE
  5
26C
100
AcDbEntity
100
AcDbCircle
  8
0
 62
256
370
-1
  6
ByLayer
 10
-3.7000000000000002
 20
97.2999999999999972
 30
0.0
 40
0.02
  0
CIRCLE
  5
26D
100
AcDbEntity
100
AcDbCircle
  8
0
 62
256
370
-1
  6
ByLayer
 10
-3.5999999999999996
 20
97.2999999999999972
 30
0.0
 40
0.02
  0
CIRCLE
  5
26E
100
AcDbEntity
100
AcDbCircle
  8
0
 62
256
370
-1
  6
ByLayer
 10
-3.4999999999999996
 20
97.2999999999999972
 30
0.0
 40
0.02
  0
CIRCLE
  5
26F
100
AcDbEntity
100
AcDbCircle
  8
0
 62
256
370
-1
  6
ByLayer
 10
-3.3999999999999999
 20
97.2999999999999972
 30
0.0
 40
0.02
  0
CIRCLE
  5
270
100
AcDbEntity
100
AcDbCircle
  8
0
 62
256
370
-1
  6
ByLayer
 10
-3.2999999999999994
 20
97.2999999999999972
 30
0.0
 40
0.02
  0
CIRCLE
  5
271
100
AcDbEntity
100
AcDbCircle
  8
0
 62
256
370
-1
  6
ByLayer
 10
-3.1999999999999993
 20
97.2999999999999972
 30
0.0
 40
0.02
  0
ARC
  5
272
100
AcDbEntity
  8
0
 62
256
370
-1
  6
ByLayer
100
AcDbCircle
 10
-3.7999999999999994
 20
97.3000000000000114
 30
0.0
 40
0.0300000000000002
100
AcDbArc
 50
89.9999999999999858
 51
270.0
  0
LINE
  5
273
100
AcDbEntity
100
AcDbLine
  8
0
 62
256
370
-1
  6
ByLayer
 10
-3.8000000000000003
 20
97.3299999999999841
 30
0.0
 11
-3.1500000000000004
 21
97.3299999999999841
 31
0.0
  0
LINE
  5
274
100
AcDbEntity
100
AcDbLine
  8
0
 62
256
370
-1
  6
ByLayer
 10
-3.7999999999999998
 20
97.269999999999996
 30
0.0
 11
-3.1500000000000004
 21
97.269999999999996
 31
0.0
  0
CIRCLE
  5
275
100
AcDbEntity
100
AcDbCircle
  8
0
 62
256
370
-1
  6
ByLayer
 10
-3.9500000000000002
 20
97.3499999999999943
 30
0.0
 40
0.0509901951359291
  0
ARC
  5
276
100
AcDbEntity
  8
0
 62
256
370
-1
  6
ByLayer
100
AcDbCircle
 10
-4.0000000000000009
 20
97.5
 30
0.0
 40
0.0300000000000002
100
AcDbArc
 50
180.0
 51
360.0
  0
LINE
  5
277
100
AcDbEntity
100
AcDbLine
  8
0
 62
256
370
-1
  6
ByLayer
 10
-3.9700000000000002
 20
98.4000000000000057
 30
0.0
 11
-3.9700000000000006
 21
97.5
 31
0.0
  0
LINE
  5
278
100
AcDbEntity
100
AcDbLine
  8
0
 62
256
370
-1
  6
ByLayer
 10
-4.0300000000000002
 20
97.5
 30
0.0
 11
-4.0300000000000011
 21
98.4000000000000057
 31
0.0
  0
ARC
  5
279
100
AcDbEntity
  8
0
 62
256
370
-1
  6
ByLayer
100
AcDbCircle
 10
-3.5
 20
98.5
 30
0.0
 40
0.0300000000000002
100
AcDbArc
 50
360.0
 51
180.0
  0
LINE
  5
27A
100
AcDbEntity
100
AcDbLine
  8
0
 62
256
370
-1
  6
ByLayer
 10
-3.5300000000000007
 20
97.3999999999999915
 30
0.0
 11
-3.5300000000000002
 21
98.5
 31
0.0
  0
LINE
  5
27B
100
AcDbEntity
100
AcDbLine
  8
0
 62
256
370
-1
  6
ByLayer
 10
-3.4699999999999998
 20
98.5
 30
0.0
 11
-3.4699999999999998
 21
97.3999999999999915
 31
0.0
  0
ARC
  5
27C
100
AcDbEntity
  8
0
 62
256
370
-1
  6
ByLayer
100
AcDbCircle
 10
-3.4999999999999991
 20
97.3999999999999915
 30
0.0
 40
0.0300000000000002
100
AcDbArc
 50
179.9999999999999716
 51
360.0
  0
CIRCLE
  5
27D
100
AcDbEntity
100
AcDbCircle
  8
0
 62
256
370
-1
  6
ByLayer
 10
-3.4999999999999996
 20
97.3999999999999204
 30
0.0
 40
0.02
  0
CIRCLE
  5
27E
100
AcDbEntity
100
AcDbCircle
  8
0
 62
256
370
-1
  6
ByLayer
 10
-3.2000000000000002
 20
97.3999999999999062
 30
0.0
 40
0.02
  0
CIRCLE
  5
27F
100
AcDbEntity
100
AcDbCircle
  8
0
 62
256
370
-1
  6
ByLayer
 10
-3.3000000000000003
 20
97.3999999999999062
 30
0.0
 40
0.02
  0
CIRCLE
  5
280
100
AcDbEntity
100
AcDbCircle
  8
0
 62
256
370
-1
  6
ByLayer
 10
-3.3999999999999999
 20
97.3999999999999062
 30
0.0
 40
0.02
  0
ARC
  5
281
100
AcDbEntity
  8
0
 62
256
370
-1
  6
ByLayer
100
AcDbCircle
 10
-3.2000000000000002
 20
97.3999999999999062
 30
0.0
 40
0.0300000000000002
100
AcDbArc
 50
270.0
 51
89.9999999999999858
  0
ARC
  5
282
100
AcDbEntity
  8
0
 62
256
370
-1
  6
ByLayer
100
AcDbCircle
 10
-3.399999999999999
 20
97.3999999999999062
 30
0.0
 40
0.0300000000000002
100
AcDbArc
 50
89.9999999999999858
 51
270.0
  0
LINE
  5
283
100
AcDbEntity
100
AcDbLine
  8
0
 62
256
370
-1
  6
ByLayer
 10
-3.1999999999999997
 20
97.4299999999999073
 30
0.0
 11
-3.3999999999999995
 21
97.4299999999999073
 31
0.0
  0
LINE
  5
284
100
AcDbEntity
100
AcDbLine
  8
0
 62
256
370
-1
  6
ByLayer
 10
-3.3999999999999995
 20
97.3699999999999051
 30
0.0
 11
-3.1999999999999997
 21
97.3699999999999051
 31
0.0
  0
LINE
  5
285
100
AcDbEntity
100
AcDbLine
  8
0
 62
256
370
-1
  6
ByLayer
 10
-4.0499999999999998
 20
98.6499999999999915
 30
0.0
 11
-4.0499999999999998
 21
97.2500000000000142
 31
0.0
  0
LINE
  5
286
100
AcDbEntity
100
AcDbLine
  8
0
 62
256
370
-1
  6
ByLayer
 10
-4.0499999999999998
 20
97.2500000000000142
 30
0.0
 11
-2.25
 21
97.2500000000000142
 31
0.0
  0
LINE
  5
287
100
AcDbEntity
100
AcDbLine
  8
0
 62
256
370
-1
  6
ByLayer
 10
-2.25
 20
97.25
 30
0.0
 11
-2.25
 21
98.6500000000000057
 31
0.0
  0
LINE
  5
288
100
AcDbEntity
100
AcDbLine
  8
0
 62
256
370
-1
  6
ByLayer
 10
-2.25
 20
98.6500000000000057
 30
0.0
 11
-4.0499999999999998
 21
98.6500000000000057
 31
0.0
  0
LINE
  5
289
100
AcDbEntity
100
AcDbLine
  8
Polaczenia
 62
256
370
-1
  6
ByLayer
 10
-3.5
 20
98.5
 30
0.0
 11
-2.7999999999999998
 21
98.5
 31
0.0
  0
LINE
  5
28A
100
AcDbEntity
100
AcDbLine
  8
Polaczenia
 62
256
370
-1
  6
ByLayer
 10
-3.5
 20
98.2000000000000028
 30
0.0
 11
-3.3999999999999999
 21
98.2000000000000028
 31
0.0
  0
LINE
  5
28B
100
AcDbEntity
100
AcDbLine
  8
Elementy
 62
256
370
-1
  6
ByLayer
 10
-3.4399999999999999
 20
98.4500000000000028
 30
0.0
 11
-3.4399999999999999
 21
98.25
 31
0.0
  0
LINE
  5
28C
100
AcDbEntity
100
AcDbLine
  8
Elementy
 62
256
370
-1
  6
ByLayer
 10
-3.4399999999999999
 20
98.25
 30
0.0
 11
-3.3599999999999999
 21
98.25
 31
0.0
  0
LINE
  5
28D
100
AcDbEntity
100
AcDbLine
  8
Elementy
 62
256
370
-1
  6
ByLayer
 10
-3.3599999999999999
 20
98.25
 30
0.0
 11
-3.3599999999999999
 21
98.4500000000000028
 31
0.0
  0
LINE
  5
28E
100
AcDbEntity
100
AcDbLine
  8
Elementy
 62
256
370
-1
  6
ByLayer
 10
-3.3599999999999999
 20
98.4500000000000028
 30
0.0
 11
-3.4399999999999999
 21
98.4500000000000028
 31
0.0
  0
LINE
  5
28F
100
AcDbEntity
100
AcDbLine
  8
Elementy
 62
256
370
-1
  6
ByLayer
 10
-3.3400000000000003
 20
98.3499999999999943
 30
0.0
 11
-3.2600000000000002
 21
98.3499999999999943
 31
0.0
  0
LINE
  5
290
100
AcDbEntity
100
AcDbLine
  8
Elementy
 62
256
370
-1
  6
ByLayer
 10
-3.2600000000000002
 20
98.3499999999999943
 30
0.0
 11
-3.2600000000000002
 21
97.5499999999999972
 31
0.0
  0
LINE
  5
291
100
AcDbEntity
100
AcDbLine
  8
Elementy
 62
256
370
-1
  6
ByLayer
 10
-3.2600000000000002
 20
97.5499999999999972
 30
0.0
 11
-3.3400000000000003
 21
97.5499999999999972
 31
0.0
  0
LINE
  5
292
100
AcDbEntity
100
AcDbLine
  8
Elementy
 62
256
370
-1
  6
ByLayer
 10
-3.3400000000000003
 20
97.5499999999999972
 30
0.0
 11
-3.3400000000000003
 21
98.3499999999999943
 31
0.0
  0
LINE
  5
293
100
AcDbEntity
100
AcDbLine
  8
Elementy
 62
256
370
-1
  6
ByLayer
 10
-3.04
 20
97.6499999999999915
 30
0.0
 11
-2.96
 21
97.6499999999999915
 31
0.0
  0
LINE
  5
294
100
AcDbEntity
100
AcDbLine
  8
Elementy
 62
256
370
-1
  6
ByLayer
 10
-2.96
 20
97.6499999999999915
 30
0.0
 11
-2.96
 21
98.3500000000000085
 31
0.0
  0
LINE
  5
295
100
AcDbEntity
100
AcDbLine
  8
Elementy
 62
256
370
-1
  6
ByLayer
 10
-2.96
 20
98.3500000000000085
 30
0.0
 11
-3.04
 21
98.3500000000000085
 31
0.0
  0
LINE
  5
296
100
AcDbEntity
100
AcDbLine
  8
Elementy
 62
256
370
-1
  6
ByLayer
 10
-3.04
 20
98.3500000000000085
 30
0.0
 11
-3.04
 21
97.6500000000000057
 31
0.0
  0
CIRCLE
  5
297
100
AcDbEntity
100
AcDbCircle
  8
Punkty
 62
256
370
-1
  6
ByLayer
 10
-3.0000000000000004
 20
98.3000000000000114
 30
0.0
 40
0.04
  0
CIRCLE
  5
298
100
AcDbEntity
100
AcDbCircle
  8
Punkty
 62
256
370
-1
  6
ByLayer
 10
-3.3000000000000007
 20
98.3000000000000114
 30
0.0
 40
0.04
  0
CIRCLE
  5
299
100
AcDbEntity
100
AcDbCircle
  8
Punkty
 62
256
370
-1
  6
ByLayer
 10
-3.4000000000000008
 20
98.4000000000000057
 30
0.0
 40
0.04
  0
CIRCLE
  5
29A
100
AcDbEntity
100
AcDbCircle
  8
Punkty
 62
256
370
-1
  6
ByLayer
 10
-3.4000000000000008
 20
98.3000000000000114
 30
0.0
 40
0.04
  0
CIRCLE
  5
29B
100
AcDbEntity
100
AcDbCircle
  8
Punkty
 62
256
370
-1
  6
ByLayer
 10
-3.3000000000000007
 20
97.5999999999999943
 30
0.0
 40
0.04
  0
CIRCLE
  5
29C
100
AcDbEntity
100
AcDbCircle
  8
Punkty
 62
256
370
-1
  6
ByLayer
 10
-3.0000000000000004
 20
97.7000000000000028
 30
0.0
 40
0.04
  0
LINE
  5
29D
100
AcDbEntity
100
AcDbLine
  8
Polaczenia
 62
256
370
-1
  6
ByLayer
 10
-3.6000000000000005
 20
97.3999999999999915
 30
0.0
 11
-2.7000000000000006
 21
97.3999999999999915
 31
0.0
  0
CIRCLE
  5
29E
100
AcDbEntity
100
AcDbCircle
  8
Punkty
 62
256
370
-1
  6
ByLayer
 10
-3.1000000000000005
 20
98.2999999999999972
 30
0.0
 40
0.04
  0
CIRCLE
  5
29F
100
AcDbEntity
100
AcDbCircle
  8
Punkty
 62
256
370
-1
  6
ByLayer
 10
-3.2000000000000006
 20
98.4000000000000057
 30
0.0
 40
0.04
  0
CIRCLE
  5
2A0
100
AcDbEntity
100
AcDbCircle
  8
Punkty
 62
256
370
-1
  6
ByLayer
 10
-3.2000000000000006
 20
98.2000000000000028
 30
0.0
 40
0.04
  0
LINE
  5
2A1
100
AcDbEntity
100
AcDbLine
  8
Polaczenia
 62
256
370
-1
  6
ByLayer
 10
-3.3999999999999999
 20
97.5999999999999943
 30
0.0
 11
-3.6000000000000001
 21
97.5999999999999943
 31
0.0
  0
CIRCLE
  5
2A2
100
AcDbEntity
100
AcDbCircle
  8
Punkty
 62
256
370
-1
  6
ByLayer
 10
-3.4000000000000012
 20
97.5999999999999801
 30
0.0
 40
0.04
  0
CIRCLE
  5
2A3
100
AcDbEntity
100
AcDbCircle
  8
Punkty
 62
256
370
-1
  6
ByLayer
 10
-3.600000000000001
 20
97.5999999999999801
 30
0.0
 40
0.04
  0
CIRCLE
  5
2A4
100
AcDbEntity
100
AcDbCircle
  8
Punkty
 62
256
370
-1
  6
ByLayer
 10
-3.600000000000001
 20
97.3999999999999773
 30
0.0
 40
0.04
  0
CIRCLE
  5
2A5
100
AcDbEntity
100
AcDbCircle
  8
Punkty
 62
256
370
-1
  6
ByLayer
 10
-2.7000000000000011
 20
97.3999999999999773
 30
0.0
 40
0.04
  0
CIRCLE
  5
2A6
100
AcDbEntity
100
AcDbCircle
  8
Punkty
 62
256
370
-1
  6
ByLayer
 10
-3.4000000000000008
 20
98.1999999999999602
 30
0.0
 40
0.04
  0
CIRCLE
  5
2A7
100
AcDbEntity
100
AcDbCircle
  8
Punkty
 62
256
370
-1
  6
ByLayer
 10
-3.5000000000000009
 20
98.1999999999999602
 30
0.0
 40
0.04
  0
CIRCLE
  5
2A8
100
AcDbEntity
100
AcDbCircle
  8
Punkty
 62
256
370
-1
  6
ByLayer
 10
-3.5000000000000009
 20
98.4999999999999574
 30
0.0
 40
0.04
  0
CIRCLE
  5
2A9
100
AcDbEntity
100
AcDbCircle
  8
Punkty
 62
256
370
-1
  6
ByLayer
 10
-2.8000000000000012
 20
98.4999999999999574
 30
0.0
 40
0.04
  0
ARC
  5
2AA
100
AcDbEntity
  8
Elementy
 62
256
370
-1
  6
ByLayer
100
AcDbCircle
 10
-3.1699999999999999
 20
98.2999999999999972
 30
0.0
 40
0.114017542509914
100
AcDbArc
 50
243.9899362224251718
 51
116.0100637775748424
  0
LINE
  5
2AB
100
AcDbEntity
100
AcDbLine
  8
Elementy
 62
256
370
-1
  6
ByLayer
 10
-3.2199999999999998
 20
98.402469507659589
 30
0.0
 11
-3.2199999999999998
 21
98.1975304923404053
 31
0.0
  0
CIRCLE
  5
2AC
100
AcDbEntity
100
AcDbCircle
  8
Punkty
 62
256
370
-1
  6
ByLayer
 10
-2.6000000000000005
 20
97.8000000000000256
 30
0.0
 40
0.04
  0
CIRCLE
  5
2AD
100
AcDbEntity
100
AcDbCircle
  8
Punkty
 62
256
370
-1
  6
ByLayer
 10
-3.7000000000000006
 20
97.8000000000000256
 30
0.0
 40
0.04
  0
CIRCLE
  5
2AE
100
AcDbEntity
100
AcDbCircle
  8
Punkty
 62
256
370
-1
  6
ByLayer
 10
-3.4000000000000008
 20
97.8000000000000256
 30
0.0
 40
0.04
  0
CIRCLE
  5
2AF
100
AcDbEntity
100
AcDbCircle
  8
Punkty
 62
256
370
-1
  6
ByLayer
 10
-3.2000000000000006
 20
97.8000000000000256
 30
0.0
 40
0.04
  0
CIRCLE
  5
2B0
100
AcDbEntity
100
AcDbCircle
  8
Punkty
 62
256
370
-1
  6
ByLayer
 10
-3.1000000000000005
 20
97.8000000000000256
 30
0.0
 40
0.04
  0
CIRCLE
  5
2B1
100
AcDbEntity
100
AcDbCircle
  8
Punkty
 62
256
370
-1
  6
ByLayer
 10
-2.9000000000000008
 20
97.8000000000000256
 30
0.0
 40
0.04
  0
LINE
  5
2B2
100
AcDbEntity
100
AcDbLine
  8
Polaczenia
 62
256
370
-1
  6
ByLayer
 10
-2.6000000000000001
 20
97.8000000000000114
 30
0.0
 11
-2.9000000000000004
 21
97.8000000000000114
 31
0.0
  0
LINE
  5
2B3
100
AcDbEntity
100
AcDbLine
  8
Polaczenia
 62
256
370
-1
  6
ByLayer
 10
-3.1000000000000001
 20
97.8000000000000114
 30
0.0
 11
-3.2000000000000002
 21
97.8000000000000114
 31
0.0
  0
LINE
  5
2B4
100
AcDbEntity
100
AcDbLine
  8
Polaczenia
 62
256
370
-1
  6
ByLayer
 10
-3.4000000000000004
 20
97.8000000000000114
 30
0.0
 11
-3.7000000000000002
 21
97.8000000000000114
 31
0.0
  0
CIRCLE
  5
2B5
100
AcDbEntity
100
AcDbCircle
  8
Punkty
 62
256
370
-1
  6
ByLayer
 10
-2.6000000000000005
 20
97.9000000000000341
 30
0.0
 40
0.04
  0
CIRCLE
  5
2B6
100
AcDbEntity
100
AcDbCircle
  8
Punkty
 62
256
370
-1
  6
ByLayer
 10
-3.7000000000000006
 20
97.9000000000000341
 30
0.0
 40
0.04
  0
CIRCLE
  5
2B7
100
AcDbEntity
100
AcDbCircle
  8
Punkty
 62
256
370
-1
  6
ByLayer
 10
-3.4000000000000008
 20
97.9000000000000341
 30
0.0
 40
0.04
  0
CIRCLE
  5
2B8
100
AcDbEntity
100
AcDbCircle
  8
Punkty
 62
256
370
-1
  6
ByLayer
 10
-3.2000000000000006
 20
97.9000000000000341
 30
0.0
 40
0.04
  0
CIRCLE
  5
2B9
100
AcDbEntity
100
AcDbCircle
  8
Punkty
 62
256
370
-1
  6
ByLayer
 10
-3.1000000000000005
 20
97.9000000000000341
 30
0.0
 40
0.04
  0
CIRCLE
  5
2BA
100
AcDbEntity
100
AcDbCircle
  8
Punkty
 62
256
370
-1
  6
ByLayer
 10
-2.9000000000000008
 20
97.9000000000000341
 30
0.0
 40
0.04
  0
LINE
  5
2BB
100
AcDbEntity
100
AcDbLine
  8
Polaczenia
 62
256
370
-1
  6
ByLayer
 10
-2.6000000000000001
 20
97.9000000000000199
 30
0.0
 11
-2.9000000000000004
 21
97.9000000000000199
 31
0.0
  0
LINE
  5
2BC
100
AcDbEntity
100
AcDbLine
  8
Polaczenia
 62
256
370
-1
  6
ByLayer
 10
-3.1000000000000001
 20
97.9000000000000199
 30
0.0
 11
-3.2000000000000002
 21
97.9000000000000199
 31
0.0
  0
LINE
  5
2BD
100
AcDbEntity
100
AcDbLine
  8
Polaczenia
 62
256
370
-1
  6
ByLayer
 10
-3.4000000000000004
 20
97.9000000000000199
 30
0.0
 11
-3.7000000000000002
 21
97.9000000000000199
 31
0.0
  0
MTEXT
  5
2BE
100
AcDbEntity
100
AcDbMText
  8
Opisy
 62
256
370
-1
  6
ByLayer
 10
-2.23
 20
98.2200000000000131
 30
0.0
 40
0.05
 41
100.0
 71
1
 72
2
  1
GPS
  7
iso
 50
0.0
 73
0
 44
1.0
  0
MTEXT
  5
2BF
100
AcDbEntity
100
AcDbMText
  8
Opisy
 62
256
370
-1
  6
ByLayer
 10
-3.1400000000000001
 20
98.460000000000008
 30
0.0
 40
0.05
 41
100.0
 71
1
 72
2
  1
NPN
  7
iso
 50
0.0
 73
0
 44
1.0
  0
MTEXT
  5
2C0
100
AcDbEntity
100
AcDbMText
  8
Opisy
 62
256
370
-1
  6
ByLayer
 10
-3.5499999999999998
 20
98.460000000000008
 30
0.0
 40
0.05
 41
100.0
 71
1
 72
2
  1
LED
  7
iso
 50
0.0
 73
0
 44
1.0
  0
MTEXT
  5
2C1
100
AcDbEntity
100
AcDbMText
  8
Opisy
 62
256
370
-1
  6
ByLayer
 10
-2.9500000000000002
 20
98.1700000000000017
 30
0.0
 40
0.05
 41
100.0
 71
1
 72
2
  1
R1\P10k
  7
iso
 50
0.0
 73
0
 44
1.0
  0
MTEXT
  5
2C2
100
AcDbEntity
100
AcDbMText
  8
Opisy
 62
256
370
-1
  6
ByLayer
 10
-3.25
 20
98.1700000000000017
 30
0.0
 40
0.05
 41
100.0
 71
1
 72
2
  1
R2\P470
  7
iso
 50
0.0
 73
0
 44
1.0
  0
MTEXT
  5
2C3
100
AcDbEntity
100
AcDbMText
  8
Opisy
 62
256
370
-1
  6
ByLayer
 10
-3.75
 20
98.210000000000008
 30
0.0
 40
0.05
 41
100.0
 71
1
 72
2
  1
PWR
  7
iso
 50
0.0
 73
0
 44
1.0
  0
MTEXT
  5
2C4
100
AcDbEntity
100
AcDbMText
  8
Opisy
 62
256
370
-1
  6
ByLayer
 10
-4.04
 20
98.210000000000008
 30
0.0
 40
0.05
 41
100.0
 71
1
 72
2
  1
Arduino
  7
iso
 50
0.0
 73
0
 44
1.0
  0
ENDSEC
  0
SECTION
  2
OBJECTS
  0
DICTIONARY
  5
C
100
AcDbDictionary
280
0
281
1
  3
ACAD_GROUP
350
D
  3
ACAD_LAYOUT
350
1A
  3
ACAD_MLINESTYLE
350
17
  3
ACAD_PLOTSETTINGS
350
19
  3
ACAD_PLOTSTYLENAME
350
E
  3
AcDbVariableDictionary
350
2C5
  0
DICTIONARY
  5
D
100
AcDbDictionary
280
0
281
1
  0
ACDBDICTIONARYWDFLT
  5
E
100
AcDbDictionary
281
1
  3
Normal
350
F
100
AcDbDictionaryWithDefault
340
F
  0
ACDBPLACEHOLDER
  5
F
  0
DICTIONARY
  5
17
100
AcDbDictionary
280
0
281
1
  3
Standard
350
18
  0
MLINESTYLE
  5
18
100
AcDbMlineStyle
  2
STANDARD
 70
0
  3

 62
256
 51
90.0
 52
90.0
 71
2
 49
0.5
 62
256
  6
BYLAYER
 49
-0.5
 62
256
  6
BYLAYER
  0
DICTIONARY
  5
19
100
AcDbDictionary
280
0
281
1
  0
DICTIONARY
  5
1A
100
AcDbDictionary
281
1
  3
Layout1
350
1E
  3
Layout2
350
26
  3
Model
350
22
  0
LAYOUT
  5
1E
100
AcDbPlotSettings
  1

  2
C:\Program Files\AutoCAD 2002\plotters\DWF ePlot (optimized for plotting).pc3
  4

  6

 40
0.0
 41
0.0
 42
0.0
 43
0.0
 44
0.0
 45
0.0
 46
0.0
 47
0.0
 48
0.0
 49
0.0
140
0.0
141
0.0
142
1.0
143
1.0
 70
688
 72
0
 73
0
 74
5
  7

 75
16
147
1.0
148
0.0
149
0.0
100
AcDbLayout
  1
Layout1
 70
1
 71
1
 10
0.0
 20
0.0
 11
420.0
 21
297.0
 12
0.0
 22
0.0
 32
0.0
 14
100000000000000000000.0
 24
100000000000000000000.0
 34
100000000000000000000.0
 15
-100000000000000000000.0
 25
-100000000000000000000.0
 35
-100000000000000000000.0
146
0.0
 13
0.0
 23
0.0
 33
0.0
 16
1.0
 26
0.0
 36
0.0
 17
0.0
 27
1.0
 37
0.0
 76
0
330
1B
  0
LAYOUT
  5
22
100
AcDbPlotSettings
  1

  2
C:\Program Files\AutoCAD 2002\plotters\DWF ePlot (optimized for plotting).pc3
  4

  6

 40
0.0
 41
0.0
 42
0.0
 43
0.0
 44
0.0
 45
0.0
 46
0.0
 47
0.0
 48
0.0
 49
0.0
140
0.0
141
0.0
142
1.0
143
1.0
 70
1712
 72
0
 73
0
 74
0
  7

 75
0
147
1.0
148
0.0
149
0.0
100
AcDbLayout
  1
Model
 70
1
 71
0
 10
0.0
 20
0.0
 11
12.0
 21
9.0
 12
0.0
 22
0.0
 32
0.0
 14
0.0
 24
0.0
 34
0.0
 15
0.0
 25
0.0
 35
0.0
146
0.0
 13
0.0
 23
0.0
 33
0.0
 16
1.0
 26
0.0
 36
0.0
 17
0.0
 27
1.0
 37
0.0
 76
0
330
1F
  0
LAYOUT
  5
26
100
AcDbPlotSettings
  1

  2
C:\Program Files\AutoCAD 2002\plotters\DWF ePlot (optimized for plotting).pc3
  4

  6

 40
0.0
 41
0.0
 42
0.0
 43
0.0
 44
0.0
 45
0.0
 46
0.0
 47
0.0
 48
0.0
 49
0.0
140
0.0
141
0.0
142
1.0
143
1.0
 70
688
 72
0
 73
0
 74
5
  7

 75
16
147
1.0
148
0.0
149
0.0
100
AcDbLayout
  1
Layout2
 70
1
 71
2
 10
0.0
 20
0.0
 11
12.0
 21
9.0
 12
0.0
 22
0.0
 32
0.0
 14
0.0
 24
0.0
 34
0.0
 15
0.0
 25
0.0
 35
0.0
146
0.0
 13
0.0
 23
0.0
 33
0.0
 16
1.0
 26
0.0
 36
0.0
 17
0.0
 27
1.0
 37
0.0
 76
0
330
23
  0
DICTIONARY
  5
2C5
100
AcDbDictionary
281
1
  3
DIMASSOC
350
2C7
  3
HIDETEXT
350
2C6
  0
DICTIONARYVAR
  5
2C6
100
DictionaryVariables
280
0
  1
2
  0
DICTIONARYVAR
  5
2C7
100
DictionaryVariables
280
0
  1
1
  0
ENDSEC
  0
EOF
