999
dxflib 2.2.0.0
  0
SECTION
  2
HEADER
  9
$ACADVER
  1
AC1015
  9
$HANDSEED
  5
FFFF
  9
$SNAPSTYLE
 70
0
  9
$DIMAUNIT
 70
0
  9
$EXTMAX
 10
1051.0618616599999768
 20
935.0012000890000081
 30
0.0
  9
$ORTHOMODE
 70
0
  9
$INSBASE
 10
0.0
 20
0.0
 30
0.0
  9
$DIMEXE
 40
1.25
  9
$PSVPSCALE
 40
0.207870388655
  9
$AUPREC
 70
2
  9
$SPLINESEGS
 70
32
  9
$GRIDMODE
 70
1
  9
$DIMEXO
 40
0.625
  9
$AUNITS
 70
0
  9
$LIMMIN
 10
0.0
 20
0.0
  9
$PINSBASE
 10
23.9282467554
 20
34.1623169862999987
 30
0.0
  9
$PLIMMIN
 10
0.0
 20
0.0
  9
$DIMGAP
 40
0.625
  9
$LUPREC
 70
4
  9
$DIMTSZ
 40
0.0
  9
$GRIDUNIT
 10
0.0
 20
0.0
  9
$CLAYER
  8
Display Switch
  9
$LIMMAX
 10
420.0
 20
297.0
  9
$LUNITS
 70
2
  9
$LTSCALE
 40
1.0
  9
$INSUNITS
 70
4
  9
$DIMLUNIT
 70
2
  9
$DIMTXT
 40
2.5
  9
$PLIMMAX
 10
210.0
 20
297.0
  9
$DIMADEC
 70
2
  9
$DIMSCALE
 40
1.0
  9
$TEXTSTYLE
  7
STANDARD
  9
$DWGCODEPAGE
  3
ANSI_1250
  9
$EXTMIN
 10
150.0
 20
279.7711596390000182
 30
0.0
  9
$DIMSTYLE
  2
Standard
  9
$DIMASZ
 40
2.5
  9
$DIMLFAC
 40
1.0
  9
$DIMTIH
 70
0
  0
ENDSEC
  0
SECTION
  2
TABLES
  0
TABLE
  2
VPORT
  5
8
100
AcDbSymbolTable
 70
1
  0
VPORT
  5
30
100
AcDbSymbolTableRecord
100
AcDbViewportTableRecord
  2
*Active
 70
0
 10
0.0
 20
0.0
 11
1.0
 21
1.0
 12
286.3055555555554861
 22
148.5
 13
0.0
 23
0.0
 14
10.0
 24
10.0
 15
10.0
 25
10.0
 16
0.0
 26
0.0
 36
1.0
 17
0.0
 27
0.0
 37
0.0
 40
297.0
 41
1.92798353909465
 42
50.0
 43
0.0
 44
0.0
 50
0.0
 51
0.0
 71
0
 72
100
 73
1
 74
3
 75
1
 76
1
 77
0
 78
0
281
0
 65
1
110
0.0
120
0.0
130
0.0
111
1.0
121
0.0
131
0.0
112
0.0
122
1.0
132
0.0
 79
0
146
0.0
  0
ENDTAB
  0
TABLE
  2
LTYPE
  5
5
100
AcDbSymbolTable
 70
21
  0
LTYPE
  5
14
100
AcDbSymbolTableRecord
100
AcDbLinetypeTableRecord
  2
ByBlock
 70
0
  3

 72
65
 73
0
 40
0.0
  0
LTYPE
  5
15
100
AcDbSymbolTableRecord
100
AcDbLinetypeTableRecord
  2
ByLayer
 70
0
  3

 72
65
 73
0
 40
0.0
  0
LTYPE
  5
16
100
AcDbSymbolTableRecord
100
AcDbLinetypeTableRecord
  2
CONTINUOUS
 70
0
  3
Solid line
 72
65
 73
0
 40
0.0
  0
LTYPE
  5
31
100
AcDbSymbolTableRecord
100
AcDbLinetypeTableRecord
  2
DOT
 70
0
  3
Dot . . . . . . . . . . . . . . . . . . . . . .
 72
65
 73
2
 40
6.3499999999999996
 49
0.0
 74
0
 49
-6.3499999999999996
 74
0
  0
LTYPE
  5
32
100
AcDbSymbolTableRecord
100
AcDbLinetypeTableRecord
  2
DOT2
 70
0
  3
Dot (.5x) .....................................
 72
65
 73
2
 40
3.1749999999999998
 49
0.0
 74
0
 49
-3.1749999999999998
 74
0
  0
LTYPE
  5
33
100
AcDbSymbolTableRecord
100
AcDbLinetypeTableRecord
  2
DOTX2
 70
0
  3
Dot (2x) .  .  .  .  .  .  .  .  .  .  .  .  .
 72
65
 73
2
 40
12.6999999999999993
 49
0.0
 74
0
 49
-12.6999999999999993
 74
0
  0
LTYPE
  5
34
100
AcDbSymbolTableRecord
100
AcDbLinetypeTableRecord
  2
DASHED
 70
0
  3
Dashed __ __ __ __ __ __ __ __ __ __ __ __ __ _
 72
65
 73
2
 40
19.0500000000000007
 49
12.6999999999999993
 74
0
 49
-6.3499999999999996
 74
0
  0
LTYPE
  5
35
100
AcDbSymbolTableRecord
100
AcDbLinetypeTableRecord
  2
DASHED2
 70
0
  3
Dashed (.5x) _ _ _ _ _ _ _ _ _ _ _ _ _ _ _ _ _
 72
65
 73
2
 40
9.5250000000000004
 49
6.3499999999999996
 74
0
 49
-3.1749999999999998
 74
0
  0
LTYPE
  5
36
100
AcDbSymbolTableRecord
100
AcDbLinetypeTableRecord
  2
DASHEDX2
 70
0
  3
Dashed (2x) ____  ____  ____  ____  ____  ___
 72
65
 73
2
 40
38.1000000000000014
 49
25.3999999999999986
 74
0
 49
-12.6999999999999993
 74
0
  0
LTYPE
  5
37
100
AcDbSymbolTableRecord
100
AcDbLinetypeTableRecord
  2
DASHDOT
 70
0
  3
Dash dot __ . __ . __ . __ . __ . __ . __ . __
 72
65
 73
4
 40
25.3999999999999986
 49
12.6999999999999993
 74
0
 49
-6.3499999999999996
 74
0
 49
0.0
 74
0
 49
-6.3499999999999996
 74
0
  0
LTYPE
  5
38
100
AcDbSymbolTableRecord
100
AcDbLinetypeTableRecord
  2
DASHDOT2
 70
0
  3
Dash dot (.5x) _._._._._._._._._._._._._._._.
 72
65
 73
4
 40
12.6999999999999993
 49
6.3499999999999996
 74
0
 49
-3.1749999999999998
 74
0
 49
0.0
 74
0
 49
-3.1749999999999998
 74
0
  0
LTYPE
  5
39
100
AcDbSymbolTableRecord
100
AcDbLinetypeTableRecord
  2
DASHDOTX2
 70
0
  3
Dash dot (2x) ____  .  ____  .  ____  .  ___
 72
65
 73
4
 40
50.7999999999999972
 49
25.3999999999999986
 74
0
 49
-12.6999999999999993
 74
0
 49
0.0
 74
0
 49
-12.6999999999999993
 74
0
  0
LTYPE
  5
3A
100
AcDbSymbolTableRecord
100
AcDbLinetypeTableRecord
  2
DIVIDE
 70
0
  3
Divide ____ . . ____ . . ____ . . ____ . . ____
 72
65
 73
6
 40
31.75
 49
12.6999999999999993
 74
0
 49
-6.3499999999999996
 74
0
 49
0.0
 74
0
 49
-6.3499999999999996
 74
0
 49
0.0
 74
0
 49
-6.3499999999999996
 74
0
  0
LTYPE
  5
3B
100
AcDbSymbolTableRecord
100
AcDbLinetypeTableRecord
  2
DIVIDE2
 70
0
  3
Divide (.5x) __..__..__..__..__..__..__..__.._
 72
65
 73
6
 40
15.875
 49
6.3499999999999996
 74
0
 49
-3.1749999999999998
 74
0
 49
0.0
 74
0
 49
-3.1749999999999998
 74
0
 49
0.0
 74
0
 49
-3.1749999999999998
 74
0
  0
LTYPE
  5
3C
100
AcDbSymbolTableRecord
100
AcDbLinetypeTableRecord
  2
DIVIDEX2
 70
0
  3
Divide (2x) ________  .  .  ________  .  .  _
 72
65
 73
6
 40
63.5
 49
25.3999999999999986
 74
0
 49
-12.6999999999999993
 74
0
 49
0.0
 74
0
 49
-12.6999999999999993
 74
0
 49
0.0
 74
0
 49
-12.6999999999999993
 74
0
  0
LTYPE
  5
3D
100
AcDbSymbolTableRecord
100
AcDbLinetypeTableRecord
  2
CENTER
 70
0
  3
Center ____ _ ____ _ ____ _ ____ _ ____ _ ____
 72
65
 73
4
 40
50.7999999999999972
 49
31.75
 74
0
 49
-6.3499999999999996
 74
0
 49
6.3499999999999996
 74
0
 49
-6.3499999999999996
 74
0
  0
LTYPE
  5
3E
100
AcDbSymbolTableRecord
100
AcDbLinetypeTableRecord
  2
CENTER2
 70
0
  3
Center (.5x) ___ _ ___ _ ___ _ ___ _ ___ _ ___
 72
65
 73
4
 40
28.5749999999999993
 49
19.0500000000000007
 74
0
 49
-3.1749999999999998
 74
0
 49
3.1749999999999998
 74
0
 49
-3.1749999999999998
 74
0
  0
LTYPE
  5
3F
100
AcDbSymbolTableRecord
100
AcDbLinetypeTableRecord
  2
CENTERX2
 70
0
  3
Center (2x) ________  __  ________  __  _____
 72
65
 73
4
 40
101.5999999999999943
 49
63.5
 74
0
 49
-12.6999999999999993
 74
0
 49
12.6999999999999993
 74
0
 49
-12.6999999999999993
 74
0
  0
LTYPE
  5
40
100
AcDbSymbolTableRecord
100
AcDbLinetypeTableRecord
  2
BORDER
 70
0
  3
Border __ __ . __ __ . __ __ . __ __ . __ __ .
 72
65
 73
6
 40
44.4500000000000028
 49
12.6999999999999993
 74
0
 49
-6.3499999999999996
 74
0
 49
12.6999999999999993
 74
0
 49
-6.3499999999999996
 74
0
 49
0.0
 74
0
 49
-6.3499999999999996
 74
0
  0
LTYPE
  5
41
100
AcDbSymbolTableRecord
100
AcDbLinetypeTableRecord
  2
BORDER2
 70
0
  3
Border (.5x) __.__.__.__.__.__.__.__.__.__.__.
 72
65
 73
6
 40
22.2250000000000014
 49
6.3499999999999996
 74
0
 49
-3.1749999999999998
 74
0
 49
6.3499999999999996
 74
0
 49
-3.1749999999999998
 74
0
 49
0.0
 74
0
 49
-3.1749999999999998
 74
0
  0
LTYPE
  5
42
100
AcDbSymbolTableRecord
100
AcDbLinetypeTableRecord
  2
BORDERX2
 70
0
  3
Border (2x) ____  ____  .  ____  ____  .  ___
 72
65
 73
6
 40
88.9000000000000057
 49
25.3999999999999986
 74
0
 49
-12.6999999999999993
 74
0
 49
25.3999999999999986
 74
0
 49
-12.6999999999999993
 74
0
 49
0.0
 74
0
 49
-12.6999999999999993
 74
0
  0
ENDTAB
  0
TABLE
  2
LAYER
  5
2
100
AcDbSymbolTable
 70
9
  0
LAYER
  5
10
100
AcDbSymbolTableRecord
100
AcDbLayerTableRecord
  2
0
 70
0
 62
7
  6
CONTINUOUS
370
-3
390
F
  0
LAYER
  5
43
100
AcDbSymbolTableRecord
100
AcDbLayerTableRecord
  2
Wires - red
 70
0
 62
1
  6
CONTINUOUS
370
200
390
F
  0
LAYER
  5
44
100
AcDbSymbolTableRecord
100
AcDbLayerTableRecord
  2
Wires - blue
 70
0
 62
5
  6
CONTINUOUS
370
200
390
F
  0
LAYER
  5
45
100
AcDbSymbolTableRecord
100
AcDbLayerTableRecord
  2
Wires - yellow
 70
0
 62
2
  6
CONTINUOUS
370
200
390
F
  0
LAYER
  5
46
100
AcDbSymbolTableRecord
100
AcDbLayerTableRecord
  2
Wires - green
 70
0
 62
3
  6
CONTINUOUS
370
200
390
F
  0
LAYER
  5
47
100
AcDbSymbolTableRecord
100
AcDbLayerTableRecord
  2
Wires - orange
 70
0
 62
30
  6
CONTINUOUS
370
200
390
F
  0
LAYER
  5
48
100
AcDbSymbolTableRecord
100
AcDbLayerTableRecord
  2
Wires - pink
 70
0
 62
241
  6
CONTINUOUS
370
200
390
F
  0
LAYER
  5
49
100
AcDbSymbolTableRecord
100
AcDbLayerTableRecord
  2
PPS_LED
 70
0
 62
7
  6
CONTINUOUS
370
200
390
F
  0
LAYER
  5
4A
100
AcDbSymbolTableRecord
100
AcDbLayerTableRecord
  2
Switches
 70
0
 62
7
  6
CONTINUOUS
370
200
390
F
  0
ENDTAB
  0
TABLE
  2
STYLE
  5
3
100
AcDbSymbolTable
 70
1
  0
STYLE
  5
11
100
AcDbSymbolTableRecord
100
AcDbTextStyleTableRecord
  2
Standard
 70
0
 40
0.0
 41
0.75
 50
0.0
 71
0
 42
2.5
  3
txt
  4

  0
ENDTAB
  0
TABLE
  2
VIEW
  5
6
100
AcDbSymbolTable
 70
0
  0
ENDTAB
  0
TABLE
  2
UCS
  5
7
100
AcDbSymbolTable
 70
0
  0
ENDTAB
  0
TABLE
  2
APPID
  5
9
100
AcDbSymbolTable
 70
1
  0
APPID
  5
12
100
AcDbSymbolTableRecord
100
AcDbRegAppTableRecord
  2
ACAD
 70
0
  0
ENDTAB
  0
TABLE
  2
DIMSTYLE
  5
A
100
AcDbSymbolTable
 70
1
100
AcDbDimStyleTable
 71
0
  0
DIMSTYLE
105
27
100
AcDbSymbolTableRecord
100
AcDbDimStyleTableRecord
  2
Standard
 41
2.5
 42
0.625
 43
3.75
 44
1.25
 70
0
 73
0
 74
0
 77
1
 78
8
140
2.5
141
2.5
143
0.03937007874016
147
0.625
171
3
172
1
271
2
272
2
274
3
278
44
283
0
284
8
340
11
  0
ENDTAB
  0
TABLE
  2
BLOCK_RECORD
  5
1
100
AcDbSymbolTable
 70
1
  0
BLOCK_RECORD
  5
1F
100
AcDbSymbolTableRecord
100
AcDbBlockTableRecord
  2
*Model_Space
340
22
  0
BLOCK_RECORD
  5
1B
100
AcDbSymbolTableRecord
100
AcDbBlockTableRecord
  2
*Paper_Space
340
1E
  0
BLOCK_RECORD
  5
23
100
AcDbSymbolTableRecord
100
AcDbBlockTableRecord
  2
*Paper_Space0
340
26
  0
ENDTAB
  0
ENDSEC
  0
SECTION
  2
BLOCKS
  0
BLOCK
  5
20
100
AcDbEntity
  8
0
100
AcDbBlockBegin
  2
*Model_Space
 70
0
 10
0.0
 20
0.0
 30
0.0
  3
*Model_Space
  1

  0
ENDBLK
  5
21
100
AcDbEntity
  8
0
100
AcDbBlockEnd
  0
BLOCK
  5
1C
100
AcDbEntity
 67
1
  8
0
100
AcDbBlockBegin
  2
*Paper_Space
 70
0
 10
0.0
 20
0.0
 30
0.0
  3
*Paper_Space
  1

  0
ENDBLK
  5
1D
100
AcDbEntity
 67
1
  8
0
100
AcDbBlockEnd
  0
BLOCK
  5
24
100
AcDbEntity
  8
0
100
AcDbBlockBegin
  2
*Paper_Space0
 70
0
 10
0.0
 20
0.0
 30
0.0
  3
*Paper_Space0
  1

  0
ENDBLK
  5
25
100
AcDbEntity
  8
0
100
AcDbBlockEnd
  0
ENDSEC
  0
SECTION
  2
ENTITIES
  0
HATCH
  5
4B
  8
PPS_LED
 62
256
370
-1
  6
ByLayer
100
AcDbEntity
100
AcDbHatch
 10
0.0
 20
0.0
 30
0.0
210
0.0
220
0.0
230
1.0
  2
SOLID
 70
1
 71
0
 91
1
 92
1
 93
3
 72
1
 10
199.0
 20
708.0
 11
204.0
 21
714.0
 72
1
 10
204.0
 20
714.0
 11
207.0
 21
708.0
 72
1
 10
207.0
 20
708.0
 11
199.0
 21
708.0
 97
0
 75
0
 76
1
 98
0
  0
IMAGE
  5
4C
  8
0
 62
256
370
-1
  6
ByLayer
100
AcDbEntity
100
AcDbRasterImage
 90
0
 10
411.4187774530000183
 20
707.0012000890000081
 30
0.0
 11
1.0
 21
0.0
 31
0.0
 12
0.0000000000000001
 22
1.0
 32
0.0
 13
150.0
 23
228.0
340
4D
 70
15
280
0
281
50
282
50
283
0
  0
IMAGE
  5
4E
  8
0
 62
256
370
-1
  6
ByLayer
100
AcDbEntity
100
AcDbRasterImage
 90
0
 10
199.7178531319999877
 20
319.5485650119999832
 30
0.0
 11
1.0
 21
0.0
 31
0.0
 12
0.0000000000000001
 22
1.0
 32
0.0
 13
416.0
 23
297.0
340
4F
 70
15
280
0
281
50
282
50
283
0
  0
IMAGE
  5
50
  8
Wires - red
 62
256
370
-1
  6
ByLayer
100
AcDbEntity
100
AcDbRasterImage
 90
0
 10
664.0618616650000376
 20
319.5485650119999832
 30
0.0
 11
1.0
 21
0.0
 31
0.0
 12
0.0000000000000001
 22
1.0
 32
0.0
 13
387.0
 23
297.0
340
51
 70
15
280
0
281
50
282
50
283
0
  0
LINE
  5
52
100
AcDbEntity
100
AcDbLine
  8
Wires - red
 62
256
370
-1
  6
ByLayer
 10
482.6461525940000001
 20
718.2429186059999893
 30
0.0
 11
482.6461525940000001
 21
652.799372491999975
 31
0.0
  0
LINE
  5
53
100
AcDbEntity
100
AcDbLine
  8
Wires - red
 62
256
370
-1
  6
ByLayer
 10
445.8341579049999837
 20
296.132046167999988
 30
0.0
 11
445.8341579049999837
 21
334.5801295100000061
 31
0.0
  0
LINE
  5
54
100
AcDbEntity
100
AcDbLine
  8
Wires - blue
 62
256
370
-1
  6
ByLayer
 10
150.0
 20
280.0
 30
0.0
 11
460.0
 21
280.0
 31
0.0
  0
LINE
  5
55
100
AcDbEntity
100
AcDbLine
  8
Wires - blue
 62
256
370
-1
  6
ByLayer
 10
460.0
 20
330.0
 30
0.0
 11
460.0
 21
330.0
 31
0.0
  0
LINE
  5
56
100
AcDbEntity
100
AcDbLine
  8
Wires - red
 62
256
370
-1
  6
ByLayer
 10
445.0161135779999881
 20
296.132046167999988
 30
0.0
 11
445.0161135779999881
 21
296.132046167999988
 31
0.0
  0
LINE
  5
57
100
AcDbEntity
100
AcDbLine
  8
Wires - orange
 62
256
370
-1
  6
ByLayer
 10
516.1859699780000028
 20
602.8986685789999456
 30
0.0
 11
516.1859699780000028
 21
602.8986685789999456
 31
0.0
  0
LINE
  5
58
100
AcDbEntity
100
AcDbLine
  8
Wires - yellow
 62
256
370
-1
  6
ByLayer
 10
436.017625986999974
 20
719.0609629320000522
 30
0.0
 11
436.017625986999974
 21
719.0609629320000522
 31
0.0
  0
LINE
  5
59
100
AcDbEntity
100
AcDbLine
  8
Wires - blue
 62
256
370
-1
  6
ByLayer
 10
470.0
 20
650.0
 30
0.0
 11
150.0
 21
650.0
 31
0.0
  0
LINE
  5
5A
100
AcDbEntity
100
AcDbLine
  8
Wires - red
 62
256
370
-1
  6
ByLayer
 10
482.6461525940000001
 20
652.799372491999975
 30
0.0
 11
482.6461525940000001
 21
632.799372491999975
 31
0.0
  0
LINE
  5
5B
100
AcDbEntity
100
AcDbLine
  8
Wires - blue
 62
256
370
-1
  6
ByLayer
 10
150.0
 20
650.0
 30
0.0
 11
150.0
 21
280.0
 31
0.0
  0
LINE
  5
5C
100
AcDbEntity
100
AcDbLine
  8
Wires - red
 62
256
370
-1
  6
ByLayer
 10
166.881042592
 20
632.799372491999975
 30
0.0
 11
166.881042592
 21
296.132046167999988
 31
0.0
  0
LINE
  5
5D
100
AcDbEntity
100
AcDbLine
  8
Wires - green
 62
256
370
-1
  6
ByLayer
 10
459.6754679079999732
 20
718.8319105210000544
 30
0.0
 11
459.6754679079999732
 21
677.4715893769999866
 31
0.0
  0
LINE
  5
5E
100
AcDbEntity
100
AcDbLine
  8
Wires - orange
 62
256
370
-1
  6
ByLayer
 10
448.1574037920000251
 20
718.8319105210000544
 30
0.0
 11
448.1574037920000251
 21
668.5712671049999472
 31
0.0
  0
LINE
  5
5F
100
AcDbEntity
100
AcDbLine
  8
Wires - orange
 62
256
370
-1
  6
ByLayer
 10
448.1574037920000251
 20
668.5712671049999472
 30
0.0
 11
517.2657884889999877
 21
668.5712671049999472
 31
0.0
  0
LINE
  5
60
100
AcDbEntity
100
AcDbLine
  8
Wires - yellow
 62
256
370
-1
  6
ByLayer
 10
436.8487590230000137
 20
718.7272008469999491
 30
0.0
 11
436.8487590230000137
 21
659.2521061380000447
 31
0.0
  0
LINE
  5
61
100
AcDbEntity
100
AcDbLine
  8
Wires - yellow
 62
256
370
-1
  6
ByLayer
 10
436.8487590230000137
 20
659.2521061380000447
 30
0.0
 11
545.327981062000049
 21
659.2521061380000447
 31
0.0
  0
LINE
  5
62
100
AcDbEntity
100
AcDbLine
  8
Wires - yellow
 62
256
370
-1
  6
ByLayer
 10
545.327981062000049
 20
659.2521061380000447
 30
0.0
 11
545.327981062000049
 21
603.1277209910000465
 31
0.0
  0
LINE
  5
63
100
AcDbEntity
100
AcDbLine
  8
Wires - blue
 62
256
370
-1
  6
ByLayer
 10
470.0
 20
650.0
 30
0.0
 11
470.0
 21
718.8319105210000544
 31
0.0
  0
LINE
  5
64
100
AcDbEntity
100
AcDbLine
  8
Wires - blue
 62
256
370
-1
  6
ByLayer
 10
460.3874936899999852
 20
334.4165206449999914
 30
0.0
 11
460.3874936899999852
 21
280.1193193049999763
 31
0.0
  0
LINE
  5
65
100
AcDbEntity
100
AcDbLine
  8
Wires - pink
 62
256
370
-1
  6
ByLayer
 10
642.3938486590000139
 20
548.2598519279999891
 30
0.0
 11
395.802566899999988
 21
548.2598519279999891
 31
0.0
  0
LINE
  5
66
100
AcDbEntity
100
AcDbLine
  8
Wires - pink
 62
256
370
-1
  6
ByLayer
 10
395.802566899999988
 20
548.2598519279999891
 30
0.0
 11
395.802566899999988
 21
603.1277209910000465
 31
0.0
  0
LINE
  5
67
100
AcDbEntity
100
AcDbLine
  8
Wires - pink
 62
256
370
-1
  6
ByLayer
 10
409.2054051439999967
 20
603.1277209910000465
 30
0.0
 11
409.2054051439999967
 21
548.2598519279999891
 31
0.0
  0
LINE
  5
68
100
AcDbEntity
100
AcDbLine
  8
Wires - pink
 62
256
370
-1
  6
ByLayer
 10
423.445920779000005
 20
602.7088822959999561
 30
0.0
 11
423.445920779000005
 21
548.2598519279999891
 31
0.0
  0
LINE
  5
69
100
AcDbEntity
100
AcDbLine
  8
Wires - pink
 62
256
370
-1
  6
ByLayer
 10
437.686436413000024
 20
603.1277209910000465
 30
0.0
 11
437.686436413000024
 21
548.2598519279999891
 31
0.0
  0
LINE
  5
6A
100
AcDbEntity
100
AcDbLine
  8
Wires - green
 62
256
370
-1
  6
ByLayer
 10
459.6754679079999732
 20
677.4715893769999866
 30
0.0
 11
587.2024400230000083
 21
677.4715893769999866
 31
0.0
  0
LINE
  5
6B
100
AcDbEntity
100
AcDbLine
  8
Wires - green
 62
256
370
-1
  6
ByLayer
 10
587.2024400230000083
 20
677.4715893769999866
 30
0.0
 11
587.2024400230000083
 21
603.4877691829999549
 31
0.0
  0
LINE
  5
6C
100
AcDbEntity
100
AcDbLine
  8
Wires - orange
 62
256
370
-1
  6
ByLayer
 10
517.2657884889999877
 20
668.5712671049999472
 30
0.0
 11
573.708881574999964
 21
668.5712671049999472
 31
0.0
  0
LINE
  5
6D
100
AcDbEntity
100
AcDbLine
  8
Wires - orange
 62
256
370
-1
  6
ByLayer
 10
573.708881574999964
 20
668.5712671049999472
 30
0.0
 11
573.708881574999964
 21
602.5571789460000218
 31
0.0
  0
CIRCLE
  5
6E
100
AcDbEntity
100
AcDbCircle
  8
PPS_LED
 62
256
370
-1
  6
ByLayer
 10
200.0
 20
720.0
 30
0.0
 40
20.0
  0
LINE
  5
6F
100
AcDbEntity
100
AcDbLine
  8
PPS_LED
 62
256
370
-1
  6
ByLayer
 10
210.0
 20
730.0
 30
0.0
 11
210.0
 21
710.0
 31
0.0
  0
LINE
  5
70
100
AcDbEntity
100
AcDbLine
  8
PPS_LED
 62
256
370
-1
  6
ByLayer
 10
210.0
 20
720.0
 30
0.0
 11
230.0
 21
720.0
 31
0.0
  0
LINE
  5
71
100
AcDbEntity
100
AcDbLine
  8
PPS_LED
 62
256
370
-1
  6
ByLayer
 10
210.0
 20
725.0
 30
0.0
 11
195.0
 21
733.0
 31
0.0
  0
LINE
  5
72
100
AcDbEntity
100
AcDbLine
  8
PPS_LED
 62
256
370
-1
  6
ByLayer
 10
210.0
 20
713.0
 30
0.0
 11
195.0
 21
706.0
 31
0.0
  0
LINE
  5
73
100
AcDbEntity
100
AcDbLine
  8
PPS_LED
 62
256
370
-1
  6
ByLayer
 10
195.0
 20
733.0
 30
0.0
 11
195.0
 21
750.0
 31
0.0
  0
LINE
  5
74
100
AcDbEntity
100
AcDbLine
  8
PPS_LED
 62
256
370
-1
  6
ByLayer
 10
195.0
 20
706.0
 30
0.0
 11
195.0
 21
690.0
 31
0.0
  0
LINE
  5
75
100
AcDbEntity
100
AcDbLine
  8
PPS_LED
 62
256
370
-1
  6
ByLayer
 10
199.0
 20
708.0
 30
0.0
 11
204.0
 21
714.0
 31
0.0
  0
LINE
  5
76
100
AcDbEntity
100
AcDbLine
  8
PPS_LED
 62
256
370
-1
  6
ByLayer
 10
204.0
 20
714.0
 30
0.0
 11
207.0
 21
708.0
 31
0.0
  0
LINE
  5
77
100
AcDbEntity
100
AcDbLine
  8
PPS_LED
 62
256
370
-1
  6
ByLayer
 10
207.0
 20
708.0
 30
0.0
 11
199.0
 21
708.0
 31
0.0
  0
LINE
  5
78
100
AcDbEntity
100
AcDbLine
  8
PPS_LED
 62
256
370
-1
  6
ByLayer
 10
280.0
 20
720.0
 30
0.0
 11
270.0
 21
720.0
 31
0.0
  0
LINE
  5
79
100
AcDbEntity
100
AcDbLine
  8
PPS_LED
 62
256
370
-1
  6
ByLayer
 10
330.0
 20
720.0
 30
0.0
 11
340.0
 21
720.0
 31
0.0
  0
LINE
  5
7A
100
AcDbEntity
100
AcDbLine
  8
Wires - yellow
 62
256
370
-1
  6
ByLayer
 10
230.0
 20
720.0
 30
0.0
 11
270.0
 21
720.0
 31
0.0
  0
MTEXT
  5
7B
100
AcDbEntity
100
AcDbMText
  8
PPS_LED
 62
256
370
-1
  6
ByLayer
 10
280.0
 20
750.0
 30
0.0
 40
12.0
 41
21.3333333333000006
 71
1
 72
2
  1
10k
  7
iso
 50
0.0
 73
0
 44
0.96
  0
LINE
  5
7C
100
AcDbEntity
100
AcDbLine
  8
PPS_LED
 62
256
370
-1
  6
ByLayer
 10
195.0
 20
770.0
 30
0.0
 11
185.0
 21
790.0
 31
0.0
  0
LINE
  5
7D
100
AcDbEntity
100
AcDbLine
  8
PPS_LED
 62
256
370
-1
  6
ByLayer
 10
185.0
 20
790.0
 30
0.0
 11
205.0
 21
790.0
 31
0.0
  0
LINE
  5
7E
100
AcDbEntity
100
AcDbLine
  8
PPS_LED
 62
256
370
-1
  6
ByLayer
 10
205.0
 20
790.0
 30
0.0
 11
195.0
 21
770.0
 31
0.0
  0
LINE
  5
7F
100
AcDbEntity
100
AcDbLine
  8
PPS_LED
 62
256
370
-1
  6
ByLayer
 10
195.0
 20
770.0
 30
0.0
 11
195.0
 21
760.0
 31
0.0
  0
LINE
  5
80
100
AcDbEntity
100
AcDbLine
  8
PPS_LED
 62
256
370
-1
  6
ByLayer
 10
185.0
 20
770.0
 30
0.0
 11
205.0
 21
770.0
 31
0.0
  0
LINE
  5
81
100
AcDbEntity
100
AcDbLine
  8
PPS_LED
 62
256
370
-1
  6
ByLayer
 10
195.0
 20
790.0
 30
0.0
 11
195.0
 21
800.0
 31
0.0
  0
LINE
  5
82
100
AcDbEntity
100
AcDbLine
  8
PPS_LED
 62
256
370
-1
  6
ByLayer
 10
183.0
 20
784.0
 30
0.0
 11
172.0
 21
778.0
 31
0.0
  0
LINE
  5
83
100
AcDbEntity
100
AcDbLine
  8
PPS_LED
 62
256
370
-1
  6
ByLayer
 10
172.0
 20
778.0
 30
0.0
 11
177.0
 21
784.0
 31
0.0
  0
LINE
  5
84
100
AcDbEntity
100
AcDbLine
  8
PPS_LED
 62
256
370
-1
  6
ByLayer
 10
172.0
 20
778.0
 30
0.0
 11
179.0
 21
779.0
 31
0.0
  0
LINE
  5
85
100
AcDbEntity
100
AcDbLine
  8
PPS_LED
 62
256
370
-1
  6
ByLayer
 10
187.0
 20
777.0
 30
0.0
 11
176.0
 21
771.0
 31
0.0
  0
LINE
  5
86
100
AcDbEntity
100
AcDbLine
  8
PPS_LED
 62
256
370
-1
  6
ByLayer
 10
176.0
 20
771.0
 30
0.0
 11
181.0
 21
777.0
 31
0.0
  0
LINE
  5
87
100
AcDbEntity
100
AcDbLine
  8
PPS_LED
 62
256
370
-1
  6
ByLayer
 10
176.0
 20
771.0
 30
0.0
 11
183.0
 21
772.0
 31
0.0
  0
LINE
  5
88
100
AcDbEntity
100
AcDbLine
  8
Wires - red
 62
256
370
-1
  6
ByLayer
 10
195.0
 20
760.0
 30
0.0
 11
195.0
 21
750.0
 31
0.0
  0
LINE
  5
89
100
AcDbEntity
100
AcDbLine
  8
Wires - yellow
 62
256
370
-1
  6
ByLayer
 10
340.0
 20
720.0
 30
0.0
 11
437.0
 21
720.0
 31
0.0
  0
LINE
  5
8A
100
AcDbEntity
100
AcDbLine
  8
Wires - blue
 62
256
370
-1
  6
ByLayer
 10
195.0
 20
690.0
 30
0.0
 11
195.0
 21
650.0
 31
0.0
  0
LINE
  5
8B
100
AcDbEntity
100
AcDbLine
  8
Wires - red
 62
256
370
-1
  6
ByLayer
 10
270.0
 20
810.0
 30
0.0
 11
195.0
 21
810.0
 31
0.0
  0
LINE
  5
8C
100
AcDbEntity
100
AcDbLine
  8
Wires - red
 62
256
370
-1
  6
ByLayer
 10
195.0
 20
810.0
 30
0.0
 11
195.0
 21
800.0
 31
0.0
  0
LINE
  5
8D
100
AcDbEntity
100
AcDbLine
  8
Wires - red
 62
256
370
-1
  6
ByLayer
 10
340.0
 20
810.0
 30
0.0
 11
400.0
 21
810.0
 31
0.0
  0
MTEXT
  5
8E
100
AcDbEntity
100
AcDbMText
  8
PPS_LED
 62
256
370
-1
  6
ByLayer
 10
280.0
 20
840.0
 30
0.0
 40
12.0
 41
25.3333333333000006
 71
1
 72
2
  1
470
  7
iso
 50
0.0
 73
1
 44
0.96
  0
MTEXT
  5
8F
100
AcDbEntity
100
AcDbMText
  8
PPS_LED
 62
256
370
-1
  6
ByLayer
 10
210.0
 20
790.0
 30
0.0
 40
12.0
 41
25.3333333333000006
 71
1
 72
2
  1
LED
  7
iso
 50
0.0
 73
0
 44
0.96
  0
MTEXT
  5
90
100
AcDbEntity
100
AcDbMText
  8
PPS_LED
 62
256
370
-1
  6
ByLayer
 10
210.0
 20
700.0
 30
0.0
 40
12.0
 41
28.0
 71
1
 72
2
  1
NPN
  7
iso
 50
0.0
 73
0
 44
0.96
  0
LINE
  5
91
100
AcDbEntity
100
AcDbLine
  8
PPS_LED
 62
256
370
-1
  6
ByLayer
 10
280.0
 20
728.0
 30
0.0
 11
330.0
 21
728.0
 31
0.0
  0
LINE
  5
92
100
AcDbEntity
100
AcDbLine
  8
PPS_LED
 62
256
370
-1
  6
ByLayer
 10
330.0
 20
712.0
 30
0.0
 11
280.0
 21
712.0
 31
0.0
  0
LINE
  5
93
100
AcDbEntity
100
AcDbLine
  8
PPS_LED
 62
256
370
-1
  6
ByLayer
 10
280.0
 20
712.0
 30
0.0
 11
280.0
 21
728.0
 31
0.0
  0
LINE
  5
94
100
AcDbEntity
100
AcDbLine
  8
PPS_LED
 62
256
370
-1
  6
ByLayer
 10
330.0
 20
728.0
 30
0.0
 11
330.0
 21
712.0
 31
0.0
  0
LINE
  5
95
100
AcDbEntity
100
AcDbLine
  8
PPS_LED
 62
256
370
-1
  6
ByLayer
 10
280.0
 20
810.0
 30
0.0
 11
270.0
 21
810.0
 31
0.0
  0
LINE
  5
96
100
AcDbEntity
100
AcDbLine
  8
PPS_LED
 62
256
370
-1
  6
ByLayer
 10
330.0
 20
810.0
 30
0.0
 11
340.0
 21
810.0
 31
0.0
  0
LINE
  5
97
100
AcDbEntity
100
AcDbLine
  8
PPS_LED
 62
256
370
-1
  6
ByLayer
 10
280.0
 20
818.0
 30
0.0
 11
330.0
 21
818.0
 31
0.0
  0
LINE
  5
98
100
AcDbEntity
100
AcDbLine
  8
PPS_LED
 62
256
370
-1
  6
ByLayer
 10
330.0
 20
802.0
 30
0.0
 11
280.0
 21
802.0
 31
0.0
  0
LINE
  5
99
100
AcDbEntity
100
AcDbLine
  8
PPS_LED
 62
256
370
-1
  6
ByLayer
 10
280.0
 20
802.0
 30
0.0
 11
280.0
 21
818.0
 31
0.0
  0
LINE
  5
9A
100
AcDbEntity
100
AcDbLine
  8
PPS_LED
 62
256
370
-1
  6
ByLayer
 10
330.0
 20
818.0
 30
0.0
 11
330.0
 21
802.0
 31
0.0
  0
LINE
  5
9B
100
AcDbEntity
100
AcDbLine
  8
Switches
 62
256
370
-1
  6
ByLayer
 10
640.0
 20
280.0
 30
0.0
 11
650.0
 21
280.0
 31
0.0
  0
LINE
  5
9C
100
AcDbEntity
100
AcDbLine
  8
Switches
 62
256
370
-1
  6
ByLayer
 10
690.0
 20
280.0
 30
0.0
 11
680.0
 21
280.0
 31
0.0
  0
LINE
  5
9D
100
AcDbEntity
100
AcDbLine
  8
Switches
 62
256
370
-1
  6
ByLayer
 10
650.0
 20
280.0
 30
0.0
 11
676.0
 21
290.0
 31
0.0
  0
CIRCLE
  5
9E
100
AcDbEntity
100
AcDbCircle
  8
Switches
 62
256
370
-1
  6
ByLayer
 10
650.0
 20
280.0
 30
0.0
 40
1.0
  0
CIRCLE
  5
9F
100
AcDbEntity
100
AcDbCircle
  8
Switches
 62
256
370
-1
  6
ByLayer
 10
676.0
 20
290.0
 30
0.0
 40
1.0
  0
CIRCLE
  5
A0
100
AcDbEntity
100
AcDbCircle
  8
Switches
 62
256
370
-1
  6
ByLayer
 10
680.0
 20
280.0
 30
0.0
 40
1.0
  0
LINE
  5
A1
100
AcDbEntity
100
AcDbLine
  8
Wires - blue
 62
256
370
-1
  6
ByLayer
 10
460.0
 20
280.0
 30
0.0
 11
640.0
 21
280.0
 31
0.0
  0
LINE
  5
A2
100
AcDbEntity
100
AcDbLine
  8
Wires - blue
 62
256
370
-1
  6
ByLayer
 10
690.0
 20
280.0
 30
0.0
 11
854.0
 21
280.0
 31
0.0
  0
LINE
  5
A3
100
AcDbEntity
100
AcDbLine
  8
Wires - blue
 62
256
370
-1
  6
ByLayer
 10
854.0
 20
280.0
 30
0.0
 11
854.0
 21
332.0
 31
0.0
  0
CIRCLE
  5
A4
100
AcDbEntity
100
AcDbCircle
  8
Wires - blue
 62
256
370
-1
  6
ByLayer
 10
195.0
 20
650.0
 30
0.0
 40
1.0
  0
CIRCLE
  5
A5
100
AcDbEntity
100
AcDbCircle
  8
Wires - blue
 62
256
370
-1
  6
ByLayer
 10
470.0
 20
650.0
 30
0.0
 40
1.0
  0
CIRCLE
  5
A6
100
AcDbEntity
100
AcDbCircle
  8
Wires - blue
 62
256
370
-1
  6
ByLayer
 10
460.3874936899999852
 20
280.1193193049999763
 30
0.0
 40
1.0
  0
CIRCLE
  5
A7
100
AcDbEntity
100
AcDbCircle
  8
Wires - pink
 62
256
370
-1
  6
ByLayer
 10
409.2054051439999967
 20
548.2598519279999891
 30
0.0
 40
1.0
  0
CIRCLE
  5
A8
100
AcDbEntity
100
AcDbCircle
  8
Wires - pink
 62
256
370
-1
  6
ByLayer
 10
423.445920779000005
 20
548.2598519279999891
 30
0.0
 40
1.0
  0
CIRCLE
  5
A9
100
AcDbEntity
100
AcDbCircle
  8
Wires - pink
 62
256
370
-1
  6
ByLayer
 10
437.686436413000024
 20
548.2598519279999891
 30
0.0
 40
1.0
  0
CIRCLE
  5
AA
100
AcDbEntity
100
AcDbCircle
  8
Wires - red
 62
256
370
-1
  6
ByLayer
 10
400.0
 20
633.0
 30
0.0
 40
1.0
  0
CIRCLE
  5
AB
100
AcDbEntity
100
AcDbCircle
  8
Wires - pink
 62
256
370
-1
  6
ByLayer
 10
830.975971143000038
 20
630.6709448340000108
 30
0.0
 40
1.0
  0
CIRCLE
  5
AC
100
AcDbEntity
100
AcDbCircle
  8
Wires - pink
 62
256
370
-1
  6
ByLayer
 10
845.6353254719999768
 20
630.2521061380000447
 30
0.0
 40
1.0
  0
CIRCLE
  5
AD
100
AcDbEntity
100
AcDbCircle
  8
Wires - pink
 62
256
370
-1
  6
ByLayer
 10
859.875841107000042
 20
630.6709448340000108
 30
0.0
 40
1.0
  0
LINE
  5
AE
100
AcDbEntity
100
AcDbLine
  8
Wires - pink
 62
256
370
-1
  6
ByLayer
 10
830.975971143000038
 20
603.1277209910000465
 30
0.0
 11
830.975971143000038
 21
630.0
 31
0.0
  0
LINE
  5
AF
100
AcDbEntity
100
AcDbLine
  8
Wires - pink
 62
256
370
-1
  6
ByLayer
 10
845.6353254719999768
 20
603.5465596860000232
 30
0.0
 11
845.6353254719999768
 21
630.0
 31
0.0
  0
LINE
  5
B0
100
AcDbEntity
100
AcDbLine
  8
Wires - pink
 62
256
370
-1
  6
ByLayer
 10
859.875841107000042
 20
603.1277209910000465
 30
0.0
 11
859.875841107000042
 21
630.0
 31
0.0
  0
LINE
  5
B1
100
AcDbEntity
100
AcDbLine
  8
Wires - pink
 62
256
370
-1
  6
ByLayer
 10
874.3257760889999872
 20
604.174817728999983
 30
0.0
 11
874.3257760889999872
 21
630.0
 31
0.0
  0
LINE
  5
B2
100
AcDbEntity
100
AcDbLine
  8
Wires - pink
 62
256
370
-1
  6
ByLayer
 10
642.3938486590000139
 20
630.0
 30
0.0
 11
642.3938486590000139
 21
548.2598519279999891
 31
0.0
  0
LINE
  5
B3
100
AcDbEntity
100
AcDbLine
  8
Wires - pink
 62
256
370
-1
  6
ByLayer
 10
642.3938486590000139
 20
630.0
 30
0.0
 11
874.3257760889999872
 21
630.0
 31
0.0
  0
LINE
  5
B4
100
AcDbEntity
100
AcDbLine
  8
Switches
 62
256
370
-1
  6
ByLayer
 10
890.0
 20
650.0
 30
0.0
 11
900.0
 21
650.0
 31
0.0
  0
LINE
  5
B5
100
AcDbEntity
100
AcDbLine
  8
Switches
 62
256
370
-1
  6
ByLayer
 10
940.0
 20
650.0
 30
0.0
 11
930.0
 21
650.0
 31
0.0
  0
LINE
  5
B6
100
AcDbEntity
100
AcDbLine
  8
Switches
 62
256
370
-1
  6
ByLayer
 10
900.0
 20
650.0
 30
0.0
 11
926.0
 21
660.0
 31
0.0
  0
CIRCLE
  5
B7
100
AcDbEntity
100
AcDbCircle
  8
Switches
 62
256
370
-1
  6
ByLayer
 10
900.0
 20
650.0
 30
0.0
 40
1.0
  0
CIRCLE
  5
B8
100
AcDbEntity
100
AcDbCircle
  8
Switches
 62
256
370
-1
  6
ByLayer
 10
926.0
 20
660.0
 30
0.0
 40
1.0
  0
CIRCLE
  5
B9
100
AcDbEntity
100
AcDbCircle
  8
Switches
 62
256
370
-1
  6
ByLayer
 10
930.0
 20
650.0
 30
0.0
 40
1.0
  0
MTEXT
  5
BA
100
AcDbEntity
100
AcDbMText
  8
Switches
 62
256
370
-1
  6
ByLayer
 10
890.0
 20
684.0
 30
0.0
 40
10.0
 41
100.0
 71
1
 72
2
  1
SW Info
  7
iso
 50
0.0
 73
1
 44
1.0
  0
LINE
  5
BB
100
AcDbEntity
100
AcDbLine
  8
Wires - blue
 62
256
370
-1
  6
ByLayer
 10
940.0
 20
650.0
 30
0.0
 11
968.0
 21
650.0
 31
0.0
  0
LINE
  5
BC
100
AcDbEntity
100
AcDbLine
  8
Wires - blue
 62
256
370
-1
  6
ByLayer
 10
968.0
 20
650.0
 30
0.0
 11
968.0
 21
603.0
 31
0.0
  0
LINE
  5
BD
100
AcDbEntity
100
AcDbLine
  8
Wires - blue
 62
256
370
-1
  6
ByLayer
 10
470.0
 20
650.0
 30
0.0
 11
890.0
 21
650.0
 31
0.0
  0
MTEXT
  5
BE
100
AcDbEntity
100
AcDbMText
  8
Switches
 62
256
370
-1
  6
ByLayer
 10
640.0
 20
260.0
 30
0.0
 40
10.0
 41
100.0
 71
1
 72
2
  1
SW Reset
  7
iso
 50
0.0
 73
1
 44
1.0
  0
LINE
  5
BF
100
AcDbEntity
100
AcDbLine
  8
Switches
 62
256
370
-1
  6
ByLayer
 10
350.0
 20
289.799372491999975
 30
0.0
 11
340.0
 21
289.799372491999975
 31
0.0
  0
LINE
  5
C0
100
AcDbEntity
100
AcDbLine
  8
Switches
 62
256
370
-1
  6
ByLayer
 10
300.0
 20
289.799372491999975
 30
0.0
 11
310.0
 21
289.799372491999975
 31
0.0
  0
CIRCLE
  5
C1
100
AcDbEntity
100
AcDbCircle
  8
Switches
 62
256
370
-1
  6
ByLayer
 10
340.0
 20
289.799372491999975
 30
0.0
 40
1.0
  0
CIRCLE
  5
C2
100
AcDbEntity
100
AcDbCircle
  8
Switches
 62
256
370
-1
  6
ByLayer
 10
310.0
 20
289.799372491999975
 30
0.0
 40
1.0
  0
LINE
  5
C3
100
AcDbEntity
100
AcDbLine
  8
Switches
 62
256
370
-1
  6
ByLayer
 10
340.0
 20
289.799372491999975
 30
0.0
 11
310.0
 21
289.799372491999975
 31
0.0
  0
LINE
  5
C4
100
AcDbEntity
100
AcDbLine
  8
Wires - red
 62
256
370
-1
  6
ByLayer
 10
350.0
 20
289.799372491999975
 30
0.0
 11
445.8341579049999837
 21
289.799372491999975
 31
0.0
  0
LINE
  5
C5
100
AcDbEntity
100
AcDbLine
  8
Wires - red
 62
256
370
-1
  6
ByLayer
 10
445.8341579049999837
 20
289.799372491999975
 30
0.0
 11
445.8341579049999837
 21
296.132046167999988
 31
0.0
  0
LINE
  5
C6
100
AcDbEntity
100
AcDbLine
  8
Wires - red
 62
256
370
-1
  6
ByLayer
 10
300.0
 20
289.799372491999975
 30
0.0
 11
166.881042592
 21
289.799372491999975
 31
0.0
  0
LINE
  5
C7
100
AcDbEntity
100
AcDbLine
  8
Wires - red
 62
256
370
-1
  6
ByLayer
 10
166.881042592
 20
289.799372491999975
 30
0.0
 11
166.881042592
 21
296.132046167999988
 31
0.0
  0
LINE
  5
C8
100
AcDbEntity
100
AcDbLine
  8
Wires - red
 62
256
370
-1
  6
ByLayer
 10
166.881042592
 20
632.799372491999975
 30
0.0
 11
482.6461525940000001
 21
632.799372491999975
 31
0.0
  0
LINE
  5
C9
100
AcDbEntity
100
AcDbLine
  8
Wires - red
 62
256
370
-1
  6
ByLayer
 10
400.0
 20
810.0
 30
0.0
 11
400.0
 21
633.0
 31
0.0
  0
MTEXT
  5
CA
100
AcDbEntity
100
AcDbMText
  8
Switches
 62
256
370
-1
  6
ByLayer
 10
295.0
 20
312.0
 30
0.0
 40
10.0
 41
100.0
 71
1
 72
0
  1
SW GPS off
  7
normallatin2
 50
0.0
 73
1
 44
1.0
  0
ENDSEC
  0
SECTION
  2
OBJECTS
  0
DICTIONARY
  5
C
100
AcDbDictionary
280
0
281
1
  3
ACAD_GROUP
350
D
  3
ACAD_LAYOUT
350
1A
  3
ACAD_MLINESTYLE
350
17
  3
ACAD_PLOTSETTINGS
350
19
  3
ACAD_PLOTSTYLENAME
350
E
  3
AcDbVariableDictionary
350
CB
  0
DICTIONARY
  5
D
100
AcDbDictionary
280
0
281
1
  0
ACDBDICTIONARYWDFLT
  5
E
100
AcDbDictionary
281
1
  3
Normal
350
F
100
AcDbDictionaryWithDefault
340
F
  0
ACDBPLACEHOLDER
  5
F
  0
DICTIONARY
  5
17
100
AcDbDictionary
280
0
281
1
  3
Standard
350
18
  0
MLINESTYLE
  5
18
100
AcDbMlineStyle
  2
STANDARD
 70
0
  3

 62
256
 51
90.0
 52
90.0
 71
2
 49
0.5
 62
256
  6
BYLAYER
 49
-0.5
 62
256
  6
BYLAYER
  0
DICTIONARY
  5
19
100
AcDbDictionary
280
0
281
1
  0
DICTIONARY
  5
1A
100
AcDbDictionary
281
1
  3
Layout1
350
1E
  3
Layout2
350
26
  3
Model
350
22
  0
LAYOUT
  5
1E
100
AcDbPlotSettings
  1

  2
C:\Program Files\AutoCAD 2002\plotters\DWF ePlot (optimized for plotting).pc3
  4

  6

 40
0.0
 41
0.0
 42
0.0
 43
0.0
 44
0.0
 45
0.0
 46
0.0
 47
0.0
 48
0.0
 49
0.0
140
0.0
141
0.0
142
1.0
143
1.0
 70
688
 72
0
 73
0
 74
5
  7

 75
16
147
1.0
148
0.0
149
0.0
100
AcDbLayout
  1
Layout1
 70
1
 71
1
 10
0.0
 20
0.0
 11
420.0
 21
297.0
 12
0.0
 22
0.0
 32
0.0
 14
100000000000000000000.0
 24
100000000000000000000.0
 34
100000000000000000000.0
 15
-100000000000000000000.0
 25
-100000000000000000000.0
 35
-100000000000000000000.0
146
0.0
 13
0.0
 23
0.0
 33
0.0
 16
1.0
 26
0.0
 36
0.0
 17
0.0
 27
1.0
 37
0.0
 76
0
330
1B
  0
LAYOUT
  5
22
100
AcDbPlotSettings
  1

  2
C:\Program Files\AutoCAD 2002\plotters\DWF ePlot (optimized for plotting).pc3
  4

  6

 40
0.0
 41
0.0
 42
0.0
 43
0.0
 44
0.0
 45
0.0
 46
0.0
 47
0.0
 48
0.0
 49
0.0
140
0.0
141
0.0
142
1.0
143
1.0
 70
1712
 72
0
 73
0
 74
0
  7

 75
0
147
1.0
148
0.0
149
0.0
100
AcDbLayout
  1
Model
 70
1
 71
0
 10
0.0
 20
0.0
 11
12.0
 21
9.0
 12
0.0
 22
0.0
 32
0.0
 14
0.0
 24
0.0
 34
0.0
 15
0.0
 25
0.0
 35
0.0
146
0.0
 13
0.0
 23
0.0
 33
0.0
 16
1.0
 26
0.0
 36
0.0
 17
0.0
 27
1.0
 37
0.0
 76
0
330
1F
  0
LAYOUT
  5
26
100
AcDbPlotSettings
  1

  2
C:\Program Files\AutoCAD 2002\plotters\DWF ePlot (optimized for plotting).pc3
  4

  6

 40
0.0
 41
0.0
 42
0.0
 43
0.0
 44
0.0
 45
0.0
 46
0.0
 47
0.0
 48
0.0
 49
0.0
140
0.0
141
0.0
142
1.0
143
1.0
 70
688
 72
0
 73
0
 74
5
  7

 75
16
147
1.0
148
0.0
149
0.0
100
AcDbLayout
  1
Layout2
 70
1
 71
2
 10
0.0
 20
0.0
 11
12.0
 21
9.0
 12
0.0
 22
0.0
 32
0.0
 14
0.0
 24
0.0
 34
0.0
 15
0.0
 25
0.0
 35
0.0
146
0.0
 13
0.0
 23
0.0
 33
0.0
 16
1.0
 26
0.0
 36
0.0
 17
0.0
 27
1.0
 37
0.0
 76
0
330
23
  0
DICTIONARY
  5
CB
100
AcDbDictionary
281
1
  3
DIMASSOC
350
CD
  3
HIDETEXT
350
CC
  0
DICTIONARYVAR
  5
CC
100
DictionaryVariables
280
0
  1
2
  0
DICTIONARYVAR
  5
CD
100
DictionaryVariables
280
0
  1
1
  0
IMAGEDEF
  5
4D
100
AcDbRasterImageDef
 90
0
  1
/home/piotr/Pulpit/Zakrycia/vti/VTI/pics/ublox.png
 10
150.0
 20
228.0
 11
1.0
 21
1.0
280
1
281
0
  0
IMAGEDEF
  5
4F
100
AcDbRasterImageDef
 90
0
  1
/home/piotr/Pulpit/Zakrycia/vti/VTI/pics/arduino.png
 10
416.0
 20
297.0
 11
1.0
 21
1.0
280
1
281
0
  0
IMAGEDEF
  5
51
100
AcDbRasterImageDef
 90
0
  1
/home/piotr/Pulpit/Zakrycia/vti/VTI/pics/OSDshield.png
 10
387.0
 20
297.0
 11
1.0
 21
1.0
280
1
281
0
  0
ENDSEC
  0
EOF
